<?xml version="1.0" encoding="utf-8" standalone="no"?>
<!DOCTYPE svg PUBLIC "-//W3C//DTD SVG 1.1//EN"
  "http://www.w3.org/Graphics/SVG/1.1/DTD/svg11.dtd">
<svg xmlns:xlink="http://www.w3.org/1999/xlink" width="427.8225pt" height="426.15625pt" viewBox="0 0 427.8225 426.15625" xmlns="http://www.w3.org/2000/svg" version="1.1">
 <metadata>
  <rdf:RDF xmlns:dc="http://purl.org/dc/elements/1.1/" xmlns:cc="http://creativecommons.org/ns#" xmlns:rdf="http://www.w3.org/1999/02/22-rdf-syntax-ns#">
   <cc:Work>
    <dc:type rdf:resource="http://purl.org/dc/dcmitype/StillImage"/>
    <dc:date>2024-06-08T17:45:13.064201</dc:date>
    <dc:format>image/svg+xml</dc:format>
    <dc:creator>
     <cc:Agent>
      <dc:title>Matplotlib v3.8.4, https://matplotlib.org/</dc:title>
     </cc:Agent>
    </dc:creator>
   </cc:Work>
  </rdf:RDF>
 </metadata>
 <defs>
  <style type="text/css">*{stroke-linejoin: round; stroke-linecap: butt}</style>
 </defs>
 <g id="figure_1">
  <g id="patch_1">
   <path d="M 0 426.15625 
L 427.8225 426.15625 
L 427.8225 0 
L 0 0 
z
" style="fill: #ffffff"/>
  </g>
  <g id="axes_1">
   <g id="patch_2">
    <path d="M 47.24375 388.6 
L 356.614714 388.6 
L 356.614714 83.321143 
L 47.24375 83.321143 
z
" style="fill: #ffffff"/>
   </g>
   <g id="PathCollection_1">
    <defs>
     <path id="mc43c7a2739" d="M 0 3 
C 0.795609 3 1.55874 2.683901 2.12132 2.12132 
C 2.683901 1.55874 3 0.795609 3 0 
C 3 -0.795609 2.683901 -1.55874 2.12132 -2.12132 
C 1.55874 -2.683901 0.795609 -3 0 -3 
C -0.795609 -3 -1.55874 -2.683901 -2.12132 -2.12132 
C -2.683901 -1.55874 -3 -0.795609 -3 0 
C -3 0.795609 -2.683901 1.55874 -2.12132 2.12132 
C -1.55874 2.683901 -0.795609 3 0 3 
z
" style="stroke: #1f77b4; stroke-opacity: 0.8"/>
    </defs>
    <g clip-path="url(#pf71b9f3194)">
     <use xlink:href="#mc43c7a2739" x="311.302805" y="169.843918" style="fill: #1f77b4; fill-opacity: 0.8; stroke: #1f77b4; stroke-opacity: 0.8"/>
     <use xlink:href="#mc43c7a2739" x="175.275168" y="146.958958" style="fill: #1f77b4; fill-opacity: 0.8; stroke: #1f77b4; stroke-opacity: 0.8"/>
     <use xlink:href="#mc43c7a2739" x="230.421508" y="222.41095" style="fill: #1f77b4; fill-opacity: 0.8; stroke: #1f77b4; stroke-opacity: 0.8"/>
     <use xlink:href="#mc43c7a2739" x="228.583296" y="185.857939" style="fill: #1f77b4; fill-opacity: 0.8; stroke: #1f77b4; stroke-opacity: 0.8"/>
     <use xlink:href="#mc43c7a2739" x="313.141017" y="220.609721" style="fill: #1f77b4; fill-opacity: 0.8; stroke: #1f77b4; stroke-opacity: 0.8"/>
     <use xlink:href="#mc43c7a2739" x="138.510942" y="172.665298" style="fill: #1f77b4; fill-opacity: 0.8; stroke: #1f77b4; stroke-opacity: 0.8"/>
     <use xlink:href="#mc43c7a2739" x="326.008496" y="153.768649" style="fill: #1f77b4; fill-opacity: 0.8; stroke: #1f77b4; stroke-opacity: 0.8"/>
     <use xlink:href="#mc43c7a2739" x="291.082481" y="148.413108" style="fill: #1f77b4; fill-opacity: 0.8; stroke: #1f77b4; stroke-opacity: 0.8"/>
     <use xlink:href="#mc43c7a2739" x="142.187364" y="212.407814" style="fill: #1f77b4; fill-opacity: 0.8; stroke: #1f77b4; stroke-opacity: 0.8"/>
     <use xlink:href="#mc43c7a2739" x="81.526391" y="219.873678" style="fill: #1f77b4; fill-opacity: 0.8; stroke: #1f77b4; stroke-opacity: 0.8"/>
     <use xlink:href="#mc43c7a2739" x="167.922323" y="182.744182" style="fill: #1f77b4; fill-opacity: 0.8; stroke: #1f77b4; stroke-opacity: 0.8"/>
     <use xlink:href="#mc43c7a2739" x="270.862156" y="145.826501" style="fill: #1f77b4; fill-opacity: 0.8; stroke: #1f77b4; stroke-opacity: 0.8"/>
     <use xlink:href="#mc43c7a2739" x="191.81907" y="157.479267" style="fill: #1f77b4; fill-opacity: 0.8; stroke: #1f77b4; stroke-opacity: 0.8"/>
     <use xlink:href="#mc43c7a2739" x="267.185734" y="181.830565" style="fill: #1f77b4; fill-opacity: 0.8; stroke: #1f77b4; stroke-opacity: 0.8"/>
     <use xlink:href="#mc43c7a2739" x="300.273537" y="201.313773" style="fill: #1f77b4; fill-opacity: 0.8; stroke: #1f77b4; stroke-opacity: 0.8"/>
     <use xlink:href="#mc43c7a2739" x="66.820701" y="374.723688" style="fill: #1f77b4; fill-opacity: 0.8; stroke: #1f77b4; stroke-opacity: 0.8"/>
     <use xlink:href="#mc43c7a2739" x="243.288987" y="152.728032" style="fill: #1f77b4; fill-opacity: 0.8; stroke: #1f77b4; stroke-opacity: 0.8"/>
     <use xlink:href="#mc43c7a2739" x="327.846707" y="202.471319" style="fill: #1f77b4; fill-opacity: 0.8; stroke: #1f77b4; stroke-opacity: 0.8"/>
     <use xlink:href="#mc43c7a2739" x="224.906874" y="163.721393" style="fill: #1f77b4; fill-opacity: 0.8; stroke: #1f77b4; stroke-opacity: 0.8"/>
     <use xlink:href="#mc43c7a2739" x="68.658912" y="173.959402" style="fill: #1f77b4; fill-opacity: 0.8; stroke: #1f77b4; stroke-opacity: 0.8"/>
     <use xlink:href="#mc43c7a2739" x="191.81907" y="256.902411" style="fill: #1f77b4; fill-opacity: 0.8; stroke: #1f77b4; stroke-opacity: 0.8"/>
     <use xlink:href="#mc43c7a2739" x="269.023945" y="110.779595" style="fill: #1f77b4; fill-opacity: 0.8; stroke: #1f77b4; stroke-opacity: 0.8"/>
     <use xlink:href="#mc43c7a2739" x="188.142647" y="330.610758" style="fill: #1f77b4; fill-opacity: 0.8; stroke: #1f77b4; stroke-opacity: 0.8"/>
     <use xlink:href="#mc43c7a2739" x="162.407689" y="206.736967" style="fill: #1f77b4; fill-opacity: 0.8; stroke: #1f77b4; stroke-opacity: 0.8"/>
     <use xlink:href="#mc43c7a2739" x="257.994677" y="208.682345" style="fill: #1f77b4; fill-opacity: 0.8; stroke: #1f77b4; stroke-opacity: 0.8"/>
     <use xlink:href="#mc43c7a2739" x="184.466225" y="170.540154" style="fill: #1f77b4; fill-opacity: 0.8; stroke: #1f77b4; stroke-opacity: 0.8"/>
     <use xlink:href="#mc43c7a2739" x="173.436957" y="255.54735" style="fill: #1f77b4; fill-opacity: 0.8; stroke: #1f77b4; stroke-opacity: 0.8"/>
     <use xlink:href="#mc43c7a2739" x="204.686549" y="214.725872" style="fill: #1f77b4; fill-opacity: 0.8; stroke: #1f77b4; stroke-opacity: 0.8"/>
     <use xlink:href="#mc43c7a2739" x="140.349153" y="161.902932" style="fill: #1f77b4; fill-opacity: 0.8; stroke: #1f77b4; stroke-opacity: 0.8"/>
     <use xlink:href="#mc43c7a2739" x="267.185734" y="170.137568" style="fill: #1f77b4; fill-opacity: 0.8; stroke: #1f77b4; stroke-opacity: 0.8"/>
     <use xlink:href="#mc43c7a2739" x="291.082481" y="197.818812" style="fill: #1f77b4; fill-opacity: 0.8; stroke: #1f77b4; stroke-opacity: 0.8"/>
     <use xlink:href="#mc43c7a2739" x="291.082481" y="205.054975" style="fill: #1f77b4; fill-opacity: 0.8; stroke: #1f77b4; stroke-opacity: 0.8"/>
     <use xlink:href="#mc43c7a2739" x="164.2459" y="179.804813" style="fill: #1f77b4; fill-opacity: 0.8; stroke: #1f77b4; stroke-opacity: 0.8"/>
     <use xlink:href="#mc43c7a2739" x="234.09793" y="219.325799" style="fill: #1f77b4; fill-opacity: 0.8; stroke: #1f77b4; stroke-opacity: 0.8"/>
     <use xlink:href="#mc43c7a2739" x="298.435326" y="162.115533" style="fill: #1f77b4; fill-opacity: 0.8; stroke: #1f77b4; stroke-opacity: 0.8"/>
     <use xlink:href="#mc43c7a2739" x="307.626383" y="105.890002" style="fill: #1f77b4; fill-opacity: 0.8; stroke: #1f77b4; stroke-opacity: 0.8"/>
     <use xlink:href="#mc43c7a2739" x="283.729636" y="171.607821" style="fill: #1f77b4; fill-opacity: 0.8; stroke: #1f77b4; stroke-opacity: 0.8"/>
     <use xlink:href="#mc43c7a2739" x="309.464594" y="158.646024" style="fill: #1f77b4; fill-opacity: 0.8; stroke: #1f77b4; stroke-opacity: 0.8"/>
     <use xlink:href="#mc43c7a2739" x="140.349153" y="140.968706" style="fill: #1f77b4; fill-opacity: 0.8; stroke: #1f77b4; stroke-opacity: 0.8"/>
     <use xlink:href="#mc43c7a2739" x="298.435326" y="149.069925" style="fill: #1f77b4; fill-opacity: 0.8; stroke: #1f77b4; stroke-opacity: 0.8"/>
     <use xlink:href="#mc43c7a2739" x="281.891424" y="204.525844" style="fill: #1f77b4; fill-opacity: 0.8; stroke: #1f77b4; stroke-opacity: 0.8"/>
     <use xlink:href="#mc43c7a2739" x="257.994677" y="135.670846" style="fill: #1f77b4; fill-opacity: 0.8; stroke: #1f77b4; stroke-opacity: 0.8"/>
     <use xlink:href="#mc43c7a2739" x="114.614195" y="184.278338" style="fill: #1f77b4; fill-opacity: 0.8; stroke: #1f77b4; stroke-opacity: 0.8"/>
     <use xlink:href="#mc43c7a2739" x="213.877606" y="174.125312" style="fill: #1f77b4; fill-opacity: 0.8; stroke: #1f77b4; stroke-opacity: 0.8"/>
     <use xlink:href="#mc43c7a2739" x="252.480043" y="247.230353" style="fill: #1f77b4; fill-opacity: 0.8; stroke: #1f77b4; stroke-opacity: 0.8"/>
     <use xlink:href="#mc43c7a2739" x="313.141017" y="217.277449" style="fill: #1f77b4; fill-opacity: 0.8; stroke: #1f77b4; stroke-opacity: 0.8"/>
     <use xlink:href="#mc43c7a2739" x="232.259719" y="248.328007" style="fill: #1f77b4; fill-opacity: 0.8; stroke: #1f77b4; stroke-opacity: 0.8"/>
     <use xlink:href="#mc43c7a2739" x="171.598745" y="174.890733" style="fill: #1f77b4; fill-opacity: 0.8; stroke: #1f77b4; stroke-opacity: 0.8"/>
     <use xlink:href="#mc43c7a2739" x="342.552398" y="304.252701" style="fill: #1f77b4; fill-opacity: 0.8; stroke: #1f77b4; stroke-opacity: 0.8"/>
     <use xlink:href="#mc43c7a2739" x="252.480043" y="201.559222" style="fill: #1f77b4; fill-opacity: 0.8; stroke: #1f77b4; stroke-opacity: 0.8"/>
     <use xlink:href="#mc43c7a2739" x="234.09793" y="125.370999" style="fill: #1f77b4; fill-opacity: 0.8; stroke: #1f77b4; stroke-opacity: 0.8"/>
     <use xlink:href="#mc43c7a2739" x="237.774353" y="245.48493" style="fill: #1f77b4; fill-opacity: 0.8; stroke: #1f77b4; stroke-opacity: 0.8"/>
     <use xlink:href="#mc43c7a2739" x="318.655651" y="158.556107" style="fill: #1f77b4; fill-opacity: 0.8; stroke: #1f77b4; stroke-opacity: 0.8"/>
     <use xlink:href="#mc43c7a2739" x="246.965409" y="190.542765" style="fill: #1f77b4; fill-opacity: 0.8; stroke: #1f77b4; stroke-opacity: 0.8"/>
     <use xlink:href="#mc43c7a2739" x="248.803621" y="166.887898" style="fill: #1f77b4; fill-opacity: 0.8; stroke: #1f77b4; stroke-opacity: 0.8"/>
     <use xlink:href="#mc43c7a2739" x="171.598745" y="161.260112" style="fill: #1f77b4; fill-opacity: 0.8; stroke: #1f77b4; stroke-opacity: 0.8"/>
     <use xlink:href="#mc43c7a2739" x="204.686549" y="221.427727" style="fill: #1f77b4; fill-opacity: 0.8; stroke: #1f77b4; stroke-opacity: 0.8"/>
     <use xlink:href="#mc43c7a2739" x="136.67273" y="223.337697" style="fill: #1f77b4; fill-opacity: 0.8; stroke: #1f77b4; stroke-opacity: 0.8"/>
     <use xlink:href="#mc43c7a2739" x="232.259719" y="204.066564" style="fill: #1f77b4; fill-opacity: 0.8; stroke: #1f77b4; stroke-opacity: 0.8"/>
     <use xlink:href="#mc43c7a2739" x="281.891424" y="181.394899" style="fill: #1f77b4; fill-opacity: 0.8; stroke: #1f77b4; stroke-opacity: 0.8"/>
     <use xlink:href="#mc43c7a2739" x="87.041025" y="149.923048" style="fill: #1f77b4; fill-opacity: 0.8; stroke: #1f77b4; stroke-opacity: 0.8"/>
     <use xlink:href="#mc43c7a2739" x="208.362972" y="172.232859" style="fill: #1f77b4; fill-opacity: 0.8; stroke: #1f77b4; stroke-opacity: 0.8"/>
     <use xlink:href="#mc43c7a2739" x="61.306067" y="231.395384" style="fill: #1f77b4; fill-opacity: 0.8; stroke: #1f77b4; stroke-opacity: 0.8"/>
     <use xlink:href="#mc43c7a2739" x="272.700368" y="223.563299" style="fill: #1f77b4; fill-opacity: 0.8; stroke: #1f77b4; stroke-opacity: 0.8"/>
     <use xlink:href="#mc43c7a2739" x="81.526391" y="177.190349" style="fill: #1f77b4; fill-opacity: 0.8; stroke: #1f77b4; stroke-opacity: 0.8"/>
     <use xlink:href="#mc43c7a2739" x="182.628013" y="188.252437" style="fill: #1f77b4; fill-opacity: 0.8; stroke: #1f77b4; stroke-opacity: 0.8"/>
     <use xlink:href="#mc43c7a2739" x="182.628013" y="211.688224" style="fill: #1f77b4; fill-opacity: 0.8; stroke: #1f77b4; stroke-opacity: 0.8"/>
     <use xlink:href="#mc43c7a2739" x="331.52313" y="154.010022" style="fill: #1f77b4; fill-opacity: 0.8; stroke: #1f77b4; stroke-opacity: 0.8"/>
     <use xlink:href="#mc43c7a2739" x="178.951591" y="164.567758" style="fill: #1f77b4; fill-opacity: 0.8; stroke: #1f77b4; stroke-opacity: 0.8"/>
     <use xlink:href="#mc43c7a2739" x="338.875975" y="166.031063" style="fill: #1f77b4; fill-opacity: 0.8; stroke: #1f77b4; stroke-opacity: 0.8"/>
     <use xlink:href="#mc43c7a2739" x="164.2459" y="173.060743" style="fill: #1f77b4; fill-opacity: 0.8; stroke: #1f77b4; stroke-opacity: 0.8"/>
     <use xlink:href="#mc43c7a2739" x="88.879236" y="164.180234" style="fill: #1f77b4; fill-opacity: 0.8; stroke: #1f77b4; stroke-opacity: 0.8"/>
     <use xlink:href="#mc43c7a2739" x="158.731266" y="259.157587" style="fill: #1f77b4; fill-opacity: 0.8; stroke: #1f77b4; stroke-opacity: 0.8"/>
     <use xlink:href="#mc43c7a2739" x="292.920692" y="136.088575" style="fill: #1f77b4; fill-opacity: 0.8; stroke: #1f77b4; stroke-opacity: 0.8"/>
     <use xlink:href="#mc43c7a2739" x="173.436957" y="164.399976" style="fill: #1f77b4; fill-opacity: 0.8; stroke: #1f77b4; stroke-opacity: 0.8"/>
     <use xlink:href="#mc43c7a2739" x="259.832889" y="194.295113" style="fill: #1f77b4; fill-opacity: 0.8; stroke: #1f77b4; stroke-opacity: 0.8"/>
     <use xlink:href="#mc43c7a2739" x="237.774353" y="140.308641" style="fill: #1f77b4; fill-opacity: 0.8; stroke: #1f77b4; stroke-opacity: 0.8"/>
     <use xlink:href="#mc43c7a2739" x="114.614195" y="162.005182" style="fill: #1f77b4; fill-opacity: 0.8; stroke: #1f77b4; stroke-opacity: 0.8"/>
     <use xlink:href="#mc43c7a2739" x="134.834519" y="163.202813" style="fill: #1f77b4; fill-opacity: 0.8; stroke: #1f77b4; stroke-opacity: 0.8"/>
     <use xlink:href="#mc43c7a2739" x="107.261349" y="164.185931" style="fill: #1f77b4; fill-opacity: 0.8; stroke: #1f77b4; stroke-opacity: 0.8"/>
     <use xlink:href="#mc43c7a2739" x="234.09793" y="139.819666" style="fill: #1f77b4; fill-opacity: 0.8; stroke: #1f77b4; stroke-opacity: 0.8"/>
     <use xlink:href="#mc43c7a2739" x="256.156466" y="180.694419" style="fill: #1f77b4; fill-opacity: 0.8; stroke: #1f77b4; stroke-opacity: 0.8"/>
     <use xlink:href="#mc43c7a2739" x="291.082481" y="199.579179" style="fill: #1f77b4; fill-opacity: 0.8; stroke: #1f77b4; stroke-opacity: 0.8"/>
     <use xlink:href="#mc43c7a2739" x="129.319885" y="186.625016" style="fill: #1f77b4; fill-opacity: 0.8; stroke: #1f77b4; stroke-opacity: 0.8"/>
     <use xlink:href="#mc43c7a2739" x="296.597115" y="97.197455" style="fill: #1f77b4; fill-opacity: 0.8; stroke: #1f77b4; stroke-opacity: 0.8"/>
     <use xlink:href="#mc43c7a2739" x="164.2459" y="155.876125" style="fill: #1f77b4; fill-opacity: 0.8; stroke: #1f77b4; stroke-opacity: 0.8"/>
     <use xlink:href="#mc43c7a2739" x="210.201183" y="153.23517" style="fill: #1f77b4; fill-opacity: 0.8; stroke: #1f77b4; stroke-opacity: 0.8"/>
     <use xlink:href="#mc43c7a2739" x="123.805251" y="204.919255" style="fill: #1f77b4; fill-opacity: 0.8; stroke: #1f77b4; stroke-opacity: 0.8"/>
     <use xlink:href="#mc43c7a2739" x="248.803621" y="218.028876" style="fill: #1f77b4; fill-opacity: 0.8; stroke: #1f77b4; stroke-opacity: 0.8"/>
     <use xlink:href="#mc43c7a2739" x="208.362972" y="160.351742" style="fill: #1f77b4; fill-opacity: 0.8; stroke: #1f77b4; stroke-opacity: 0.8"/>
     <use xlink:href="#mc43c7a2739" x="274.538579" y="193.193273" style="fill: #1f77b4; fill-opacity: 0.8; stroke: #1f77b4; stroke-opacity: 0.8"/>
     <use xlink:href="#mc43c7a2739" x="212.039394" y="164.543999" style="fill: #1f77b4; fill-opacity: 0.8; stroke: #1f77b4; stroke-opacity: 0.8"/>
     <use xlink:href="#mc43c7a2739" x="256.156466" y="149.671941" style="fill: #1f77b4; fill-opacity: 0.8; stroke: #1f77b4; stroke-opacity: 0.8"/>
    </g>
   </g>
   <g id="PolyCollection_1">
    <path d="M 61.306067 176.685734 
L 61.306067 231.417945 
L 64.146939 230.594664 
L 66.987811 229.771383 
L 69.828683 228.948102 
L 72.669555 228.147829 
L 75.510427 227.492668 
L 78.351299 226.837199 
L 81.192171 226.178254 
L 84.033043 225.519309 
L 86.873915 224.860364 
L 89.714787 224.201419 
L 92.555659 223.52047 
L 95.396531 222.701609 
L 98.237403 222.06006 
L 101.078275 221.46941 
L 103.919147 220.744836 
L 106.760019 219.915338 
L 109.600891 219.281632 
L 112.441763 218.675231 
L 115.282635 218.066668 
L 118.123507 217.354446 
L 120.964379 216.494111 
L 123.805251 215.633776 
L 126.646123 214.773441 
L 129.486995 213.912968 
L 132.327867 213.051394 
L 135.168739 212.189819 
L 138.009611 211.465479 
L 140.850483 210.824266 
L 143.691355 210.183053 
L 146.532228 209.54184 
L 149.3731 208.900627 
L 152.213972 208.259414 
L 155.054844 207.618201 
L 157.895716 207.027254 
L 160.736588 206.578085 
L 163.57746 205.997893 
L 166.418332 205.161725 
L 169.259204 204.418853 
L 172.100076 203.944343 
L 174.940948 203.343505 
L 177.78182 202.580483 
L 180.622692 201.820118 
L 183.463564 201.244225 
L 186.304436 200.58113 
L 189.145308 199.947238 
L 191.98618 199.326173 
L 194.827052 198.862052 
L 197.667924 198.096315 
L 200.508796 197.650227 
L 203.349668 197.277393 
L 206.19054 197.031754 
L 209.031412 196.525682 
L 211.872284 196.044147 
L 214.713156 195.407782 
L 217.554028 195.060355 
L 220.3949 194.854111 
L 223.235772 194.554017 
L 226.076644 194.276852 
L 228.917516 193.856346 
L 231.758388 193.599983 
L 234.599261 193.345388 
L 237.440133 193.296602 
L 240.281005 193.2779 
L 243.121877 193.282204 
L 245.962749 193.176081 
L 248.803621 192.966233 
L 251.644493 192.895708 
L 254.485365 192.825205 
L 257.326237 192.656561 
L 260.167109 192.606645 
L 263.007981 192.559329 
L 265.848853 192.510263 
L 268.689725 192.583236 
L 271.530597 192.585799 
L 274.371469 192.522896 
L 277.212341 192.606318 
L 280.053213 192.71698 
L 282.894085 192.784026 
L 285.734957 192.69135 
L 288.575829 192.620232 
L 291.416701 192.714233 
L 294.257573 192.750959 
L 297.098445 192.899593 
L 299.939317 193.001806 
L 302.780189 193.097047 
L 305.621061 193.167327 
L 308.461933 193.162072 
L 311.302805 193.157924 
L 314.143677 193.157181 
L 316.984549 193.16659 
L 319.825421 193.522026 
L 322.666294 193.663555 
L 325.507166 193.755511 
L 328.348038 193.845729 
L 331.18891 193.856589 
L 334.029782 194.026994 
L 336.870654 194.120463 
L 339.711526 194.213156 
L 342.552398 194.304543 
L 342.552398 153.230084 
L 342.552398 153.230084 
L 339.711526 153.987204 
L 336.870654 154.668165 
L 334.029782 155.273386 
L 331.18891 155.993539 
L 328.348038 156.769526 
L 325.507166 157.468642 
L 322.666294 158.168475 
L 319.825421 158.797949 
L 316.984549 159.41571 
L 314.143677 160.074721 
L 311.302805 160.761044 
L 308.461933 161.389205 
L 305.621061 161.990991 
L 302.780189 162.695654 
L 299.939317 163.4358 
L 297.098445 164.258277 
L 294.257573 164.931213 
L 291.416701 165.617013 
L 288.575829 166.325227 
L 285.734957 166.902714 
L 282.894085 167.480201 
L 280.053213 168.113731 
L 277.212341 168.804993 
L 274.371469 169.373064 
L 271.530597 170.010285 
L 268.689725 170.386294 
L 265.848853 171.032817 
L 263.007981 171.569579 
L 260.167109 172.12019 
L 257.326237 172.715421 
L 254.485365 173.235963 
L 251.644493 173.618683 
L 248.803621 174.142085 
L 245.962749 174.663603 
L 243.121877 175.110272 
L 240.281005 175.454827 
L 237.440133 175.7672 
L 234.599261 176.129625 
L 231.758388 176.468906 
L 228.917516 176.886211 
L 226.076644 177.272841 
L 223.235772 177.502934 
L 220.3949 177.797499 
L 217.554028 178.094901 
L 214.713156 178.306269 
L 211.872284 178.518718 
L 209.031412 178.630431 
L 206.19054 178.722947 
L 203.349668 178.711876 
L 200.508796 178.838111 
L 197.667924 179.017138 
L 194.827052 179.158732 
L 191.98618 179.047742 
L 189.145308 179.188468 
L 186.304436 179.33406 
L 183.463564 179.400283 
L 180.622692 179.517072 
L 177.78182 179.328413 
L 174.940948 179.292649 
L 172.100076 179.255097 
L 169.259204 179.255155 
L 166.418332 179.242981 
L 163.57746 179.191456 
L 160.736588 179.21969 
L 157.895716 179.16385 
L 155.054844 179.27616 
L 152.213972 179.15463 
L 149.3731 179.09635 
L 146.532228 179.154184 
L 143.691355 179.212017 
L 140.850483 179.262304 
L 138.009611 179.25637 
L 135.168739 179.37939 
L 132.327867 179.403398 
L 129.486995 179.266467 
L 126.646123 179.17526 
L 123.805251 178.996255 
L 120.964379 178.857149 
L 118.123507 178.724736 
L 115.282635 178.665106 
L 112.441763 178.666201 
L 109.600891 178.667295 
L 106.760019 178.657784 
L 103.919147 178.658045 
L 101.078275 178.6537 
L 98.237403 178.478603 
L 95.396531 178.385881 
L 92.555659 178.307582 
L 89.714787 178.270821 
L 86.873915 178.165646 
L 84.033043 178.038962 
L 81.192171 177.912277 
L 78.351299 177.735361 
L 75.510427 177.556258 
L 72.669555 177.377156 
L 69.828683 177.251529 
L 66.987811 177.087307 
L 64.146939 176.876702 
L 61.306067 176.685734 
z
" clip-path="url(#pf71b9f3194)" style="fill: #1f77b4; fill-opacity: 0.15"/>
   </g>
   <g id="matplotlib.axis_1">
    <g id="xtick_1">
     <g id="line2d_1">
      <defs>
       <path id="mcbb95a5748" d="M 0 0 
L 0 3.5 
" style="stroke: #000000; stroke-width: 0.8"/>
      </defs>
      <g>
       <use xlink:href="#mcbb95a5748" x="52.11501" y="388.6" style="stroke: #000000; stroke-width: 0.8"/>
      </g>
     </g>
     <g id="text_1">
      <!-- 100 -->
      <g transform="translate(42.57126 403.198437) scale(0.1 -0.1)">
       <defs>
        <path id="DejaVuSans-31" d="M 794 531 
L 1825 531 
L 1825 4091 
L 703 3866 
L 703 4441 
L 1819 4666 
L 2450 4666 
L 2450 531 
L 3481 531 
L 3481 0 
L 794 0 
L 794 531 
z
" transform="scale(0.015625)"/>
        <path id="DejaVuSans-30" d="M 2034 4250 
Q 1547 4250 1301 3770 
Q 1056 3291 1056 2328 
Q 1056 1369 1301 889 
Q 1547 409 2034 409 
Q 2525 409 2770 889 
Q 3016 1369 3016 2328 
Q 3016 3291 2770 3770 
Q 2525 4250 2034 4250 
z
M 2034 4750 
Q 2819 4750 3233 4129 
Q 3647 3509 3647 2328 
Q 3647 1150 3233 529 
Q 2819 -91 2034 -91 
Q 1250 -91 836 529 
Q 422 1150 422 2328 
Q 422 3509 836 4129 
Q 1250 4750 2034 4750 
z
" transform="scale(0.015625)"/>
       </defs>
       <use xlink:href="#DejaVuSans-31"/>
       <use xlink:href="#DejaVuSans-30" x="63.623047"/>
       <use xlink:href="#DejaVuSans-30" x="127.246094"/>
      </g>
     </g>
    </g>
    <g id="xtick_2">
     <g id="line2d_2">
      <g>
       <use xlink:href="#mcbb95a5748" x="88.879236" y="388.6" style="stroke: #000000; stroke-width: 0.8"/>
      </g>
     </g>
     <g id="text_2">
      <!-- 120 -->
      <g transform="translate(79.335486 403.198437) scale(0.1 -0.1)">
       <defs>
        <path id="DejaVuSans-32" d="M 1228 531 
L 3431 531 
L 3431 0 
L 469 0 
L 469 531 
Q 828 903 1448 1529 
Q 2069 2156 2228 2338 
Q 2531 2678 2651 2914 
Q 2772 3150 2772 3378 
Q 2772 3750 2511 3984 
Q 2250 4219 1831 4219 
Q 1534 4219 1204 4116 
Q 875 4013 500 3803 
L 500 4441 
Q 881 4594 1212 4672 
Q 1544 4750 1819 4750 
Q 2544 4750 2975 4387 
Q 3406 4025 3406 3419 
Q 3406 3131 3298 2873 
Q 3191 2616 2906 2266 
Q 2828 2175 2409 1742 
Q 1991 1309 1228 531 
z
" transform="scale(0.015625)"/>
       </defs>
       <use xlink:href="#DejaVuSans-31"/>
       <use xlink:href="#DejaVuSans-32" x="63.623047"/>
       <use xlink:href="#DejaVuSans-30" x="127.246094"/>
      </g>
     </g>
    </g>
    <g id="xtick_3">
     <g id="line2d_3">
      <g>
       <use xlink:href="#mcbb95a5748" x="125.643463" y="388.6" style="stroke: #000000; stroke-width: 0.8"/>
      </g>
     </g>
     <g id="text_3">
      <!-- 140 -->
      <g transform="translate(116.099713 403.198437) scale(0.1 -0.1)">
       <defs>
        <path id="DejaVuSans-34" d="M 2419 4116 
L 825 1625 
L 2419 1625 
L 2419 4116 
z
M 2253 4666 
L 3047 4666 
L 3047 1625 
L 3713 1625 
L 3713 1100 
L 3047 1100 
L 3047 0 
L 2419 0 
L 2419 1100 
L 313 1100 
L 313 1709 
L 2253 4666 
z
" transform="scale(0.015625)"/>
       </defs>
       <use xlink:href="#DejaVuSans-31"/>
       <use xlink:href="#DejaVuSans-34" x="63.623047"/>
       <use xlink:href="#DejaVuSans-30" x="127.246094"/>
      </g>
     </g>
    </g>
    <g id="xtick_4">
     <g id="line2d_4">
      <g>
       <use xlink:href="#mcbb95a5748" x="162.407689" y="388.6" style="stroke: #000000; stroke-width: 0.8"/>
      </g>
     </g>
     <g id="text_4">
      <!-- 160 -->
      <g transform="translate(152.863939 403.198437) scale(0.1 -0.1)">
       <defs>
        <path id="DejaVuSans-36" d="M 2113 2584 
Q 1688 2584 1439 2293 
Q 1191 2003 1191 1497 
Q 1191 994 1439 701 
Q 1688 409 2113 409 
Q 2538 409 2786 701 
Q 3034 994 3034 1497 
Q 3034 2003 2786 2293 
Q 2538 2584 2113 2584 
z
M 3366 4563 
L 3366 3988 
Q 3128 4100 2886 4159 
Q 2644 4219 2406 4219 
Q 1781 4219 1451 3797 
Q 1122 3375 1075 2522 
Q 1259 2794 1537 2939 
Q 1816 3084 2150 3084 
Q 2853 3084 3261 2657 
Q 3669 2231 3669 1497 
Q 3669 778 3244 343 
Q 2819 -91 2113 -91 
Q 1303 -91 875 529 
Q 447 1150 447 2328 
Q 447 3434 972 4092 
Q 1497 4750 2381 4750 
Q 2619 4750 2861 4703 
Q 3103 4656 3366 4563 
z
" transform="scale(0.015625)"/>
       </defs>
       <use xlink:href="#DejaVuSans-31"/>
       <use xlink:href="#DejaVuSans-36" x="63.623047"/>
       <use xlink:href="#DejaVuSans-30" x="127.246094"/>
      </g>
     </g>
    </g>
    <g id="xtick_5">
     <g id="line2d_5">
      <g>
       <use xlink:href="#mcbb95a5748" x="199.171915" y="388.6" style="stroke: #000000; stroke-width: 0.8"/>
      </g>
     </g>
     <g id="text_5">
      <!-- 180 -->
      <g transform="translate(189.628165 403.198437) scale(0.1 -0.1)">
       <defs>
        <path id="DejaVuSans-38" d="M 2034 2216 
Q 1584 2216 1326 1975 
Q 1069 1734 1069 1313 
Q 1069 891 1326 650 
Q 1584 409 2034 409 
Q 2484 409 2743 651 
Q 3003 894 3003 1313 
Q 3003 1734 2745 1975 
Q 2488 2216 2034 2216 
z
M 1403 2484 
Q 997 2584 770 2862 
Q 544 3141 544 3541 
Q 544 4100 942 4425 
Q 1341 4750 2034 4750 
Q 2731 4750 3128 4425 
Q 3525 4100 3525 3541 
Q 3525 3141 3298 2862 
Q 3072 2584 2669 2484 
Q 3125 2378 3379 2068 
Q 3634 1759 3634 1313 
Q 3634 634 3220 271 
Q 2806 -91 2034 -91 
Q 1263 -91 848 271 
Q 434 634 434 1313 
Q 434 1759 690 2068 
Q 947 2378 1403 2484 
z
M 1172 3481 
Q 1172 3119 1398 2916 
Q 1625 2713 2034 2713 
Q 2441 2713 2670 2916 
Q 2900 3119 2900 3481 
Q 2900 3844 2670 4047 
Q 2441 4250 2034 4250 
Q 1625 4250 1398 4047 
Q 1172 3844 1172 3481 
z
" transform="scale(0.015625)"/>
       </defs>
       <use xlink:href="#DejaVuSans-31"/>
       <use xlink:href="#DejaVuSans-38" x="63.623047"/>
       <use xlink:href="#DejaVuSans-30" x="127.246094"/>
      </g>
     </g>
    </g>
    <g id="xtick_6">
     <g id="line2d_6">
      <g>
       <use xlink:href="#mcbb95a5748" x="235.936141" y="388.6" style="stroke: #000000; stroke-width: 0.8"/>
      </g>
     </g>
     <g id="text_6">
      <!-- 200 -->
      <g transform="translate(226.392391 403.198437) scale(0.1 -0.1)">
       <use xlink:href="#DejaVuSans-32"/>
       <use xlink:href="#DejaVuSans-30" x="63.623047"/>
       <use xlink:href="#DejaVuSans-30" x="127.246094"/>
      </g>
     </g>
    </g>
    <g id="xtick_7">
     <g id="line2d_7">
      <g>
       <use xlink:href="#mcbb95a5748" x="272.700368" y="388.6" style="stroke: #000000; stroke-width: 0.8"/>
      </g>
     </g>
     <g id="text_7">
      <!-- 220 -->
      <g transform="translate(263.156618 403.198437) scale(0.1 -0.1)">
       <use xlink:href="#DejaVuSans-32"/>
       <use xlink:href="#DejaVuSans-32" x="63.623047"/>
       <use xlink:href="#DejaVuSans-30" x="127.246094"/>
      </g>
     </g>
    </g>
    <g id="xtick_8">
     <g id="line2d_8">
      <g>
       <use xlink:href="#mcbb95a5748" x="309.464594" y="388.6" style="stroke: #000000; stroke-width: 0.8"/>
      </g>
     </g>
     <g id="text_8">
      <!-- 240 -->
      <g transform="translate(299.920844 403.198437) scale(0.1 -0.1)">
       <use xlink:href="#DejaVuSans-32"/>
       <use xlink:href="#DejaVuSans-34" x="63.623047"/>
       <use xlink:href="#DejaVuSans-30" x="127.246094"/>
      </g>
     </g>
    </g>
    <g id="xtick_9">
     <g id="line2d_9">
      <g>
       <use xlink:href="#mcbb95a5748" x="346.22882" y="388.6" style="stroke: #000000; stroke-width: 0.8"/>
      </g>
     </g>
     <g id="text_9">
      <!-- 260 -->
      <g transform="translate(336.68507 403.198437) scale(0.1 -0.1)">
       <use xlink:href="#DejaVuSans-32"/>
       <use xlink:href="#DejaVuSans-36" x="63.623047"/>
       <use xlink:href="#DejaVuSans-30" x="127.246094"/>
      </g>
     </g>
    </g>
    <g id="text_10">
     <!-- y_true -->
     <g transform="translate(186.20892 416.598437) scale(0.1 -0.1)">
      <defs>
       <path id="DejaVuSans-79" d="M 2059 -325 
Q 1816 -950 1584 -1140 
Q 1353 -1331 966 -1331 
L 506 -1331 
L 506 -850 
L 844 -850 
Q 1081 -850 1212 -737 
Q 1344 -625 1503 -206 
L 1606 56 
L 191 3500 
L 800 3500 
L 1894 763 
L 2988 3500 
L 3597 3500 
L 2059 -325 
z
" transform="scale(0.015625)"/>
       <path id="DejaVuSans-5f" d="M 3263 -1063 
L 3263 -1509 
L -63 -1509 
L -63 -1063 
L 3263 -1063 
z
" transform="scale(0.015625)"/>
       <path id="DejaVuSans-74" d="M 1172 4494 
L 1172 3500 
L 2356 3500 
L 2356 3053 
L 1172 3053 
L 1172 1153 
Q 1172 725 1289 603 
Q 1406 481 1766 481 
L 2356 481 
L 2356 0 
L 1766 0 
Q 1100 0 847 248 
Q 594 497 594 1153 
L 594 3053 
L 172 3053 
L 172 3500 
L 594 3500 
L 594 4494 
L 1172 4494 
z
" transform="scale(0.015625)"/>
       <path id="DejaVuSans-72" d="M 2631 2963 
Q 2534 3019 2420 3045 
Q 2306 3072 2169 3072 
Q 1681 3072 1420 2755 
Q 1159 2438 1159 1844 
L 1159 0 
L 581 0 
L 581 3500 
L 1159 3500 
L 1159 2956 
Q 1341 3275 1631 3429 
Q 1922 3584 2338 3584 
Q 2397 3584 2469 3576 
Q 2541 3569 2628 3553 
L 2631 2963 
z
" transform="scale(0.015625)"/>
       <path id="DejaVuSans-75" d="M 544 1381 
L 544 3500 
L 1119 3500 
L 1119 1403 
Q 1119 906 1312 657 
Q 1506 409 1894 409 
Q 2359 409 2629 706 
Q 2900 1003 2900 1516 
L 2900 3500 
L 3475 3500 
L 3475 0 
L 2900 0 
L 2900 538 
Q 2691 219 2414 64 
Q 2138 -91 1772 -91 
Q 1169 -91 856 284 
Q 544 659 544 1381 
z
M 1991 3584 
L 1991 3584 
z
" transform="scale(0.015625)"/>
       <path id="DejaVuSans-65" d="M 3597 1894 
L 3597 1613 
L 953 1613 
Q 991 1019 1311 708 
Q 1631 397 2203 397 
Q 2534 397 2845 478 
Q 3156 559 3463 722 
L 3463 178 
Q 3153 47 2828 -22 
Q 2503 -91 2169 -91 
Q 1331 -91 842 396 
Q 353 884 353 1716 
Q 353 2575 817 3079 
Q 1281 3584 2069 3584 
Q 2775 3584 3186 3129 
Q 3597 2675 3597 1894 
z
M 3022 2063 
Q 3016 2534 2758 2815 
Q 2500 3097 2075 3097 
Q 1594 3097 1305 2825 
Q 1016 2553 972 2059 
L 3022 2063 
z
" transform="scale(0.015625)"/>
      </defs>
      <use xlink:href="#DejaVuSans-79"/>
      <use xlink:href="#DejaVuSans-5f" x="59.179688"/>
      <use xlink:href="#DejaVuSans-74" x="109.179688"/>
      <use xlink:href="#DejaVuSans-72" x="148.388672"/>
      <use xlink:href="#DejaVuSans-75" x="189.501953"/>
      <use xlink:href="#DejaVuSans-65" x="252.880859"/>
     </g>
    </g>
   </g>
   <g id="matplotlib.axis_2">
    <g id="ytick_1">
     <g id="line2d_10">
      <defs>
       <path id="ma4455d9e9d" d="M 0 0 
L -3.5 0 
" style="stroke: #000000; stroke-width: 0.8"/>
      </defs>
      <g>
       <use xlink:href="#ma4455d9e9d" x="47.24375" y="381.60579" style="stroke: #000000; stroke-width: 0.8"/>
      </g>
     </g>
     <g id="text_11">
      <!-- 160 -->
      <g transform="translate(21.15625 385.405009) scale(0.1 -0.1)">
       <use xlink:href="#DejaVuSans-31"/>
       <use xlink:href="#DejaVuSans-36" x="63.623047"/>
       <use xlink:href="#DejaVuSans-30" x="127.246094"/>
      </g>
     </g>
    </g>
    <g id="ytick_2">
     <g id="line2d_11">
      <g>
       <use xlink:href="#ma4455d9e9d" x="47.24375" y="333.786497" style="stroke: #000000; stroke-width: 0.8"/>
      </g>
     </g>
     <g id="text_12">
      <!-- 170 -->
      <g transform="translate(21.15625 337.585715) scale(0.1 -0.1)">
       <defs>
        <path id="DejaVuSans-37" d="M 525 4666 
L 3525 4666 
L 3525 4397 
L 1831 0 
L 1172 0 
L 2766 4134 
L 525 4134 
L 525 4666 
z
" transform="scale(0.015625)"/>
       </defs>
       <use xlink:href="#DejaVuSans-31"/>
       <use xlink:href="#DejaVuSans-37" x="63.623047"/>
       <use xlink:href="#DejaVuSans-30" x="127.246094"/>
      </g>
     </g>
    </g>
    <g id="ytick_3">
     <g id="line2d_12">
      <g>
       <use xlink:href="#ma4455d9e9d" x="47.24375" y="285.967203" style="stroke: #000000; stroke-width: 0.8"/>
      </g>
     </g>
     <g id="text_13">
      <!-- 180 -->
      <g transform="translate(21.15625 289.766422) scale(0.1 -0.1)">
       <use xlink:href="#DejaVuSans-31"/>
       <use xlink:href="#DejaVuSans-38" x="63.623047"/>
       <use xlink:href="#DejaVuSans-30" x="127.246094"/>
      </g>
     </g>
    </g>
    <g id="ytick_4">
     <g id="line2d_13">
      <g>
       <use xlink:href="#ma4455d9e9d" x="47.24375" y="238.14791" style="stroke: #000000; stroke-width: 0.8"/>
      </g>
     </g>
     <g id="text_14">
      <!-- 190 -->
      <g transform="translate(21.15625 241.947129) scale(0.1 -0.1)">
       <defs>
        <path id="DejaVuSans-39" d="M 703 97 
L 703 672 
Q 941 559 1184 500 
Q 1428 441 1663 441 
Q 2288 441 2617 861 
Q 2947 1281 2994 2138 
Q 2813 1869 2534 1725 
Q 2256 1581 1919 1581 
Q 1219 1581 811 2004 
Q 403 2428 403 3163 
Q 403 3881 828 4315 
Q 1253 4750 1959 4750 
Q 2769 4750 3195 4129 
Q 3622 3509 3622 2328 
Q 3622 1225 3098 567 
Q 2575 -91 1691 -91 
Q 1453 -91 1209 -44 
Q 966 3 703 97 
z
M 1959 2075 
Q 2384 2075 2632 2365 
Q 2881 2656 2881 3163 
Q 2881 3666 2632 3958 
Q 2384 4250 1959 4250 
Q 1534 4250 1286 3958 
Q 1038 3666 1038 3163 
Q 1038 2656 1286 2365 
Q 1534 2075 1959 2075 
z
" transform="scale(0.015625)"/>
       </defs>
       <use xlink:href="#DejaVuSans-31"/>
       <use xlink:href="#DejaVuSans-39" x="63.623047"/>
       <use xlink:href="#DejaVuSans-30" x="127.246094"/>
      </g>
     </g>
    </g>
    <g id="ytick_5">
     <g id="line2d_14">
      <g>
       <use xlink:href="#ma4455d9e9d" x="47.24375" y="190.328617" style="stroke: #000000; stroke-width: 0.8"/>
      </g>
     </g>
     <g id="text_15">
      <!-- 200 -->
      <g transform="translate(21.15625 194.127836) scale(0.1 -0.1)">
       <use xlink:href="#DejaVuSans-32"/>
       <use xlink:href="#DejaVuSans-30" x="63.623047"/>
       <use xlink:href="#DejaVuSans-30" x="127.246094"/>
      </g>
     </g>
    </g>
    <g id="ytick_6">
     <g id="line2d_15">
      <g>
       <use xlink:href="#ma4455d9e9d" x="47.24375" y="142.509324" style="stroke: #000000; stroke-width: 0.8"/>
      </g>
     </g>
     <g id="text_16">
      <!-- 210 -->
      <g transform="translate(21.15625 146.308543) scale(0.1 -0.1)">
       <use xlink:href="#DejaVuSans-32"/>
       <use xlink:href="#DejaVuSans-31" x="63.623047"/>
       <use xlink:href="#DejaVuSans-30" x="127.246094"/>
      </g>
     </g>
    </g>
    <g id="ytick_7">
     <g id="line2d_16">
      <g>
       <use xlink:href="#ma4455d9e9d" x="47.24375" y="94.690031" style="stroke: #000000; stroke-width: 0.8"/>
      </g>
     </g>
     <g id="text_17">
      <!-- 220 -->
      <g transform="translate(21.15625 98.489249) scale(0.1 -0.1)">
       <use xlink:href="#DejaVuSans-32"/>
       <use xlink:href="#DejaVuSans-32" x="63.623047"/>
       <use xlink:href="#DejaVuSans-30" x="127.246094"/>
      </g>
     </g>
    </g>
    <g id="text_18">
     <!-- y_pred -->
     <g transform="translate(14.798438 252.787915) rotate(-90) scale(0.1 -0.1)">
      <defs>
       <path id="DejaVuSans-70" d="M 1159 525 
L 1159 -1331 
L 581 -1331 
L 581 3500 
L 1159 3500 
L 1159 2969 
Q 1341 3281 1617 3432 
Q 1894 3584 2278 3584 
Q 2916 3584 3314 3078 
Q 3713 2572 3713 1747 
Q 3713 922 3314 415 
Q 2916 -91 2278 -91 
Q 1894 -91 1617 61 
Q 1341 213 1159 525 
z
M 3116 1747 
Q 3116 2381 2855 2742 
Q 2594 3103 2138 3103 
Q 1681 3103 1420 2742 
Q 1159 2381 1159 1747 
Q 1159 1113 1420 752 
Q 1681 391 2138 391 
Q 2594 391 2855 752 
Q 3116 1113 3116 1747 
z
" transform="scale(0.015625)"/>
       <path id="DejaVuSans-64" d="M 2906 2969 
L 2906 4863 
L 3481 4863 
L 3481 0 
L 2906 0 
L 2906 525 
Q 2725 213 2448 61 
Q 2172 -91 1784 -91 
Q 1150 -91 751 415 
Q 353 922 353 1747 
Q 353 2572 751 3078 
Q 1150 3584 1784 3584 
Q 2172 3584 2448 3432 
Q 2725 3281 2906 2969 
z
M 947 1747 
Q 947 1113 1208 752 
Q 1469 391 1925 391 
Q 2381 391 2643 752 
Q 2906 1113 2906 1747 
Q 2906 2381 2643 2742 
Q 2381 3103 1925 3103 
Q 1469 3103 1208 2742 
Q 947 2381 947 1747 
z
" transform="scale(0.015625)"/>
      </defs>
      <use xlink:href="#DejaVuSans-79"/>
      <use xlink:href="#DejaVuSans-5f" x="59.179688"/>
      <use xlink:href="#DejaVuSans-70" x="109.179688"/>
      <use xlink:href="#DejaVuSans-72" x="172.65625"/>
      <use xlink:href="#DejaVuSans-65" x="211.519531"/>
      <use xlink:href="#DejaVuSans-64" x="273.042969"/>
     </g>
    </g>
   </g>
   <g id="line2d_17">
    <path d="M 61.306067 201.788602 
L 64.146939 201.504026 
L 66.987811 201.21945 
L 69.828683 200.934873 
L 72.669555 200.650297 
L 75.510427 200.365721 
L 78.351299 200.081144 
L 81.192171 199.796568 
L 84.033043 199.511992 
L 86.873915 199.227415 
L 89.714787 198.942839 
L 92.555659 198.658263 
L 95.396531 198.373686 
L 98.237403 198.08911 
L 101.078275 197.804534 
L 103.919147 197.519957 
L 106.760019 197.235381 
L 109.600891 196.950805 
L 112.441763 196.666228 
L 115.282635 196.381652 
L 118.123507 196.097076 
L 120.964379 195.812499 
L 123.805251 195.527923 
L 126.646123 195.243347 
L 129.486995 194.95877 
L 132.327867 194.674194 
L 135.168739 194.389618 
L 138.009611 194.105041 
L 140.850483 193.820465 
L 143.691355 193.535889 
L 146.532228 193.251312 
L 149.3731 192.966736 
L 152.213972 192.68216 
L 155.054844 192.397583 
L 157.895716 192.113007 
L 160.736588 191.828431 
L 163.57746 191.543854 
L 166.418332 191.259278 
L 169.259204 190.974702 
L 172.100076 190.690125 
L 174.940948 190.405549 
L 177.78182 190.120973 
L 180.622692 189.836396 
L 183.463564 189.55182 
L 186.304436 189.267244 
L 189.145308 188.982667 
L 191.98618 188.698091 
L 194.827052 188.413515 
L 197.667924 188.128938 
L 200.508796 187.844362 
L 203.349668 187.559786 
L 206.19054 187.275209 
L 209.031412 186.990633 
L 211.872284 186.706057 
L 214.713156 186.42148 
L 217.554028 186.136904 
L 220.3949 185.852328 
L 223.235772 185.567751 
L 226.076644 185.283175 
L 228.917516 184.998599 
L 231.758388 184.714022 
L 234.599261 184.429446 
L 237.440133 184.14487 
L 240.281005 183.860293 
L 243.121877 183.575717 
L 245.962749 183.291141 
L 248.803621 183.006565 
L 251.644493 182.721988 
L 254.485365 182.437412 
L 257.326237 182.152836 
L 260.167109 181.868259 
L 263.007981 181.583683 
L 265.848853 181.299107 
L 268.689725 181.01453 
L 271.530597 180.729954 
L 274.371469 180.445378 
L 277.212341 180.160801 
L 280.053213 179.876225 
L 282.894085 179.591649 
L 285.734957 179.307072 
L 288.575829 179.022496 
L 291.416701 178.73792 
L 294.257573 178.453343 
L 297.098445 178.168767 
L 299.939317 177.884191 
L 302.780189 177.599614 
L 305.621061 177.315038 
L 308.461933 177.030462 
L 311.302805 176.745885 
L 314.143677 176.461309 
L 316.984549 176.176733 
L 319.825421 175.892156 
L 322.666294 175.60758 
L 325.507166 175.323004 
L 328.348038 175.038427 
L 331.18891 174.753851 
L 334.029782 174.469275 
L 336.870654 174.184698 
L 339.711526 173.900122 
L 342.552398 173.615546 
" clip-path="url(#pf71b9f3194)" style="fill: none; stroke: #1f77b4; stroke-width: 2.25; stroke-linecap: square"/>
   </g>
   <g id="patch_3">
    <path d="M 47.24375 388.6 
L 47.24375 83.321143 
" style="fill: none; stroke: #000000; stroke-width: 0.8; stroke-linejoin: miter; stroke-linecap: square"/>
   </g>
   <g id="patch_4">
    <path d="M 47.24375 388.6 
L 356.614714 388.6 
" style="fill: none; stroke: #000000; stroke-width: 0.8; stroke-linejoin: miter; stroke-linecap: square"/>
   </g>
  </g>
  <g id="axes_2">
   <g id="patch_5">
    <path d="M 47.24375 72.794286 
L 356.614714 72.794286 
L 356.614714 20.16 
L 47.24375 20.16 
z
" style="fill: #ffffff"/>
   </g>
   <g id="patch_6">
    <path d="M 61.306067 72.794286 
L 96.461858 72.794286 
L 96.461858 52.153389 
L 61.306067 52.153389 
z
" clip-path="url(#p39f35211f6)" style="fill: #1f77b4; fill-opacity: 0.5; stroke: #000000; stroke-linejoin: miter"/>
   </g>
   <g id="patch_7">
    <path d="M 96.461858 72.794286 
L 131.617649 72.794286 
L 131.617649 58.050788 
L 96.461858 58.050788 
z
" clip-path="url(#p39f35211f6)" style="fill: #1f77b4; fill-opacity: 0.5; stroke: #000000; stroke-linejoin: miter"/>
   </g>
   <g id="patch_8">
    <path d="M 131.617649 72.794286 
L 166.773441 72.794286 
L 166.773441 40.358591 
L 131.617649 40.358591 
z
" clip-path="url(#p39f35211f6)" style="fill: #1f77b4; fill-opacity: 0.5; stroke: #000000; stroke-linejoin: miter"/>
   </g>
   <g id="patch_9">
    <path d="M 166.773441 72.794286 
L 201.929232 72.794286 
L 201.929232 34.461192 
L 166.773441 34.461192 
z
" clip-path="url(#p39f35211f6)" style="fill: #1f77b4; fill-opacity: 0.5; stroke: #000000; stroke-linejoin: miter"/>
   </g>
   <g id="patch_10">
    <path d="M 201.929232 72.794286 
L 237.085024 72.794286 
L 237.085024 28.563794 
L 201.929232 28.563794 
z
" clip-path="url(#p39f35211f6)" style="fill: #1f77b4; fill-opacity: 0.5; stroke: #000000; stroke-linejoin: miter"/>
   </g>
   <g id="patch_11">
    <path d="M 237.085024 72.794286 
L 272.240815 72.794286 
L 272.240815 22.666395 
L 237.085024 22.666395 
z
" clip-path="url(#p39f35211f6)" style="fill: #1f77b4; fill-opacity: 0.5; stroke: #000000; stroke-linejoin: miter"/>
   </g>
   <g id="patch_12">
    <path d="M 272.240815 72.794286 
L 307.396606 72.794286 
L 307.396606 31.512493 
L 272.240815 31.512493 
z
" clip-path="url(#p39f35211f6)" style="fill: #1f77b4; fill-opacity: 0.5; stroke: #000000; stroke-linejoin: miter"/>
   </g>
   <g id="patch_13">
    <path d="M 307.396606 72.794286 
L 342.552398 72.794286 
L 342.552398 40.358591 
L 307.396606 40.358591 
z
" clip-path="url(#p39f35211f6)" style="fill: #1f77b4; fill-opacity: 0.5; stroke: #000000; stroke-linejoin: miter"/>
   </g>
   <g id="matplotlib.axis_3">
    <g id="xtick_10">
     <g id="line2d_18">
      <g>
       <use xlink:href="#mcbb95a5748" x="52.11501" y="72.794286" style="stroke: #000000; stroke-width: 0.8"/>
      </g>
     </g>
    </g>
    <g id="xtick_11">
     <g id="line2d_19">
      <g>
       <use xlink:href="#mcbb95a5748" x="88.879236" y="72.794286" style="stroke: #000000; stroke-width: 0.8"/>
      </g>
     </g>
    </g>
    <g id="xtick_12">
     <g id="line2d_20">
      <g>
       <use xlink:href="#mcbb95a5748" x="125.643463" y="72.794286" style="stroke: #000000; stroke-width: 0.8"/>
      </g>
     </g>
    </g>
    <g id="xtick_13">
     <g id="line2d_21">
      <g>
       <use xlink:href="#mcbb95a5748" x="162.407689" y="72.794286" style="stroke: #000000; stroke-width: 0.8"/>
      </g>
     </g>
    </g>
    <g id="xtick_14">
     <g id="line2d_22">
      <g>
       <use xlink:href="#mcbb95a5748" x="199.171915" y="72.794286" style="stroke: #000000; stroke-width: 0.8"/>
      </g>
     </g>
    </g>
    <g id="xtick_15">
     <g id="line2d_23">
      <g>
       <use xlink:href="#mcbb95a5748" x="235.936141" y="72.794286" style="stroke: #000000; stroke-width: 0.8"/>
      </g>
     </g>
    </g>
    <g id="xtick_16">
     <g id="line2d_24">
      <g>
       <use xlink:href="#mcbb95a5748" x="272.700368" y="72.794286" style="stroke: #000000; stroke-width: 0.8"/>
      </g>
     </g>
    </g>
    <g id="xtick_17">
     <g id="line2d_25">
      <g>
       <use xlink:href="#mcbb95a5748" x="309.464594" y="72.794286" style="stroke: #000000; stroke-width: 0.8"/>
      </g>
     </g>
    </g>
    <g id="xtick_18">
     <g id="line2d_26">
      <g>
       <use xlink:href="#mcbb95a5748" x="346.22882" y="72.794286" style="stroke: #000000; stroke-width: 0.8"/>
      </g>
     </g>
    </g>
   </g>
   <g id="matplotlib.axis_4">
    <g id="ytick_8"/>
    <g id="ytick_9"/>
   </g>
   <g id="line2d_27">
    <path d="M 61.306067 63.055589 
L 72.612452 60.540591 
L 83.918837 58.281861 
L 103.705011 54.441416 
L 112.1848 52.51273 
L 119.251291 50.687951 
L 127.731079 48.248972 
L 140.450763 44.287162 
L 150.34385 41.268777 
L 157.410341 39.335282 
L 163.063533 37.997631 
L 168.716726 36.879302 
L 174.369918 35.985583 
L 180.023111 35.293942 
L 188.5029 34.522851 
L 204.049179 33.208131 
L 211.11567 32.372845 
L 218.182161 31.332946 
L 243.621527 27.317551 
L 249.27472 26.794003 
L 254.927913 26.524584 
L 260.581105 26.534551 
L 266.234298 26.835622 
L 271.88749 27.431785 
L 277.540683 28.324888 
L 281.780577 29.191423 
L 286.020472 30.228819 
L 290.260366 31.439195 
L 295.913559 33.323796 
L 301.566751 35.513658 
L 307.219944 37.992534 
L 312.873137 40.728226 
L 319.939627 44.432096 
L 331.246013 50.694738 
L 341.1391 56.0704 
L 342.552398 56.803428 
L 342.552398 56.803428 
" clip-path="url(#p39f35211f6)" style="fill: none; stroke: #1f77b4; stroke-width: 1.5; stroke-linecap: square"/>
   </g>
   <g id="patch_14">
    <path d="M 47.24375 72.794286 
L 356.614714 72.794286 
" style="fill: none; stroke: #000000; stroke-width: 0.8; stroke-linejoin: miter; stroke-linecap: square"/>
   </g>
  </g>
  <g id="axes_3">
   <g id="patch_15">
    <path d="M 367.282679 388.6 
L 420.6225 388.6 
L 420.6225 83.321143 
L 367.282679 83.321143 
z
" style="fill: #ffffff"/>
   </g>
   <g id="patch_16">
    <path d="M 367.282679 374.723688 
L 369.164154 374.723688 
L 369.164154 354.900386 
L 367.282679 354.900386 
z
" clip-path="url(#p1a7406d79f)" style="fill: #1f77b4; fill-opacity: 0.5; stroke: #000000; stroke-linejoin: miter"/>
   </g>
   <g id="patch_17">
    <path d="M 367.282679 354.900386 
L 367.282679 354.900386 
L 367.282679 335.077083 
L 367.282679 335.077083 
z
" clip-path="url(#p1a7406d79f)" style="fill: #1f77b4; fill-opacity: 0.5; stroke: #000000; stroke-linejoin: miter"/>
   </g>
   <g id="patch_18">
    <path d="M 367.282679 335.077083 
L 369.164154 335.077083 
L 369.164154 315.253781 
L 367.282679 315.253781 
z
" clip-path="url(#p1a7406d79f)" style="fill: #1f77b4; fill-opacity: 0.5; stroke: #000000; stroke-linejoin: miter"/>
   </g>
   <g id="patch_19">
    <path d="M 367.282679 315.253781 
L 369.164154 315.253781 
L 369.164154 295.430479 
L 367.282679 295.430479 
z
" clip-path="url(#p1a7406d79f)" style="fill: #1f77b4; fill-opacity: 0.5; stroke: #000000; stroke-linejoin: miter"/>
   </g>
   <g id="patch_20">
    <path d="M 367.282679 295.430479 
L 367.282679 295.430479 
L 367.282679 275.607176 
L 367.282679 275.607176 
z
" clip-path="url(#p1a7406d79f)" style="fill: #1f77b4; fill-opacity: 0.5; stroke: #000000; stroke-linejoin: miter"/>
   </g>
   <g id="patch_21">
    <path d="M 367.282679 275.607176 
L 371.045629 275.607176 
L 371.045629 255.783874 
L 367.282679 255.783874 
z
" clip-path="url(#p1a7406d79f)" style="fill: #1f77b4; fill-opacity: 0.5; stroke: #000000; stroke-linejoin: miter"/>
   </g>
   <g id="patch_22">
    <path d="M 367.282679 255.783874 
L 374.808579 255.783874 
L 374.808579 235.960571 
L 367.282679 235.960571 
z
" clip-path="url(#p1a7406d79f)" style="fill: #1f77b4; fill-opacity: 0.5; stroke: #000000; stroke-linejoin: miter"/>
   </g>
   <g id="patch_23">
    <path d="M 367.282679 235.960571 
L 386.09743 235.960571 
L 386.09743 216.137269 
L 367.282679 216.137269 
z
" clip-path="url(#p1a7406d79f)" style="fill: #1f77b4; fill-opacity: 0.5; stroke: #000000; stroke-linejoin: miter"/>
   </g>
   <g id="patch_24">
    <path d="M 367.282679 216.137269 
L 393.623331 216.137269 
L 393.623331 196.313967 
L 367.282679 196.313967 
z
" clip-path="url(#p1a7406d79f)" style="fill: #1f77b4; fill-opacity: 0.5; stroke: #000000; stroke-linejoin: miter"/>
   </g>
   <g id="patch_25">
    <path d="M 367.282679 196.313967 
L 391.741856 196.313967 
L 391.741856 176.490664 
L 367.282679 176.490664 
z
" clip-path="url(#p1a7406d79f)" style="fill: #1f77b4; fill-opacity: 0.5; stroke: #000000; stroke-linejoin: miter"/>
   </g>
   <g id="patch_26">
    <path d="M 367.282679 176.490664 
L 418.082509 176.490664 
L 418.082509 156.667362 
L 367.282679 156.667362 
z
" clip-path="url(#p1a7406d79f)" style="fill: #1f77b4; fill-opacity: 0.5; stroke: #000000; stroke-linejoin: miter"/>
   </g>
   <g id="patch_27">
    <path d="M 367.282679 156.667362 
L 393.623331 156.667362 
L 393.623331 136.844059 
L 367.282679 136.844059 
z
" clip-path="url(#p1a7406d79f)" style="fill: #1f77b4; fill-opacity: 0.5; stroke: #000000; stroke-linejoin: miter"/>
   </g>
   <g id="patch_28">
    <path d="M 367.282679 136.844059 
L 372.927104 136.844059 
L 372.927104 117.020757 
L 367.282679 117.020757 
z
" clip-path="url(#p1a7406d79f)" style="fill: #1f77b4; fill-opacity: 0.5; stroke: #000000; stroke-linejoin: miter"/>
   </g>
   <g id="patch_29">
    <path d="M 367.282679 117.020757 
L 372.927104 117.020757 
L 372.927104 97.197455 
L 367.282679 97.197455 
z
" clip-path="url(#p1a7406d79f)" style="fill: #1f77b4; fill-opacity: 0.5; stroke: #000000; stroke-linejoin: miter"/>
   </g>
   <g id="matplotlib.axis_5">
    <g id="xtick_19"/>
    <g id="xtick_20"/>
   </g>
   <g id="matplotlib.axis_6">
    <g id="ytick_10">
     <g id="line2d_28">
      <g>
       <use xlink:href="#ma4455d9e9d" x="367.282679" y="381.60579" style="stroke: #000000; stroke-width: 0.8"/>
      </g>
     </g>
    </g>
    <g id="ytick_11">
     <g id="line2d_29">
      <g>
       <use xlink:href="#ma4455d9e9d" x="367.282679" y="333.786497" style="stroke: #000000; stroke-width: 0.8"/>
      </g>
     </g>
    </g>
    <g id="ytick_12">
     <g id="line2d_30">
      <g>
       <use xlink:href="#ma4455d9e9d" x="367.282679" y="285.967203" style="stroke: #000000; stroke-width: 0.8"/>
      </g>
     </g>
    </g>
    <g id="ytick_13">
     <g id="line2d_31">
      <g>
       <use xlink:href="#ma4455d9e9d" x="367.282679" y="238.14791" style="stroke: #000000; stroke-width: 0.8"/>
      </g>
     </g>
    </g>
    <g id="ytick_14">
     <g id="line2d_32">
      <g>
       <use xlink:href="#ma4455d9e9d" x="367.282679" y="190.328617" style="stroke: #000000; stroke-width: 0.8"/>
      </g>
     </g>
    </g>
    <g id="ytick_15">
     <g id="line2d_33">
      <g>
       <use xlink:href="#ma4455d9e9d" x="367.282679" y="142.509324" style="stroke: #000000; stroke-width: 0.8"/>
      </g>
     </g>
    </g>
    <g id="ytick_16">
     <g id="line2d_34">
      <g>
       <use xlink:href="#ma4455d9e9d" x="367.282679" y="94.690031" style="stroke: #000000; stroke-width: 0.8"/>
      </g>
     </g>
    </g>
   </g>
   <g id="line2d_35">
    <path d="M 368.163078 374.723688 
L 368.111633 362.172251 
L 368.106029 348.226209 
L 368.395933 332.885563 
L 368.568629 318.939521 
L 368.497488 304.993479 
L 368.484005 292.442041 
L 368.674272 286.863624 
L 369.087577 281.285208 
L 369.760234 275.706791 
L 370.675508 270.128374 
L 372.064756 263.155353 
L 374.271683 253.393124 
L 375.702041 247.814707 
L 377.377212 242.23629 
L 378.854889 238.052478 
L 380.535217 233.868665 
L 383.027284 228.290248 
L 388.121969 217.133415 
L 390.330989 211.554998 
L 392.246041 205.976581 
L 396.826508 192.030539 
L 399.53145 185.057519 
L 401.702934 179.479102 
L 403.068028 175.295289 
L 403.732488 172.506081 
L 404.127573 169.716872 
L 404.200624 166.927664 
L 403.913292 164.138456 
L 403.245201 161.349247 
L 402.195923 158.560039 
L 400.785118 155.770831 
L 399.050922 152.981622 
L 397.046845 150.192414 
L 393.678198 146.008601 
L 384.252735 134.851768 
L 381.139315 130.667955 
L 379.30147 127.878747 
L 377.67361 125.089538 
L 376.258806 122.30033 
L 375.049404 119.511122 
L 374.029111 116.721913 
L 372.803062 112.538101 
L 371.862958 108.354288 
L 370.904486 102.775871 
L 370.13657 97.197455 
L 370.13657 97.197455 
" clip-path="url(#p1a7406d79f)" style="fill: none; stroke: #1f77b4; stroke-width: 1.5; stroke-linecap: square"/>
   </g>
   <g id="patch_30">
    <path d="M 367.282679 388.6 
L 367.282679 83.321143 
" style="fill: none; stroke: #000000; stroke-width: 0.8; stroke-linejoin: miter; stroke-linecap: square"/>
   </g>
  </g>
  <g id="text_19">
   <!-- IST_intelligence_total vs XGBoost prediction -->
   <g transform="translate(83.457188 16.318125) scale(0.12 -0.12)">
    <defs>
     <path id="DejaVuSans-49" d="M 628 4666 
L 1259 4666 
L 1259 0 
L 628 0 
L 628 4666 
z
" transform="scale(0.015625)"/>
     <path id="DejaVuSans-53" d="M 3425 4513 
L 3425 3897 
Q 3066 4069 2747 4153 
Q 2428 4238 2131 4238 
Q 1616 4238 1336 4038 
Q 1056 3838 1056 3469 
Q 1056 3159 1242 3001 
Q 1428 2844 1947 2747 
L 2328 2669 
Q 3034 2534 3370 2195 
Q 3706 1856 3706 1288 
Q 3706 609 3251 259 
Q 2797 -91 1919 -91 
Q 1588 -91 1214 -16 
Q 841 59 441 206 
L 441 856 
Q 825 641 1194 531 
Q 1563 422 1919 422 
Q 2459 422 2753 634 
Q 3047 847 3047 1241 
Q 3047 1584 2836 1778 
Q 2625 1972 2144 2069 
L 1759 2144 
Q 1053 2284 737 2584 
Q 422 2884 422 3419 
Q 422 4038 858 4394 
Q 1294 4750 2059 4750 
Q 2388 4750 2728 4690 
Q 3069 4631 3425 4513 
z
" transform="scale(0.015625)"/>
     <path id="DejaVuSans-54" d="M -19 4666 
L 3928 4666 
L 3928 4134 
L 2272 4134 
L 2272 0 
L 1638 0 
L 1638 4134 
L -19 4134 
L -19 4666 
z
" transform="scale(0.015625)"/>
     <path id="DejaVuSans-69" d="M 603 3500 
L 1178 3500 
L 1178 0 
L 603 0 
L 603 3500 
z
M 603 4863 
L 1178 4863 
L 1178 4134 
L 603 4134 
L 603 4863 
z
" transform="scale(0.015625)"/>
     <path id="DejaVuSans-6e" d="M 3513 2113 
L 3513 0 
L 2938 0 
L 2938 2094 
Q 2938 2591 2744 2837 
Q 2550 3084 2163 3084 
Q 1697 3084 1428 2787 
Q 1159 2491 1159 1978 
L 1159 0 
L 581 0 
L 581 3500 
L 1159 3500 
L 1159 2956 
Q 1366 3272 1645 3428 
Q 1925 3584 2291 3584 
Q 2894 3584 3203 3211 
Q 3513 2838 3513 2113 
z
" transform="scale(0.015625)"/>
     <path id="DejaVuSans-6c" d="M 603 4863 
L 1178 4863 
L 1178 0 
L 603 0 
L 603 4863 
z
" transform="scale(0.015625)"/>
     <path id="DejaVuSans-67" d="M 2906 1791 
Q 2906 2416 2648 2759 
Q 2391 3103 1925 3103 
Q 1463 3103 1205 2759 
Q 947 2416 947 1791 
Q 947 1169 1205 825 
Q 1463 481 1925 481 
Q 2391 481 2648 825 
Q 2906 1169 2906 1791 
z
M 3481 434 
Q 3481 -459 3084 -895 
Q 2688 -1331 1869 -1331 
Q 1566 -1331 1297 -1286 
Q 1028 -1241 775 -1147 
L 775 -588 
Q 1028 -725 1275 -790 
Q 1522 -856 1778 -856 
Q 2344 -856 2625 -561 
Q 2906 -266 2906 331 
L 2906 616 
Q 2728 306 2450 153 
Q 2172 0 1784 0 
Q 1141 0 747 490 
Q 353 981 353 1791 
Q 353 2603 747 3093 
Q 1141 3584 1784 3584 
Q 2172 3584 2450 3431 
Q 2728 3278 2906 2969 
L 2906 3500 
L 3481 3500 
L 3481 434 
z
" transform="scale(0.015625)"/>
     <path id="DejaVuSans-63" d="M 3122 3366 
L 3122 2828 
Q 2878 2963 2633 3030 
Q 2388 3097 2138 3097 
Q 1578 3097 1268 2742 
Q 959 2388 959 1747 
Q 959 1106 1268 751 
Q 1578 397 2138 397 
Q 2388 397 2633 464 
Q 2878 531 3122 666 
L 3122 134 
Q 2881 22 2623 -34 
Q 2366 -91 2075 -91 
Q 1284 -91 818 406 
Q 353 903 353 1747 
Q 353 2603 823 3093 
Q 1294 3584 2113 3584 
Q 2378 3584 2631 3529 
Q 2884 3475 3122 3366 
z
" transform="scale(0.015625)"/>
     <path id="DejaVuSans-6f" d="M 1959 3097 
Q 1497 3097 1228 2736 
Q 959 2375 959 1747 
Q 959 1119 1226 758 
Q 1494 397 1959 397 
Q 2419 397 2687 759 
Q 2956 1122 2956 1747 
Q 2956 2369 2687 2733 
Q 2419 3097 1959 3097 
z
M 1959 3584 
Q 2709 3584 3137 3096 
Q 3566 2609 3566 1747 
Q 3566 888 3137 398 
Q 2709 -91 1959 -91 
Q 1206 -91 779 398 
Q 353 888 353 1747 
Q 353 2609 779 3096 
Q 1206 3584 1959 3584 
z
" transform="scale(0.015625)"/>
     <path id="DejaVuSans-61" d="M 2194 1759 
Q 1497 1759 1228 1600 
Q 959 1441 959 1056 
Q 959 750 1161 570 
Q 1363 391 1709 391 
Q 2188 391 2477 730 
Q 2766 1069 2766 1631 
L 2766 1759 
L 2194 1759 
z
M 3341 1997 
L 3341 0 
L 2766 0 
L 2766 531 
Q 2569 213 2275 61 
Q 1981 -91 1556 -91 
Q 1019 -91 701 211 
Q 384 513 384 1019 
Q 384 1609 779 1909 
Q 1175 2209 1959 2209 
L 2766 2209 
L 2766 2266 
Q 2766 2663 2505 2880 
Q 2244 3097 1772 3097 
Q 1472 3097 1187 3025 
Q 903 2953 641 2809 
L 641 3341 
Q 956 3463 1253 3523 
Q 1550 3584 1831 3584 
Q 2591 3584 2966 3190 
Q 3341 2797 3341 1997 
z
" transform="scale(0.015625)"/>
     <path id="DejaVuSans-20" transform="scale(0.015625)"/>
     <path id="DejaVuSans-76" d="M 191 3500 
L 800 3500 
L 1894 563 
L 2988 3500 
L 3597 3500 
L 2284 0 
L 1503 0 
L 191 3500 
z
" transform="scale(0.015625)"/>
     <path id="DejaVuSans-73" d="M 2834 3397 
L 2834 2853 
Q 2591 2978 2328 3040 
Q 2066 3103 1784 3103 
Q 1356 3103 1142 2972 
Q 928 2841 928 2578 
Q 928 2378 1081 2264 
Q 1234 2150 1697 2047 
L 1894 2003 
Q 2506 1872 2764 1633 
Q 3022 1394 3022 966 
Q 3022 478 2636 193 
Q 2250 -91 1575 -91 
Q 1294 -91 989 -36 
Q 684 19 347 128 
L 347 722 
Q 666 556 975 473 
Q 1284 391 1588 391 
Q 1994 391 2212 530 
Q 2431 669 2431 922 
Q 2431 1156 2273 1281 
Q 2116 1406 1581 1522 
L 1381 1569 
Q 847 1681 609 1914 
Q 372 2147 372 2553 
Q 372 3047 722 3315 
Q 1072 3584 1716 3584 
Q 2034 3584 2315 3537 
Q 2597 3491 2834 3397 
z
" transform="scale(0.015625)"/>
     <path id="DejaVuSans-58" d="M 403 4666 
L 1081 4666 
L 2241 2931 
L 3406 4666 
L 4084 4666 
L 2584 2425 
L 4184 0 
L 3506 0 
L 2194 1984 
L 872 0 
L 191 0 
L 1856 2491 
L 403 4666 
z
" transform="scale(0.015625)"/>
     <path id="DejaVuSans-47" d="M 3809 666 
L 3809 1919 
L 2778 1919 
L 2778 2438 
L 4434 2438 
L 4434 434 
Q 4069 175 3628 42 
Q 3188 -91 2688 -91 
Q 1594 -91 976 548 
Q 359 1188 359 2328 
Q 359 3472 976 4111 
Q 1594 4750 2688 4750 
Q 3144 4750 3555 4637 
Q 3966 4525 4313 4306 
L 4313 3634 
Q 3963 3931 3569 4081 
Q 3175 4231 2741 4231 
Q 1884 4231 1454 3753 
Q 1025 3275 1025 2328 
Q 1025 1384 1454 906 
Q 1884 428 2741 428 
Q 3075 428 3337 486 
Q 3600 544 3809 666 
z
" transform="scale(0.015625)"/>
     <path id="DejaVuSans-42" d="M 1259 2228 
L 1259 519 
L 2272 519 
Q 2781 519 3026 730 
Q 3272 941 3272 1375 
Q 3272 1813 3026 2020 
Q 2781 2228 2272 2228 
L 1259 2228 
z
M 1259 4147 
L 1259 2741 
L 2194 2741 
Q 2656 2741 2882 2914 
Q 3109 3088 3109 3444 
Q 3109 3797 2882 3972 
Q 2656 4147 2194 4147 
L 1259 4147 
z
M 628 4666 
L 2241 4666 
Q 2963 4666 3353 4366 
Q 3744 4066 3744 3513 
Q 3744 3084 3544 2831 
Q 3344 2578 2956 2516 
Q 3422 2416 3680 2098 
Q 3938 1781 3938 1306 
Q 3938 681 3513 340 
Q 3088 0 2303 0 
L 628 0 
L 628 4666 
z
" transform="scale(0.015625)"/>
    </defs>
    <use xlink:href="#DejaVuSans-49"/>
    <use xlink:href="#DejaVuSans-53" x="29.492188"/>
    <use xlink:href="#DejaVuSans-54" x="92.96875"/>
    <use xlink:href="#DejaVuSans-5f" x="154.052734"/>
    <use xlink:href="#DejaVuSans-69" x="204.052734"/>
    <use xlink:href="#DejaVuSans-6e" x="231.835938"/>
    <use xlink:href="#DejaVuSans-74" x="295.214844"/>
    <use xlink:href="#DejaVuSans-65" x="334.423828"/>
    <use xlink:href="#DejaVuSans-6c" x="395.947266"/>
    <use xlink:href="#DejaVuSans-6c" x="423.730469"/>
    <use xlink:href="#DejaVuSans-69" x="451.513672"/>
    <use xlink:href="#DejaVuSans-67" x="479.296875"/>
    <use xlink:href="#DejaVuSans-65" x="542.773438"/>
    <use xlink:href="#DejaVuSans-6e" x="604.296875"/>
    <use xlink:href="#DejaVuSans-63" x="667.675781"/>
    <use xlink:href="#DejaVuSans-65" x="722.65625"/>
    <use xlink:href="#DejaVuSans-5f" x="784.179688"/>
    <use xlink:href="#DejaVuSans-74" x="834.179688"/>
    <use xlink:href="#DejaVuSans-6f" x="873.388672"/>
    <use xlink:href="#DejaVuSans-74" x="934.570312"/>
    <use xlink:href="#DejaVuSans-61" x="973.779297"/>
    <use xlink:href="#DejaVuSans-6c" x="1035.058594"/>
    <use xlink:href="#DejaVuSans-20" x="1062.841797"/>
    <use xlink:href="#DejaVuSans-76" x="1094.628906"/>
    <use xlink:href="#DejaVuSans-73" x="1153.808594"/>
    <use xlink:href="#DejaVuSans-20" x="1205.908203"/>
    <use xlink:href="#DejaVuSans-58" x="1237.695312"/>
    <use xlink:href="#DejaVuSans-47" x="1306.201172"/>
    <use xlink:href="#DejaVuSans-42" x="1383.691406"/>
    <use xlink:href="#DejaVuSans-6f" x="1452.294922"/>
    <use xlink:href="#DejaVuSans-6f" x="1513.476562"/>
    <use xlink:href="#DejaVuSans-73" x="1574.658203"/>
    <use xlink:href="#DejaVuSans-74" x="1626.757812"/>
    <use xlink:href="#DejaVuSans-20" x="1665.966797"/>
    <use xlink:href="#DejaVuSans-70" x="1697.753906"/>
    <use xlink:href="#DejaVuSans-72" x="1761.230469"/>
    <use xlink:href="#DejaVuSans-65" x="1800.09375"/>
    <use xlink:href="#DejaVuSans-64" x="1861.617188"/>
    <use xlink:href="#DejaVuSans-69" x="1925.09375"/>
    <use xlink:href="#DejaVuSans-63" x="1952.876953"/>
    <use xlink:href="#DejaVuSans-74" x="2007.857422"/>
    <use xlink:href="#DejaVuSans-69" x="2047.066406"/>
    <use xlink:href="#DejaVuSans-6f" x="2074.849609"/>
    <use xlink:href="#DejaVuSans-6e" x="2136.03125"/>
   </g>
  </g>
 </g>
 <defs>
  <clipPath id="pf71b9f3194">
   <rect x="47.24375" y="83.321143" width="309.370964" height="305.278857"/>
  </clipPath>
  <clipPath id="p39f35211f6">
   <rect x="47.24375" y="20.16" width="309.370964" height="52.634286"/>
  </clipPath>
  <clipPath id="p1a7406d79f">
   <rect x="367.282679" y="83.321143" width="53.339821" height="305.278857"/>
  </clipPath>
 </defs>
</svg>
