<?xml version="1.0" encoding="utf-8" standalone="no"?>
<!DOCTYPE svg PUBLIC "-//W3C//DTD SVG 1.1//EN"
  "http://www.w3.org/Graphics/SVG/1.1/DTD/svg11.dtd">
<svg xmlns:xlink="http://www.w3.org/1999/xlink" width="437.363125pt" height="426.15625pt" viewBox="0 0 437.363125 426.15625" xmlns="http://www.w3.org/2000/svg" version="1.1">
 <metadata>
  <rdf:RDF xmlns:dc="http://purl.org/dc/elements/1.1/" xmlns:cc="http://creativecommons.org/ns#" xmlns:rdf="http://www.w3.org/1999/02/22-rdf-syntax-ns#">
   <cc:Work>
    <dc:type rdf:resource="http://purl.org/dc/dcmitype/StillImage"/>
    <dc:date>2024-06-08T17:45:13.462788</dc:date>
    <dc:format>image/svg+xml</dc:format>
    <dc:creator>
     <cc:Agent>
      <dc:title>Matplotlib v3.8.4, https://matplotlib.org/</dc:title>
     </cc:Agent>
    </dc:creator>
   </cc:Work>
  </rdf:RDF>
 </metadata>
 <defs>
  <style type="text/css">*{stroke-linejoin: round; stroke-linecap: butt}</style>
 </defs>
 <g id="figure_1">
  <g id="patch_1">
   <path d="M 0 426.15625 
L 437.363125 426.15625 
L 437.363125 0 
L 0 0 
z
" style="fill: #ffffff"/>
  </g>
  <g id="axes_1">
   <g id="patch_2">
    <path d="M 56.784375 388.6 
L 366.155339 388.6 
L 366.155339 83.321143 
L 56.784375 83.321143 
z
" style="fill: #ffffff"/>
   </g>
   <g id="PathCollection_1">
    <defs>
     <path id="mf4248e9859" d="M 0 3 
C 0.795609 3 1.55874 2.683901 2.12132 2.12132 
C 2.683901 1.55874 3 0.795609 3 0 
C 3 -0.795609 2.683901 -1.55874 2.12132 -2.12132 
C 1.55874 -2.683901 0.795609 -3 0 -3 
C -0.795609 -3 -1.55874 -2.683901 -2.12132 -2.12132 
C -2.683901 -1.55874 -3 -0.795609 -3 0 
C -3 0.795609 -2.683901 1.55874 -2.12132 2.12132 
C -1.55874 2.683901 -0.795609 3 0 3 
z
" style="stroke: #1f77b4; stroke-opacity: 0.8"/>
    </defs>
    <g clip-path="url(#p739bf7dec8)">
     <use xlink:href="#mf4248e9859" x="320.84343" y="235.960571" style="fill: #1f77b4; fill-opacity: 0.8; stroke: #1f77b4; stroke-opacity: 0.8"/>
     <use xlink:href="#mf4248e9859" x="184.815793" y="235.960571" style="fill: #1f77b4; fill-opacity: 0.8; stroke: #1f77b4; stroke-opacity: 0.8"/>
     <use xlink:href="#mf4248e9859" x="239.962133" y="235.960571" style="fill: #1f77b4; fill-opacity: 0.8; stroke: #1f77b4; stroke-opacity: 0.8"/>
     <use xlink:href="#mf4248e9859" x="238.123921" y="235.960571" style="fill: #1f77b4; fill-opacity: 0.8; stroke: #1f77b4; stroke-opacity: 0.8"/>
     <use xlink:href="#mf4248e9859" x="322.681642" y="235.960571" style="fill: #1f77b4; fill-opacity: 0.8; stroke: #1f77b4; stroke-opacity: 0.8"/>
     <use xlink:href="#mf4248e9859" x="148.051567" y="235.960571" style="fill: #1f77b4; fill-opacity: 0.8; stroke: #1f77b4; stroke-opacity: 0.8"/>
     <use xlink:href="#mf4248e9859" x="335.549121" y="235.960571" style="fill: #1f77b4; fill-opacity: 0.8; stroke: #1f77b4; stroke-opacity: 0.8"/>
     <use xlink:href="#mf4248e9859" x="300.623106" y="235.960571" style="fill: #1f77b4; fill-opacity: 0.8; stroke: #1f77b4; stroke-opacity: 0.8"/>
     <use xlink:href="#mf4248e9859" x="151.727989" y="235.960571" style="fill: #1f77b4; fill-opacity: 0.8; stroke: #1f77b4; stroke-opacity: 0.8"/>
     <use xlink:href="#mf4248e9859" x="91.067016" y="235.960571" style="fill: #1f77b4; fill-opacity: 0.8; stroke: #1f77b4; stroke-opacity: 0.8"/>
     <use xlink:href="#mf4248e9859" x="177.462948" y="235.960571" style="fill: #1f77b4; fill-opacity: 0.8; stroke: #1f77b4; stroke-opacity: 0.8"/>
     <use xlink:href="#mf4248e9859" x="280.402781" y="235.960571" style="fill: #1f77b4; fill-opacity: 0.8; stroke: #1f77b4; stroke-opacity: 0.8"/>
     <use xlink:href="#mf4248e9859" x="201.359695" y="235.960571" style="fill: #1f77b4; fill-opacity: 0.8; stroke: #1f77b4; stroke-opacity: 0.8"/>
     <use xlink:href="#mf4248e9859" x="276.726359" y="235.960571" style="fill: #1f77b4; fill-opacity: 0.8; stroke: #1f77b4; stroke-opacity: 0.8"/>
     <use xlink:href="#mf4248e9859" x="309.814162" y="235.960571" style="fill: #1f77b4; fill-opacity: 0.8; stroke: #1f77b4; stroke-opacity: 0.8"/>
     <use xlink:href="#mf4248e9859" x="76.361326" y="235.960571" style="fill: #1f77b4; fill-opacity: 0.8; stroke: #1f77b4; stroke-opacity: 0.8"/>
     <use xlink:href="#mf4248e9859" x="252.829612" y="235.960571" style="fill: #1f77b4; fill-opacity: 0.8; stroke: #1f77b4; stroke-opacity: 0.8"/>
     <use xlink:href="#mf4248e9859" x="337.387332" y="235.960571" style="fill: #1f77b4; fill-opacity: 0.8; stroke: #1f77b4; stroke-opacity: 0.8"/>
     <use xlink:href="#mf4248e9859" x="234.447499" y="235.960571" style="fill: #1f77b4; fill-opacity: 0.8; stroke: #1f77b4; stroke-opacity: 0.8"/>
     <use xlink:href="#mf4248e9859" x="78.199537" y="235.960571" style="fill: #1f77b4; fill-opacity: 0.8; stroke: #1f77b4; stroke-opacity: 0.8"/>
     <use xlink:href="#mf4248e9859" x="201.359695" y="235.960571" style="fill: #1f77b4; fill-opacity: 0.8; stroke: #1f77b4; stroke-opacity: 0.8"/>
     <use xlink:href="#mf4248e9859" x="278.56457" y="235.960571" style="fill: #1f77b4; fill-opacity: 0.8; stroke: #1f77b4; stroke-opacity: 0.8"/>
     <use xlink:href="#mf4248e9859" x="197.683272" y="235.960571" style="fill: #1f77b4; fill-opacity: 0.8; stroke: #1f77b4; stroke-opacity: 0.8"/>
     <use xlink:href="#mf4248e9859" x="171.948314" y="235.960571" style="fill: #1f77b4; fill-opacity: 0.8; stroke: #1f77b4; stroke-opacity: 0.8"/>
     <use xlink:href="#mf4248e9859" x="267.535302" y="235.960571" style="fill: #1f77b4; fill-opacity: 0.8; stroke: #1f77b4; stroke-opacity: 0.8"/>
     <use xlink:href="#mf4248e9859" x="194.00685" y="235.960571" style="fill: #1f77b4; fill-opacity: 0.8; stroke: #1f77b4; stroke-opacity: 0.8"/>
     <use xlink:href="#mf4248e9859" x="182.977582" y="235.960571" style="fill: #1f77b4; fill-opacity: 0.8; stroke: #1f77b4; stroke-opacity: 0.8"/>
     <use xlink:href="#mf4248e9859" x="214.227174" y="235.960571" style="fill: #1f77b4; fill-opacity: 0.8; stroke: #1f77b4; stroke-opacity: 0.8"/>
     <use xlink:href="#mf4248e9859" x="149.889778" y="235.960571" style="fill: #1f77b4; fill-opacity: 0.8; stroke: #1f77b4; stroke-opacity: 0.8"/>
     <use xlink:href="#mf4248e9859" x="276.726359" y="235.960571" style="fill: #1f77b4; fill-opacity: 0.8; stroke: #1f77b4; stroke-opacity: 0.8"/>
     <use xlink:href="#mf4248e9859" x="300.623106" y="235.960571" style="fill: #1f77b4; fill-opacity: 0.8; stroke: #1f77b4; stroke-opacity: 0.8"/>
     <use xlink:href="#mf4248e9859" x="300.623106" y="235.960571" style="fill: #1f77b4; fill-opacity: 0.8; stroke: #1f77b4; stroke-opacity: 0.8"/>
     <use xlink:href="#mf4248e9859" x="173.786525" y="235.960571" style="fill: #1f77b4; fill-opacity: 0.8; stroke: #1f77b4; stroke-opacity: 0.8"/>
     <use xlink:href="#mf4248e9859" x="243.638555" y="235.960571" style="fill: #1f77b4; fill-opacity: 0.8; stroke: #1f77b4; stroke-opacity: 0.8"/>
     <use xlink:href="#mf4248e9859" x="307.975951" y="235.960571" style="fill: #1f77b4; fill-opacity: 0.8; stroke: #1f77b4; stroke-opacity: 0.8"/>
     <use xlink:href="#mf4248e9859" x="317.167008" y="235.960571" style="fill: #1f77b4; fill-opacity: 0.8; stroke: #1f77b4; stroke-opacity: 0.8"/>
     <use xlink:href="#mf4248e9859" x="293.270261" y="235.960571" style="fill: #1f77b4; fill-opacity: 0.8; stroke: #1f77b4; stroke-opacity: 0.8"/>
     <use xlink:href="#mf4248e9859" x="319.005219" y="235.960571" style="fill: #1f77b4; fill-opacity: 0.8; stroke: #1f77b4; stroke-opacity: 0.8"/>
     <use xlink:href="#mf4248e9859" x="149.889778" y="235.960571" style="fill: #1f77b4; fill-opacity: 0.8; stroke: #1f77b4; stroke-opacity: 0.8"/>
     <use xlink:href="#mf4248e9859" x="307.975951" y="235.960571" style="fill: #1f77b4; fill-opacity: 0.8; stroke: #1f77b4; stroke-opacity: 0.8"/>
     <use xlink:href="#mf4248e9859" x="291.432049" y="235.960571" style="fill: #1f77b4; fill-opacity: 0.8; stroke: #1f77b4; stroke-opacity: 0.8"/>
     <use xlink:href="#mf4248e9859" x="267.535302" y="235.960571" style="fill: #1f77b4; fill-opacity: 0.8; stroke: #1f77b4; stroke-opacity: 0.8"/>
     <use xlink:href="#mf4248e9859" x="124.15482" y="235.960571" style="fill: #1f77b4; fill-opacity: 0.8; stroke: #1f77b4; stroke-opacity: 0.8"/>
     <use xlink:href="#mf4248e9859" x="223.418231" y="235.960571" style="fill: #1f77b4; fill-opacity: 0.8; stroke: #1f77b4; stroke-opacity: 0.8"/>
     <use xlink:href="#mf4248e9859" x="262.020668" y="235.960571" style="fill: #1f77b4; fill-opacity: 0.8; stroke: #1f77b4; stroke-opacity: 0.8"/>
     <use xlink:href="#mf4248e9859" x="322.681642" y="235.960571" style="fill: #1f77b4; fill-opacity: 0.8; stroke: #1f77b4; stroke-opacity: 0.8"/>
     <use xlink:href="#mf4248e9859" x="241.800344" y="235.960571" style="fill: #1f77b4; fill-opacity: 0.8; stroke: #1f77b4; stroke-opacity: 0.8"/>
     <use xlink:href="#mf4248e9859" x="181.13937" y="235.960571" style="fill: #1f77b4; fill-opacity: 0.8; stroke: #1f77b4; stroke-opacity: 0.8"/>
     <use xlink:href="#mf4248e9859" x="352.093023" y="235.960571" style="fill: #1f77b4; fill-opacity: 0.8; stroke: #1f77b4; stroke-opacity: 0.8"/>
     <use xlink:href="#mf4248e9859" x="262.020668" y="235.960571" style="fill: #1f77b4; fill-opacity: 0.8; stroke: #1f77b4; stroke-opacity: 0.8"/>
     <use xlink:href="#mf4248e9859" x="243.638555" y="235.960571" style="fill: #1f77b4; fill-opacity: 0.8; stroke: #1f77b4; stroke-opacity: 0.8"/>
     <use xlink:href="#mf4248e9859" x="247.314978" y="235.960571" style="fill: #1f77b4; fill-opacity: 0.8; stroke: #1f77b4; stroke-opacity: 0.8"/>
     <use xlink:href="#mf4248e9859" x="328.196276" y="235.960571" style="fill: #1f77b4; fill-opacity: 0.8; stroke: #1f77b4; stroke-opacity: 0.8"/>
     <use xlink:href="#mf4248e9859" x="256.506034" y="235.960571" style="fill: #1f77b4; fill-opacity: 0.8; stroke: #1f77b4; stroke-opacity: 0.8"/>
     <use xlink:href="#mf4248e9859" x="258.344246" y="235.960571" style="fill: #1f77b4; fill-opacity: 0.8; stroke: #1f77b4; stroke-opacity: 0.8"/>
     <use xlink:href="#mf4248e9859" x="181.13937" y="235.960571" style="fill: #1f77b4; fill-opacity: 0.8; stroke: #1f77b4; stroke-opacity: 0.8"/>
     <use xlink:href="#mf4248e9859" x="214.227174" y="235.960571" style="fill: #1f77b4; fill-opacity: 0.8; stroke: #1f77b4; stroke-opacity: 0.8"/>
     <use xlink:href="#mf4248e9859" x="146.213355" y="235.960571" style="fill: #1f77b4; fill-opacity: 0.8; stroke: #1f77b4; stroke-opacity: 0.8"/>
     <use xlink:href="#mf4248e9859" x="241.800344" y="235.960571" style="fill: #1f77b4; fill-opacity: 0.8; stroke: #1f77b4; stroke-opacity: 0.8"/>
     <use xlink:href="#mf4248e9859" x="291.432049" y="235.960571" style="fill: #1f77b4; fill-opacity: 0.8; stroke: #1f77b4; stroke-opacity: 0.8"/>
     <use xlink:href="#mf4248e9859" x="96.58165" y="235.960571" style="fill: #1f77b4; fill-opacity: 0.8; stroke: #1f77b4; stroke-opacity: 0.8"/>
     <use xlink:href="#mf4248e9859" x="217.903597" y="235.960571" style="fill: #1f77b4; fill-opacity: 0.8; stroke: #1f77b4; stroke-opacity: 0.8"/>
     <use xlink:href="#mf4248e9859" x="70.846692" y="235.960571" style="fill: #1f77b4; fill-opacity: 0.8; stroke: #1f77b4; stroke-opacity: 0.8"/>
     <use xlink:href="#mf4248e9859" x="282.240993" y="235.960571" style="fill: #1f77b4; fill-opacity: 0.8; stroke: #1f77b4; stroke-opacity: 0.8"/>
     <use xlink:href="#mf4248e9859" x="91.067016" y="235.960571" style="fill: #1f77b4; fill-opacity: 0.8; stroke: #1f77b4; stroke-opacity: 0.8"/>
     <use xlink:href="#mf4248e9859" x="192.168638" y="235.960571" style="fill: #1f77b4; fill-opacity: 0.8; stroke: #1f77b4; stroke-opacity: 0.8"/>
     <use xlink:href="#mf4248e9859" x="192.168638" y="235.960571" style="fill: #1f77b4; fill-opacity: 0.8; stroke: #1f77b4; stroke-opacity: 0.8"/>
     <use xlink:href="#mf4248e9859" x="341.063755" y="235.960571" style="fill: #1f77b4; fill-opacity: 0.8; stroke: #1f77b4; stroke-opacity: 0.8"/>
     <use xlink:href="#mf4248e9859" x="188.492216" y="235.960571" style="fill: #1f77b4; fill-opacity: 0.8; stroke: #1f77b4; stroke-opacity: 0.8"/>
     <use xlink:href="#mf4248e9859" x="348.4166" y="235.960571" style="fill: #1f77b4; fill-opacity: 0.8; stroke: #1f77b4; stroke-opacity: 0.8"/>
     <use xlink:href="#mf4248e9859" x="173.786525" y="235.960571" style="fill: #1f77b4; fill-opacity: 0.8; stroke: #1f77b4; stroke-opacity: 0.8"/>
     <use xlink:href="#mf4248e9859" x="98.419861" y="235.960571" style="fill: #1f77b4; fill-opacity: 0.8; stroke: #1f77b4; stroke-opacity: 0.8"/>
     <use xlink:href="#mf4248e9859" x="168.271891" y="235.960571" style="fill: #1f77b4; fill-opacity: 0.8; stroke: #1f77b4; stroke-opacity: 0.8"/>
     <use xlink:href="#mf4248e9859" x="302.461317" y="235.960571" style="fill: #1f77b4; fill-opacity: 0.8; stroke: #1f77b4; stroke-opacity: 0.8"/>
     <use xlink:href="#mf4248e9859" x="182.977582" y="235.960571" style="fill: #1f77b4; fill-opacity: 0.8; stroke: #1f77b4; stroke-opacity: 0.8"/>
     <use xlink:href="#mf4248e9859" x="269.373514" y="235.960571" style="fill: #1f77b4; fill-opacity: 0.8; stroke: #1f77b4; stroke-opacity: 0.8"/>
     <use xlink:href="#mf4248e9859" x="247.314978" y="235.960571" style="fill: #1f77b4; fill-opacity: 0.8; stroke: #1f77b4; stroke-opacity: 0.8"/>
     <use xlink:href="#mf4248e9859" x="124.15482" y="235.960571" style="fill: #1f77b4; fill-opacity: 0.8; stroke: #1f77b4; stroke-opacity: 0.8"/>
     <use xlink:href="#mf4248e9859" x="144.375144" y="235.960571" style="fill: #1f77b4; fill-opacity: 0.8; stroke: #1f77b4; stroke-opacity: 0.8"/>
     <use xlink:href="#mf4248e9859" x="116.801974" y="235.960571" style="fill: #1f77b4; fill-opacity: 0.8; stroke: #1f77b4; stroke-opacity: 0.8"/>
     <use xlink:href="#mf4248e9859" x="243.638555" y="235.960571" style="fill: #1f77b4; fill-opacity: 0.8; stroke: #1f77b4; stroke-opacity: 0.8"/>
     <use xlink:href="#mf4248e9859" x="265.697091" y="235.960571" style="fill: #1f77b4; fill-opacity: 0.8; stroke: #1f77b4; stroke-opacity: 0.8"/>
     <use xlink:href="#mf4248e9859" x="300.623106" y="235.960571" style="fill: #1f77b4; fill-opacity: 0.8; stroke: #1f77b4; stroke-opacity: 0.8"/>
     <use xlink:href="#mf4248e9859" x="138.86051" y="235.960571" style="fill: #1f77b4; fill-opacity: 0.8; stroke: #1f77b4; stroke-opacity: 0.8"/>
     <use xlink:href="#mf4248e9859" x="306.13774" y="235.960571" style="fill: #1f77b4; fill-opacity: 0.8; stroke: #1f77b4; stroke-opacity: 0.8"/>
     <use xlink:href="#mf4248e9859" x="173.786525" y="235.960571" style="fill: #1f77b4; fill-opacity: 0.8; stroke: #1f77b4; stroke-opacity: 0.8"/>
     <use xlink:href="#mf4248e9859" x="219.741808" y="235.960571" style="fill: #1f77b4; fill-opacity: 0.8; stroke: #1f77b4; stroke-opacity: 0.8"/>
     <use xlink:href="#mf4248e9859" x="133.345876" y="235.960571" style="fill: #1f77b4; fill-opacity: 0.8; stroke: #1f77b4; stroke-opacity: 0.8"/>
     <use xlink:href="#mf4248e9859" x="258.344246" y="235.960571" style="fill: #1f77b4; fill-opacity: 0.8; stroke: #1f77b4; stroke-opacity: 0.8"/>
     <use xlink:href="#mf4248e9859" x="217.903597" y="235.960571" style="fill: #1f77b4; fill-opacity: 0.8; stroke: #1f77b4; stroke-opacity: 0.8"/>
     <use xlink:href="#mf4248e9859" x="284.079204" y="235.960571" style="fill: #1f77b4; fill-opacity: 0.8; stroke: #1f77b4; stroke-opacity: 0.8"/>
     <use xlink:href="#mf4248e9859" x="221.580019" y="235.960571" style="fill: #1f77b4; fill-opacity: 0.8; stroke: #1f77b4; stroke-opacity: 0.8"/>
     <use xlink:href="#mf4248e9859" x="265.697091" y="235.960571" style="fill: #1f77b4; fill-opacity: 0.8; stroke: #1f77b4; stroke-opacity: 0.8"/>
    </g>
   </g>
   <g id="PolyCollection_1">
    <path d="M 70.846692 235.960571 
L 70.846692 235.960571 
L 73.687564 235.960571 
L 76.528436 235.960571 
L 79.369308 235.960571 
L 82.21018 235.960571 
L 85.051052 235.960571 
L 87.891924 235.960571 
L 90.732796 235.960571 
L 93.573668 235.960571 
L 96.41454 235.960571 
L 99.255412 235.960571 
L 102.096284 235.960571 
L 104.937156 235.960571 
L 107.778028 235.960571 
L 110.6189 235.960571 
L 113.459772 235.960571 
L 116.300644 235.960571 
L 119.141516 235.960571 
L 121.982388 235.960571 
L 124.82326 235.960571 
L 127.664132 235.960571 
L 130.505004 235.960571 
L 133.345876 235.960571 
L 136.186748 235.960571 
L 139.02762 235.960571 
L 141.868492 235.960571 
L 144.709364 235.960571 
L 147.550236 235.960571 
L 150.391108 235.960571 
L 153.23198 235.960571 
L 156.072853 235.960571 
L 158.913725 235.960571 
L 161.754597 235.960571 
L 164.595469 235.960571 
L 167.436341 235.960571 
L 170.277213 235.960571 
L 173.118085 235.960571 
L 175.958957 235.960571 
L 178.799829 235.960571 
L 181.640701 235.960571 
L 184.481573 235.960571 
L 187.322445 235.960571 
L 190.163317 235.960571 
L 193.004189 235.960571 
L 195.845061 235.960571 
L 198.685933 235.960571 
L 201.526805 235.960571 
L 204.367677 235.960571 
L 207.208549 235.960571 
L 210.049421 235.960571 
L 212.890293 235.960571 
L 215.731165 235.960571 
L 218.572037 235.960571 
L 221.412909 235.960571 
L 224.253781 235.960571 
L 227.094653 235.960571 
L 229.935525 235.960571 
L 232.776397 235.960571 
L 235.617269 235.960571 
L 238.458141 235.960571 
L 241.299013 235.960571 
L 244.139886 235.960571 
L 246.980758 235.960571 
L 249.82163 235.960571 
L 252.662502 235.960571 
L 255.503374 235.960571 
L 258.344246 235.960571 
L 261.185118 235.960571 
L 264.02599 235.960571 
L 266.866862 235.960571 
L 269.707734 235.960571 
L 272.548606 235.960571 
L 275.389478 235.960571 
L 278.23035 235.960571 
L 281.071222 235.960571 
L 283.912094 235.960571 
L 286.752966 235.960571 
L 289.593838 235.960571 
L 292.43471 235.960571 
L 295.275582 235.960571 
L 298.116454 235.960571 
L 300.957326 235.960571 
L 303.798198 235.960571 
L 306.63907 235.960571 
L 309.479942 235.960571 
L 312.320814 235.960571 
L 315.161686 235.960571 
L 318.002558 235.960571 
L 320.84343 235.960571 
L 323.684302 235.960571 
L 326.525174 235.960571 
L 329.366046 235.960571 
L 332.206919 235.960571 
L 335.047791 235.960571 
L 337.888663 235.960571 
L 340.729535 235.960571 
L 343.570407 235.960571 
L 346.411279 235.960571 
L 349.252151 235.960571 
L 352.093023 235.960571 
L 352.093023 235.960571 
L 352.093023 235.960571 
L 349.252151 235.960571 
L 346.411279 235.960571 
L 343.570407 235.960571 
L 340.729535 235.960571 
L 337.888663 235.960571 
L 335.047791 235.960571 
L 332.206919 235.960571 
L 329.366046 235.960571 
L 326.525174 235.960571 
L 323.684302 235.960571 
L 320.84343 235.960571 
L 318.002558 235.960571 
L 315.161686 235.960571 
L 312.320814 235.960571 
L 309.479942 235.960571 
L 306.63907 235.960571 
L 303.798198 235.960571 
L 300.957326 235.960571 
L 298.116454 235.960571 
L 295.275582 235.960571 
L 292.43471 235.960571 
L 289.593838 235.960571 
L 286.752966 235.960571 
L 283.912094 235.960571 
L 281.071222 235.960571 
L 278.23035 235.960571 
L 275.389478 235.960571 
L 272.548606 235.960571 
L 269.707734 235.960571 
L 266.866862 235.960571 
L 264.02599 235.960571 
L 261.185118 235.960571 
L 258.344246 235.960571 
L 255.503374 235.960571 
L 252.662502 235.960571 
L 249.82163 235.960571 
L 246.980758 235.960571 
L 244.139886 235.960571 
L 241.299013 235.960571 
L 238.458141 235.960571 
L 235.617269 235.960571 
L 232.776397 235.960571 
L 229.935525 235.960571 
L 227.094653 235.960571 
L 224.253781 235.960571 
L 221.412909 235.960571 
L 218.572037 235.960571 
L 215.731165 235.960571 
L 212.890293 235.960571 
L 210.049421 235.960571 
L 207.208549 235.960571 
L 204.367677 235.960571 
L 201.526805 235.960571 
L 198.685933 235.960571 
L 195.845061 235.960571 
L 193.004189 235.960571 
L 190.163317 235.960571 
L 187.322445 235.960571 
L 184.481573 235.960571 
L 181.640701 235.960571 
L 178.799829 235.960571 
L 175.958957 235.960571 
L 173.118085 235.960571 
L 170.277213 235.960571 
L 167.436341 235.960571 
L 164.595469 235.960571 
L 161.754597 235.960571 
L 158.913725 235.960571 
L 156.072853 235.960571 
L 153.23198 235.960571 
L 150.391108 235.960571 
L 147.550236 235.960571 
L 144.709364 235.960571 
L 141.868492 235.960571 
L 139.02762 235.960571 
L 136.186748 235.960571 
L 133.345876 235.960571 
L 130.505004 235.960571 
L 127.664132 235.960571 
L 124.82326 235.960571 
L 121.982388 235.960571 
L 119.141516 235.960571 
L 116.300644 235.960571 
L 113.459772 235.960571 
L 110.6189 235.960571 
L 107.778028 235.960571 
L 104.937156 235.960571 
L 102.096284 235.960571 
L 99.255412 235.960571 
L 96.41454 235.960571 
L 93.573668 235.960571 
L 90.732796 235.960571 
L 87.891924 235.960571 
L 85.051052 235.960571 
L 82.21018 235.960571 
L 79.369308 235.960571 
L 76.528436 235.960571 
L 73.687564 235.960571 
L 70.846692 235.960571 
z
" clip-path="url(#p739bf7dec8)" style="fill: #1f77b4; fill-opacity: 0.15"/>
   </g>
   <g id="matplotlib.axis_1">
    <g id="xtick_1">
     <g id="line2d_1">
      <defs>
       <path id="m38b2add5da" d="M 0 0 
L 0 3.5 
" style="stroke: #000000; stroke-width: 0.8"/>
      </defs>
      <g>
       <use xlink:href="#m38b2add5da" x="61.655635" y="388.6" style="stroke: #000000; stroke-width: 0.8"/>
      </g>
     </g>
     <g id="text_1">
      <!-- 100 -->
      <g transform="translate(52.111885 403.198437) scale(0.1 -0.1)">
       <defs>
        <path id="DejaVuSans-31" d="M 794 531 
L 1825 531 
L 1825 4091 
L 703 3866 
L 703 4441 
L 1819 4666 
L 2450 4666 
L 2450 531 
L 3481 531 
L 3481 0 
L 794 0 
L 794 531 
z
" transform="scale(0.015625)"/>
        <path id="DejaVuSans-30" d="M 2034 4250 
Q 1547 4250 1301 3770 
Q 1056 3291 1056 2328 
Q 1056 1369 1301 889 
Q 1547 409 2034 409 
Q 2525 409 2770 889 
Q 3016 1369 3016 2328 
Q 3016 3291 2770 3770 
Q 2525 4250 2034 4250 
z
M 2034 4750 
Q 2819 4750 3233 4129 
Q 3647 3509 3647 2328 
Q 3647 1150 3233 529 
Q 2819 -91 2034 -91 
Q 1250 -91 836 529 
Q 422 1150 422 2328 
Q 422 3509 836 4129 
Q 1250 4750 2034 4750 
z
" transform="scale(0.015625)"/>
       </defs>
       <use xlink:href="#DejaVuSans-31"/>
       <use xlink:href="#DejaVuSans-30" x="63.623047"/>
       <use xlink:href="#DejaVuSans-30" x="127.246094"/>
      </g>
     </g>
    </g>
    <g id="xtick_2">
     <g id="line2d_2">
      <g>
       <use xlink:href="#m38b2add5da" x="98.419861" y="388.6" style="stroke: #000000; stroke-width: 0.8"/>
      </g>
     </g>
     <g id="text_2">
      <!-- 120 -->
      <g transform="translate(88.876111 403.198437) scale(0.1 -0.1)">
       <defs>
        <path id="DejaVuSans-32" d="M 1228 531 
L 3431 531 
L 3431 0 
L 469 0 
L 469 531 
Q 828 903 1448 1529 
Q 2069 2156 2228 2338 
Q 2531 2678 2651 2914 
Q 2772 3150 2772 3378 
Q 2772 3750 2511 3984 
Q 2250 4219 1831 4219 
Q 1534 4219 1204 4116 
Q 875 4013 500 3803 
L 500 4441 
Q 881 4594 1212 4672 
Q 1544 4750 1819 4750 
Q 2544 4750 2975 4387 
Q 3406 4025 3406 3419 
Q 3406 3131 3298 2873 
Q 3191 2616 2906 2266 
Q 2828 2175 2409 1742 
Q 1991 1309 1228 531 
z
" transform="scale(0.015625)"/>
       </defs>
       <use xlink:href="#DejaVuSans-31"/>
       <use xlink:href="#DejaVuSans-32" x="63.623047"/>
       <use xlink:href="#DejaVuSans-30" x="127.246094"/>
      </g>
     </g>
    </g>
    <g id="xtick_3">
     <g id="line2d_3">
      <g>
       <use xlink:href="#m38b2add5da" x="135.184088" y="388.6" style="stroke: #000000; stroke-width: 0.8"/>
      </g>
     </g>
     <g id="text_3">
      <!-- 140 -->
      <g transform="translate(125.640338 403.198437) scale(0.1 -0.1)">
       <defs>
        <path id="DejaVuSans-34" d="M 2419 4116 
L 825 1625 
L 2419 1625 
L 2419 4116 
z
M 2253 4666 
L 3047 4666 
L 3047 1625 
L 3713 1625 
L 3713 1100 
L 3047 1100 
L 3047 0 
L 2419 0 
L 2419 1100 
L 313 1100 
L 313 1709 
L 2253 4666 
z
" transform="scale(0.015625)"/>
       </defs>
       <use xlink:href="#DejaVuSans-31"/>
       <use xlink:href="#DejaVuSans-34" x="63.623047"/>
       <use xlink:href="#DejaVuSans-30" x="127.246094"/>
      </g>
     </g>
    </g>
    <g id="xtick_4">
     <g id="line2d_4">
      <g>
       <use xlink:href="#m38b2add5da" x="171.948314" y="388.6" style="stroke: #000000; stroke-width: 0.8"/>
      </g>
     </g>
     <g id="text_4">
      <!-- 160 -->
      <g transform="translate(162.404564 403.198437) scale(0.1 -0.1)">
       <defs>
        <path id="DejaVuSans-36" d="M 2113 2584 
Q 1688 2584 1439 2293 
Q 1191 2003 1191 1497 
Q 1191 994 1439 701 
Q 1688 409 2113 409 
Q 2538 409 2786 701 
Q 3034 994 3034 1497 
Q 3034 2003 2786 2293 
Q 2538 2584 2113 2584 
z
M 3366 4563 
L 3366 3988 
Q 3128 4100 2886 4159 
Q 2644 4219 2406 4219 
Q 1781 4219 1451 3797 
Q 1122 3375 1075 2522 
Q 1259 2794 1537 2939 
Q 1816 3084 2150 3084 
Q 2853 3084 3261 2657 
Q 3669 2231 3669 1497 
Q 3669 778 3244 343 
Q 2819 -91 2113 -91 
Q 1303 -91 875 529 
Q 447 1150 447 2328 
Q 447 3434 972 4092 
Q 1497 4750 2381 4750 
Q 2619 4750 2861 4703 
Q 3103 4656 3366 4563 
z
" transform="scale(0.015625)"/>
       </defs>
       <use xlink:href="#DejaVuSans-31"/>
       <use xlink:href="#DejaVuSans-36" x="63.623047"/>
       <use xlink:href="#DejaVuSans-30" x="127.246094"/>
      </g>
     </g>
    </g>
    <g id="xtick_5">
     <g id="line2d_5">
      <g>
       <use xlink:href="#m38b2add5da" x="208.71254" y="388.6" style="stroke: #000000; stroke-width: 0.8"/>
      </g>
     </g>
     <g id="text_5">
      <!-- 180 -->
      <g transform="translate(199.16879 403.198437) scale(0.1 -0.1)">
       <defs>
        <path id="DejaVuSans-38" d="M 2034 2216 
Q 1584 2216 1326 1975 
Q 1069 1734 1069 1313 
Q 1069 891 1326 650 
Q 1584 409 2034 409 
Q 2484 409 2743 651 
Q 3003 894 3003 1313 
Q 3003 1734 2745 1975 
Q 2488 2216 2034 2216 
z
M 1403 2484 
Q 997 2584 770 2862 
Q 544 3141 544 3541 
Q 544 4100 942 4425 
Q 1341 4750 2034 4750 
Q 2731 4750 3128 4425 
Q 3525 4100 3525 3541 
Q 3525 3141 3298 2862 
Q 3072 2584 2669 2484 
Q 3125 2378 3379 2068 
Q 3634 1759 3634 1313 
Q 3634 634 3220 271 
Q 2806 -91 2034 -91 
Q 1263 -91 848 271 
Q 434 634 434 1313 
Q 434 1759 690 2068 
Q 947 2378 1403 2484 
z
M 1172 3481 
Q 1172 3119 1398 2916 
Q 1625 2713 2034 2713 
Q 2441 2713 2670 2916 
Q 2900 3119 2900 3481 
Q 2900 3844 2670 4047 
Q 2441 4250 2034 4250 
Q 1625 4250 1398 4047 
Q 1172 3844 1172 3481 
z
" transform="scale(0.015625)"/>
       </defs>
       <use xlink:href="#DejaVuSans-31"/>
       <use xlink:href="#DejaVuSans-38" x="63.623047"/>
       <use xlink:href="#DejaVuSans-30" x="127.246094"/>
      </g>
     </g>
    </g>
    <g id="xtick_6">
     <g id="line2d_6">
      <g>
       <use xlink:href="#m38b2add5da" x="245.476766" y="388.6" style="stroke: #000000; stroke-width: 0.8"/>
      </g>
     </g>
     <g id="text_6">
      <!-- 200 -->
      <g transform="translate(235.933016 403.198437) scale(0.1 -0.1)">
       <use xlink:href="#DejaVuSans-32"/>
       <use xlink:href="#DejaVuSans-30" x="63.623047"/>
       <use xlink:href="#DejaVuSans-30" x="127.246094"/>
      </g>
     </g>
    </g>
    <g id="xtick_7">
     <g id="line2d_7">
      <g>
       <use xlink:href="#m38b2add5da" x="282.240993" y="388.6" style="stroke: #000000; stroke-width: 0.8"/>
      </g>
     </g>
     <g id="text_7">
      <!-- 220 -->
      <g transform="translate(272.697243 403.198437) scale(0.1 -0.1)">
       <use xlink:href="#DejaVuSans-32"/>
       <use xlink:href="#DejaVuSans-32" x="63.623047"/>
       <use xlink:href="#DejaVuSans-30" x="127.246094"/>
      </g>
     </g>
    </g>
    <g id="xtick_8">
     <g id="line2d_8">
      <g>
       <use xlink:href="#m38b2add5da" x="319.005219" y="388.6" style="stroke: #000000; stroke-width: 0.8"/>
      </g>
     </g>
     <g id="text_8">
      <!-- 240 -->
      <g transform="translate(309.461469 403.198437) scale(0.1 -0.1)">
       <use xlink:href="#DejaVuSans-32"/>
       <use xlink:href="#DejaVuSans-34" x="63.623047"/>
       <use xlink:href="#DejaVuSans-30" x="127.246094"/>
      </g>
     </g>
    </g>
    <g id="xtick_9">
     <g id="line2d_9">
      <g>
       <use xlink:href="#m38b2add5da" x="355.769445" y="388.6" style="stroke: #000000; stroke-width: 0.8"/>
      </g>
     </g>
     <g id="text_9">
      <!-- 260 -->
      <g transform="translate(346.225695 403.198437) scale(0.1 -0.1)">
       <use xlink:href="#DejaVuSans-32"/>
       <use xlink:href="#DejaVuSans-36" x="63.623047"/>
       <use xlink:href="#DejaVuSans-30" x="127.246094"/>
      </g>
     </g>
    </g>
    <g id="text_10">
     <!-- y_true -->
     <g transform="translate(195.749545 416.598437) scale(0.1 -0.1)">
      <defs>
       <path id="DejaVuSans-79" d="M 2059 -325 
Q 1816 -950 1584 -1140 
Q 1353 -1331 966 -1331 
L 506 -1331 
L 506 -850 
L 844 -850 
Q 1081 -850 1212 -737 
Q 1344 -625 1503 -206 
L 1606 56 
L 191 3500 
L 800 3500 
L 1894 763 
L 2988 3500 
L 3597 3500 
L 2059 -325 
z
" transform="scale(0.015625)"/>
       <path id="DejaVuSans-5f" d="M 3263 -1063 
L 3263 -1509 
L -63 -1509 
L -63 -1063 
L 3263 -1063 
z
" transform="scale(0.015625)"/>
       <path id="DejaVuSans-74" d="M 1172 4494 
L 1172 3500 
L 2356 3500 
L 2356 3053 
L 1172 3053 
L 1172 1153 
Q 1172 725 1289 603 
Q 1406 481 1766 481 
L 2356 481 
L 2356 0 
L 1766 0 
Q 1100 0 847 248 
Q 594 497 594 1153 
L 594 3053 
L 172 3053 
L 172 3500 
L 594 3500 
L 594 4494 
L 1172 4494 
z
" transform="scale(0.015625)"/>
       <path id="DejaVuSans-72" d="M 2631 2963 
Q 2534 3019 2420 3045 
Q 2306 3072 2169 3072 
Q 1681 3072 1420 2755 
Q 1159 2438 1159 1844 
L 1159 0 
L 581 0 
L 581 3500 
L 1159 3500 
L 1159 2956 
Q 1341 3275 1631 3429 
Q 1922 3584 2338 3584 
Q 2397 3584 2469 3576 
Q 2541 3569 2628 3553 
L 2631 2963 
z
" transform="scale(0.015625)"/>
       <path id="DejaVuSans-75" d="M 544 1381 
L 544 3500 
L 1119 3500 
L 1119 1403 
Q 1119 906 1312 657 
Q 1506 409 1894 409 
Q 2359 409 2629 706 
Q 2900 1003 2900 1516 
L 2900 3500 
L 3475 3500 
L 3475 0 
L 2900 0 
L 2900 538 
Q 2691 219 2414 64 
Q 2138 -91 1772 -91 
Q 1169 -91 856 284 
Q 544 659 544 1381 
z
M 1991 3584 
L 1991 3584 
z
" transform="scale(0.015625)"/>
       <path id="DejaVuSans-65" d="M 3597 1894 
L 3597 1613 
L 953 1613 
Q 991 1019 1311 708 
Q 1631 397 2203 397 
Q 2534 397 2845 478 
Q 3156 559 3463 722 
L 3463 178 
Q 3153 47 2828 -22 
Q 2503 -91 2169 -91 
Q 1331 -91 842 396 
Q 353 884 353 1716 
Q 353 2575 817 3079 
Q 1281 3584 2069 3584 
Q 2775 3584 3186 3129 
Q 3597 2675 3597 1894 
z
M 3022 2063 
Q 3016 2534 2758 2815 
Q 2500 3097 2075 3097 
Q 1594 3097 1305 2825 
Q 1016 2553 972 2059 
L 3022 2063 
z
" transform="scale(0.015625)"/>
      </defs>
      <use xlink:href="#DejaVuSans-79"/>
      <use xlink:href="#DejaVuSans-5f" x="59.179688"/>
      <use xlink:href="#DejaVuSans-74" x="109.179688"/>
      <use xlink:href="#DejaVuSans-72" x="148.388672"/>
      <use xlink:href="#DejaVuSans-75" x="189.501953"/>
      <use xlink:href="#DejaVuSans-65" x="252.880859"/>
     </g>
    </g>
   </g>
   <g id="matplotlib.axis_2">
    <g id="ytick_1">
     <g id="line2d_10">
      <defs>
       <path id="m096a847987" d="M 0 0 
L -3.5 0 
" style="stroke: #000000; stroke-width: 0.8"/>
      </defs>
      <g>
       <use xlink:href="#m096a847987" x="56.784375" y="375.156802" style="stroke: #000000; stroke-width: 0.8"/>
      </g>
     </g>
     <g id="text_11">
      <!-- 163.4 -->
      <g transform="translate(21.15625 378.956021) scale(0.1 -0.1)">
       <defs>
        <path id="DejaVuSans-33" d="M 2597 2516 
Q 3050 2419 3304 2112 
Q 3559 1806 3559 1356 
Q 3559 666 3084 287 
Q 2609 -91 1734 -91 
Q 1441 -91 1130 -33 
Q 819 25 488 141 
L 488 750 
Q 750 597 1062 519 
Q 1375 441 1716 441 
Q 2309 441 2620 675 
Q 2931 909 2931 1356 
Q 2931 1769 2642 2001 
Q 2353 2234 1838 2234 
L 1294 2234 
L 1294 2753 
L 1863 2753 
Q 2328 2753 2575 2939 
Q 2822 3125 2822 3475 
Q 2822 3834 2567 4026 
Q 2313 4219 1838 4219 
Q 1578 4219 1281 4162 
Q 984 4106 628 3988 
L 628 4550 
Q 988 4650 1302 4700 
Q 1616 4750 1894 4750 
Q 2613 4750 3031 4423 
Q 3450 4097 3450 3541 
Q 3450 3153 3228 2886 
Q 3006 2619 2597 2516 
z
" transform="scale(0.015625)"/>
        <path id="DejaVuSans-2e" d="M 684 794 
L 1344 794 
L 1344 0 
L 684 0 
L 684 794 
z
" transform="scale(0.015625)"/>
       </defs>
       <use xlink:href="#DejaVuSans-31"/>
       <use xlink:href="#DejaVuSans-36" x="63.623047"/>
       <use xlink:href="#DejaVuSans-33" x="127.246094"/>
       <use xlink:href="#DejaVuSans-2e" x="190.869141"/>
       <use xlink:href="#DejaVuSans-34" x="222.65625"/>
      </g>
     </g>
    </g>
    <g id="ytick_2">
     <g id="line2d_11">
      <g>
       <use xlink:href="#m096a847987" x="56.784375" y="319.651556" style="stroke: #000000; stroke-width: 0.8"/>
      </g>
     </g>
     <g id="text_12">
      <!-- 163.6 -->
      <g transform="translate(21.15625 323.450774) scale(0.1 -0.1)">
       <use xlink:href="#DejaVuSans-31"/>
       <use xlink:href="#DejaVuSans-36" x="63.623047"/>
       <use xlink:href="#DejaVuSans-33" x="127.246094"/>
       <use xlink:href="#DejaVuSans-2e" x="190.869141"/>
       <use xlink:href="#DejaVuSans-36" x="222.65625"/>
      </g>
     </g>
    </g>
    <g id="ytick_3">
     <g id="line2d_12">
      <g>
       <use xlink:href="#m096a847987" x="56.784375" y="264.146309" style="stroke: #000000; stroke-width: 0.8"/>
      </g>
     </g>
     <g id="text_13">
      <!-- 163.8 -->
      <g transform="translate(21.15625 267.945528) scale(0.1 -0.1)">
       <use xlink:href="#DejaVuSans-31"/>
       <use xlink:href="#DejaVuSans-36" x="63.623047"/>
       <use xlink:href="#DejaVuSans-33" x="127.246094"/>
       <use xlink:href="#DejaVuSans-2e" x="190.869141"/>
       <use xlink:href="#DejaVuSans-38" x="222.65625"/>
      </g>
     </g>
    </g>
    <g id="ytick_4">
     <g id="line2d_13">
      <g>
       <use xlink:href="#m096a847987" x="56.784375" y="208.641062" style="stroke: #000000; stroke-width: 0.8"/>
      </g>
     </g>
     <g id="text_14">
      <!-- 164.0 -->
      <g transform="translate(21.15625 212.440281) scale(0.1 -0.1)">
       <use xlink:href="#DejaVuSans-31"/>
       <use xlink:href="#DejaVuSans-36" x="63.623047"/>
       <use xlink:href="#DejaVuSans-34" x="127.246094"/>
       <use xlink:href="#DejaVuSans-2e" x="190.869141"/>
       <use xlink:href="#DejaVuSans-30" x="222.65625"/>
      </g>
     </g>
    </g>
    <g id="ytick_5">
     <g id="line2d_14">
      <g>
       <use xlink:href="#m096a847987" x="56.784375" y="153.135815" style="stroke: #000000; stroke-width: 0.8"/>
      </g>
     </g>
     <g id="text_15">
      <!-- 164.2 -->
      <g transform="translate(21.15625 156.935034) scale(0.1 -0.1)">
       <use xlink:href="#DejaVuSans-31"/>
       <use xlink:href="#DejaVuSans-36" x="63.623047"/>
       <use xlink:href="#DejaVuSans-34" x="127.246094"/>
       <use xlink:href="#DejaVuSans-2e" x="190.869141"/>
       <use xlink:href="#DejaVuSans-32" x="222.65625"/>
      </g>
     </g>
    </g>
    <g id="ytick_6">
     <g id="line2d_15">
      <g>
       <use xlink:href="#m096a847987" x="56.784375" y="97.630569" style="stroke: #000000; stroke-width: 0.8"/>
      </g>
     </g>
     <g id="text_16">
      <!-- 164.4 -->
      <g transform="translate(21.15625 101.429787) scale(0.1 -0.1)">
       <use xlink:href="#DejaVuSans-31"/>
       <use xlink:href="#DejaVuSans-36" x="63.623047"/>
       <use xlink:href="#DejaVuSans-34" x="127.246094"/>
       <use xlink:href="#DejaVuSans-2e" x="190.869141"/>
       <use xlink:href="#DejaVuSans-34" x="222.65625"/>
      </g>
     </g>
    </g>
    <g id="text_17">
     <!-- y_pred -->
     <g transform="translate(14.798438 252.787915) rotate(-90) scale(0.1 -0.1)">
      <defs>
       <path id="DejaVuSans-70" d="M 1159 525 
L 1159 -1331 
L 581 -1331 
L 581 3500 
L 1159 3500 
L 1159 2969 
Q 1341 3281 1617 3432 
Q 1894 3584 2278 3584 
Q 2916 3584 3314 3078 
Q 3713 2572 3713 1747 
Q 3713 922 3314 415 
Q 2916 -91 2278 -91 
Q 1894 -91 1617 61 
Q 1341 213 1159 525 
z
M 3116 1747 
Q 3116 2381 2855 2742 
Q 2594 3103 2138 3103 
Q 1681 3103 1420 2742 
Q 1159 2381 1159 1747 
Q 1159 1113 1420 752 
Q 1681 391 2138 391 
Q 2594 391 2855 752 
Q 3116 1113 3116 1747 
z
" transform="scale(0.015625)"/>
       <path id="DejaVuSans-64" d="M 2906 2969 
L 2906 4863 
L 3481 4863 
L 3481 0 
L 2906 0 
L 2906 525 
Q 2725 213 2448 61 
Q 2172 -91 1784 -91 
Q 1150 -91 751 415 
Q 353 922 353 1747 
Q 353 2572 751 3078 
Q 1150 3584 1784 3584 
Q 2172 3584 2448 3432 
Q 2725 3281 2906 2969 
z
M 947 1747 
Q 947 1113 1208 752 
Q 1469 391 1925 391 
Q 2381 391 2643 752 
Q 2906 1113 2906 1747 
Q 2906 2381 2643 2742 
Q 2381 3103 1925 3103 
Q 1469 3103 1208 2742 
Q 947 2381 947 1747 
z
" transform="scale(0.015625)"/>
      </defs>
      <use xlink:href="#DejaVuSans-79"/>
      <use xlink:href="#DejaVuSans-5f" x="59.179688"/>
      <use xlink:href="#DejaVuSans-70" x="109.179688"/>
      <use xlink:href="#DejaVuSans-72" x="172.65625"/>
      <use xlink:href="#DejaVuSans-65" x="211.519531"/>
      <use xlink:href="#DejaVuSans-64" x="273.042969"/>
     </g>
    </g>
   </g>
   <g id="line2d_16">
    <path d="M 70.846692 235.960571 
L 73.687564 235.960571 
L 76.528436 235.960571 
L 79.369308 235.960571 
L 82.21018 235.960571 
L 85.051052 235.960571 
L 87.891924 235.960571 
L 90.732796 235.960571 
L 93.573668 235.960571 
L 96.41454 235.960571 
L 99.255412 235.960571 
L 102.096284 235.960571 
L 104.937156 235.960571 
L 107.778028 235.960571 
L 110.6189 235.960571 
L 113.459772 235.960571 
L 116.300644 235.960571 
L 119.141516 235.960571 
L 121.982388 235.960571 
L 124.82326 235.960571 
L 127.664132 235.960571 
L 130.505004 235.960571 
L 133.345876 235.960571 
L 136.186748 235.960571 
L 139.02762 235.960571 
L 141.868492 235.960571 
L 144.709364 235.960571 
L 147.550236 235.960571 
L 150.391108 235.960571 
L 153.23198 235.960571 
L 156.072853 235.960571 
L 158.913725 235.960571 
L 161.754597 235.960571 
L 164.595469 235.960571 
L 167.436341 235.960571 
L 170.277213 235.960571 
L 173.118085 235.960571 
L 175.958957 235.960571 
L 178.799829 235.960571 
L 181.640701 235.960571 
L 184.481573 235.960571 
L 187.322445 235.960571 
L 190.163317 235.960571 
L 193.004189 235.960571 
L 195.845061 235.960571 
L 198.685933 235.960571 
L 201.526805 235.960571 
L 204.367677 235.960571 
L 207.208549 235.960571 
L 210.049421 235.960571 
L 212.890293 235.960571 
L 215.731165 235.960571 
L 218.572037 235.960571 
L 221.412909 235.960571 
L 224.253781 235.960571 
L 227.094653 235.960571 
L 229.935525 235.960571 
L 232.776397 235.960571 
L 235.617269 235.960571 
L 238.458141 235.960571 
L 241.299013 235.960571 
L 244.139886 235.960571 
L 246.980758 235.960571 
L 249.82163 235.960571 
L 252.662502 235.960571 
L 255.503374 235.960571 
L 258.344246 235.960571 
L 261.185118 235.960571 
L 264.02599 235.960571 
L 266.866862 235.960571 
L 269.707734 235.960571 
L 272.548606 235.960571 
L 275.389478 235.960571 
L 278.23035 235.960571 
L 281.071222 235.960571 
L 283.912094 235.960571 
L 286.752966 235.960571 
L 289.593838 235.960571 
L 292.43471 235.960571 
L 295.275582 235.960571 
L 298.116454 235.960571 
L 300.957326 235.960571 
L 303.798198 235.960571 
L 306.63907 235.960571 
L 309.479942 235.960571 
L 312.320814 235.960571 
L 315.161686 235.960571 
L 318.002558 235.960571 
L 320.84343 235.960571 
L 323.684302 235.960571 
L 326.525174 235.960571 
L 329.366046 235.960571 
L 332.206919 235.960571 
L 335.047791 235.960571 
L 337.888663 235.960571 
L 340.729535 235.960571 
L 343.570407 235.960571 
L 346.411279 235.960571 
L 349.252151 235.960571 
L 352.093023 235.960571 
" clip-path="url(#p739bf7dec8)" style="fill: none; stroke: #1f77b4; stroke-width: 2.25; stroke-linecap: square"/>
   </g>
   <g id="patch_3">
    <path d="M 56.784375 388.6 
L 56.784375 83.321143 
" style="fill: none; stroke: #000000; stroke-width: 0.8; stroke-linejoin: miter; stroke-linecap: square"/>
   </g>
   <g id="patch_4">
    <path d="M 56.784375 388.6 
L 366.155339 388.6 
" style="fill: none; stroke: #000000; stroke-width: 0.8; stroke-linejoin: miter; stroke-linecap: square"/>
   </g>
  </g>
  <g id="axes_2">
   <g id="patch_5">
    <path d="M 56.784375 72.794286 
L 366.155339 72.794286 
L 366.155339 20.16 
L 56.784375 20.16 
z
" style="fill: #ffffff"/>
   </g>
   <g id="patch_6">
    <path d="M 70.846692 72.794286 
L 106.002483 72.794286 
L 106.002483 52.153389 
L 70.846692 52.153389 
z
" clip-path="url(#pdabcdbe924)" style="fill: #1f77b4; fill-opacity: 0.5; stroke: #000000; stroke-linejoin: miter"/>
   </g>
   <g id="patch_7">
    <path d="M 106.002483 72.794286 
L 141.158274 72.794286 
L 141.158274 58.050788 
L 106.002483 58.050788 
z
" clip-path="url(#pdabcdbe924)" style="fill: #1f77b4; fill-opacity: 0.5; stroke: #000000; stroke-linejoin: miter"/>
   </g>
   <g id="patch_8">
    <path d="M 141.158274 72.794286 
L 176.314066 72.794286 
L 176.314066 40.358591 
L 141.158274 40.358591 
z
" clip-path="url(#pdabcdbe924)" style="fill: #1f77b4; fill-opacity: 0.5; stroke: #000000; stroke-linejoin: miter"/>
   </g>
   <g id="patch_9">
    <path d="M 176.314066 72.794286 
L 211.469857 72.794286 
L 211.469857 34.461192 
L 176.314066 34.461192 
z
" clip-path="url(#pdabcdbe924)" style="fill: #1f77b4; fill-opacity: 0.5; stroke: #000000; stroke-linejoin: miter"/>
   </g>
   <g id="patch_10">
    <path d="M 211.469857 72.794286 
L 246.625649 72.794286 
L 246.625649 28.563794 
L 211.469857 28.563794 
z
" clip-path="url(#pdabcdbe924)" style="fill: #1f77b4; fill-opacity: 0.5; stroke: #000000; stroke-linejoin: miter"/>
   </g>
   <g id="patch_11">
    <path d="M 246.625649 72.794286 
L 281.78144 72.794286 
L 281.78144 22.666395 
L 246.625649 22.666395 
z
" clip-path="url(#pdabcdbe924)" style="fill: #1f77b4; fill-opacity: 0.5; stroke: #000000; stroke-linejoin: miter"/>
   </g>
   <g id="patch_12">
    <path d="M 281.78144 72.794286 
L 316.937231 72.794286 
L 316.937231 31.512493 
L 281.78144 31.512493 
z
" clip-path="url(#pdabcdbe924)" style="fill: #1f77b4; fill-opacity: 0.5; stroke: #000000; stroke-linejoin: miter"/>
   </g>
   <g id="patch_13">
    <path d="M 316.937231 72.794286 
L 352.093023 72.794286 
L 352.093023 40.358591 
L 316.937231 40.358591 
z
" clip-path="url(#pdabcdbe924)" style="fill: #1f77b4; fill-opacity: 0.5; stroke: #000000; stroke-linejoin: miter"/>
   </g>
   <g id="matplotlib.axis_3">
    <g id="xtick_10">
     <g id="line2d_17">
      <g>
       <use xlink:href="#m38b2add5da" x="61.655635" y="72.794286" style="stroke: #000000; stroke-width: 0.8"/>
      </g>
     </g>
    </g>
    <g id="xtick_11">
     <g id="line2d_18">
      <g>
       <use xlink:href="#m38b2add5da" x="98.419861" y="72.794286" style="stroke: #000000; stroke-width: 0.8"/>
      </g>
     </g>
    </g>
    <g id="xtick_12">
     <g id="line2d_19">
      <g>
       <use xlink:href="#m38b2add5da" x="135.184088" y="72.794286" style="stroke: #000000; stroke-width: 0.8"/>
      </g>
     </g>
    </g>
    <g id="xtick_13">
     <g id="line2d_20">
      <g>
       <use xlink:href="#m38b2add5da" x="171.948314" y="72.794286" style="stroke: #000000; stroke-width: 0.8"/>
      </g>
     </g>
    </g>
    <g id="xtick_14">
     <g id="line2d_21">
      <g>
       <use xlink:href="#m38b2add5da" x="208.71254" y="72.794286" style="stroke: #000000; stroke-width: 0.8"/>
      </g>
     </g>
    </g>
    <g id="xtick_15">
     <g id="line2d_22">
      <g>
       <use xlink:href="#m38b2add5da" x="245.476766" y="72.794286" style="stroke: #000000; stroke-width: 0.8"/>
      </g>
     </g>
    </g>
    <g id="xtick_16">
     <g id="line2d_23">
      <g>
       <use xlink:href="#m38b2add5da" x="282.240993" y="72.794286" style="stroke: #000000; stroke-width: 0.8"/>
      </g>
     </g>
    </g>
    <g id="xtick_17">
     <g id="line2d_24">
      <g>
       <use xlink:href="#m38b2add5da" x="319.005219" y="72.794286" style="stroke: #000000; stroke-width: 0.8"/>
      </g>
     </g>
    </g>
    <g id="xtick_18">
     <g id="line2d_25">
      <g>
       <use xlink:href="#m38b2add5da" x="355.769445" y="72.794286" style="stroke: #000000; stroke-width: 0.8"/>
      </g>
     </g>
    </g>
   </g>
   <g id="matplotlib.axis_4">
    <g id="ytick_7"/>
    <g id="ytick_8"/>
   </g>
   <g id="line2d_26">
    <path d="M 70.846692 63.055589 
L 82.153077 60.540591 
L 93.459462 58.281861 
L 113.245636 54.441416 
L 121.725425 52.51273 
L 128.791916 50.687951 
L 137.271704 48.248972 
L 149.991388 44.287162 
L 159.884475 41.268777 
L 166.950966 39.335282 
L 172.604158 37.997631 
L 178.257351 36.879302 
L 183.910543 35.985583 
L 189.563736 35.293942 
L 198.043525 34.522851 
L 213.589804 33.208131 
L 220.656295 32.372845 
L 227.722786 31.332946 
L 253.162152 27.317551 
L 258.815345 26.794003 
L 264.468538 26.524584 
L 270.12173 26.534551 
L 275.774923 26.835622 
L 281.428115 27.431785 
L 287.081308 28.324888 
L 291.321202 29.191423 
L 295.561097 30.228819 
L 299.800991 31.439195 
L 305.454184 33.323796 
L 311.107376 35.513658 
L 316.760569 37.992534 
L 322.413762 40.728226 
L 329.480252 44.432096 
L 340.786638 50.694738 
L 350.679725 56.0704 
L 352.093023 56.803428 
L 352.093023 56.803428 
" clip-path="url(#pdabcdbe924)" style="fill: none; stroke: #1f77b4; stroke-width: 1.5; stroke-linecap: square"/>
   </g>
   <g id="patch_14">
    <path d="M 56.784375 72.794286 
L 366.155339 72.794286 
" style="fill: none; stroke: #000000; stroke-width: 0.8; stroke-linejoin: miter; stroke-linecap: square"/>
   </g>
  </g>
  <g id="axes_3">
   <g id="patch_15">
    <path d="M 376.823304 388.6 
L 430.163125 388.6 
L 430.163125 83.321143 
L 376.823304 83.321143 
z
" style="fill: #ffffff"/>
   </g>
   <g id="patch_16">
    <path d="M 376.823304 374.723688 
L 427.623134 374.723688 
L 427.623134 97.197455 
L 376.823304 97.197455 
z
" clip-path="url(#pd31549b38c)" style="fill: #1f77b4; fill-opacity: 0.5; stroke: #000000; stroke-linejoin: miter"/>
   </g>
   <g id="matplotlib.axis_5">
    <g id="xtick_19"/>
    <g id="xtick_20"/>
   </g>
   <g id="matplotlib.axis_6">
    <g id="ytick_9">
     <g id="line2d_27">
      <g>
       <use xlink:href="#m096a847987" x="376.823304" y="375.156802" style="stroke: #000000; stroke-width: 0.8"/>
      </g>
     </g>
    </g>
    <g id="ytick_10">
     <g id="line2d_28">
      <g>
       <use xlink:href="#m096a847987" x="376.823304" y="319.651556" style="stroke: #000000; stroke-width: 0.8"/>
      </g>
     </g>
    </g>
    <g id="ytick_11">
     <g id="line2d_29">
      <g>
       <use xlink:href="#m096a847987" x="376.823304" y="264.146309" style="stroke: #000000; stroke-width: 0.8"/>
      </g>
     </g>
    </g>
    <g id="ytick_12">
     <g id="line2d_30">
      <g>
       <use xlink:href="#m096a847987" x="376.823304" y="208.641062" style="stroke: #000000; stroke-width: 0.8"/>
      </g>
     </g>
    </g>
    <g id="ytick_13">
     <g id="line2d_31">
      <g>
       <use xlink:href="#m096a847987" x="376.823304" y="153.135815" style="stroke: #000000; stroke-width: 0.8"/>
      </g>
     </g>
    </g>
    <g id="ytick_14">
     <g id="line2d_32">
      <g>
       <use xlink:href="#m096a847987" x="376.823304" y="97.630569" style="stroke: #000000; stroke-width: 0.8"/>
      </g>
     </g>
    </g>
   </g>
   <g id="patch_17">
    <path d="M 376.823304 388.6 
L 376.823304 83.321143 
" style="fill: none; stroke: #000000; stroke-width: 0.8; stroke-linejoin: miter; stroke-linecap: square"/>
   </g>
  </g>
  <g id="text_18">
   <!-- IST_intelligence_total vs Dummy prediction -->
   <g transform="translate(95.03125 16.318125) scale(0.12 -0.12)">
    <defs>
     <path id="DejaVuSans-49" d="M 628 4666 
L 1259 4666 
L 1259 0 
L 628 0 
L 628 4666 
z
" transform="scale(0.015625)"/>
     <path id="DejaVuSans-53" d="M 3425 4513 
L 3425 3897 
Q 3066 4069 2747 4153 
Q 2428 4238 2131 4238 
Q 1616 4238 1336 4038 
Q 1056 3838 1056 3469 
Q 1056 3159 1242 3001 
Q 1428 2844 1947 2747 
L 2328 2669 
Q 3034 2534 3370 2195 
Q 3706 1856 3706 1288 
Q 3706 609 3251 259 
Q 2797 -91 1919 -91 
Q 1588 -91 1214 -16 
Q 841 59 441 206 
L 441 856 
Q 825 641 1194 531 
Q 1563 422 1919 422 
Q 2459 422 2753 634 
Q 3047 847 3047 1241 
Q 3047 1584 2836 1778 
Q 2625 1972 2144 2069 
L 1759 2144 
Q 1053 2284 737 2584 
Q 422 2884 422 3419 
Q 422 4038 858 4394 
Q 1294 4750 2059 4750 
Q 2388 4750 2728 4690 
Q 3069 4631 3425 4513 
z
" transform="scale(0.015625)"/>
     <path id="DejaVuSans-54" d="M -19 4666 
L 3928 4666 
L 3928 4134 
L 2272 4134 
L 2272 0 
L 1638 0 
L 1638 4134 
L -19 4134 
L -19 4666 
z
" transform="scale(0.015625)"/>
     <path id="DejaVuSans-69" d="M 603 3500 
L 1178 3500 
L 1178 0 
L 603 0 
L 603 3500 
z
M 603 4863 
L 1178 4863 
L 1178 4134 
L 603 4134 
L 603 4863 
z
" transform="scale(0.015625)"/>
     <path id="DejaVuSans-6e" d="M 3513 2113 
L 3513 0 
L 2938 0 
L 2938 2094 
Q 2938 2591 2744 2837 
Q 2550 3084 2163 3084 
Q 1697 3084 1428 2787 
Q 1159 2491 1159 1978 
L 1159 0 
L 581 0 
L 581 3500 
L 1159 3500 
L 1159 2956 
Q 1366 3272 1645 3428 
Q 1925 3584 2291 3584 
Q 2894 3584 3203 3211 
Q 3513 2838 3513 2113 
z
" transform="scale(0.015625)"/>
     <path id="DejaVuSans-6c" d="M 603 4863 
L 1178 4863 
L 1178 0 
L 603 0 
L 603 4863 
z
" transform="scale(0.015625)"/>
     <path id="DejaVuSans-67" d="M 2906 1791 
Q 2906 2416 2648 2759 
Q 2391 3103 1925 3103 
Q 1463 3103 1205 2759 
Q 947 2416 947 1791 
Q 947 1169 1205 825 
Q 1463 481 1925 481 
Q 2391 481 2648 825 
Q 2906 1169 2906 1791 
z
M 3481 434 
Q 3481 -459 3084 -895 
Q 2688 -1331 1869 -1331 
Q 1566 -1331 1297 -1286 
Q 1028 -1241 775 -1147 
L 775 -588 
Q 1028 -725 1275 -790 
Q 1522 -856 1778 -856 
Q 2344 -856 2625 -561 
Q 2906 -266 2906 331 
L 2906 616 
Q 2728 306 2450 153 
Q 2172 0 1784 0 
Q 1141 0 747 490 
Q 353 981 353 1791 
Q 353 2603 747 3093 
Q 1141 3584 1784 3584 
Q 2172 3584 2450 3431 
Q 2728 3278 2906 2969 
L 2906 3500 
L 3481 3500 
L 3481 434 
z
" transform="scale(0.015625)"/>
     <path id="DejaVuSans-63" d="M 3122 3366 
L 3122 2828 
Q 2878 2963 2633 3030 
Q 2388 3097 2138 3097 
Q 1578 3097 1268 2742 
Q 959 2388 959 1747 
Q 959 1106 1268 751 
Q 1578 397 2138 397 
Q 2388 397 2633 464 
Q 2878 531 3122 666 
L 3122 134 
Q 2881 22 2623 -34 
Q 2366 -91 2075 -91 
Q 1284 -91 818 406 
Q 353 903 353 1747 
Q 353 2603 823 3093 
Q 1294 3584 2113 3584 
Q 2378 3584 2631 3529 
Q 2884 3475 3122 3366 
z
" transform="scale(0.015625)"/>
     <path id="DejaVuSans-6f" d="M 1959 3097 
Q 1497 3097 1228 2736 
Q 959 2375 959 1747 
Q 959 1119 1226 758 
Q 1494 397 1959 397 
Q 2419 397 2687 759 
Q 2956 1122 2956 1747 
Q 2956 2369 2687 2733 
Q 2419 3097 1959 3097 
z
M 1959 3584 
Q 2709 3584 3137 3096 
Q 3566 2609 3566 1747 
Q 3566 888 3137 398 
Q 2709 -91 1959 -91 
Q 1206 -91 779 398 
Q 353 888 353 1747 
Q 353 2609 779 3096 
Q 1206 3584 1959 3584 
z
" transform="scale(0.015625)"/>
     <path id="DejaVuSans-61" d="M 2194 1759 
Q 1497 1759 1228 1600 
Q 959 1441 959 1056 
Q 959 750 1161 570 
Q 1363 391 1709 391 
Q 2188 391 2477 730 
Q 2766 1069 2766 1631 
L 2766 1759 
L 2194 1759 
z
M 3341 1997 
L 3341 0 
L 2766 0 
L 2766 531 
Q 2569 213 2275 61 
Q 1981 -91 1556 -91 
Q 1019 -91 701 211 
Q 384 513 384 1019 
Q 384 1609 779 1909 
Q 1175 2209 1959 2209 
L 2766 2209 
L 2766 2266 
Q 2766 2663 2505 2880 
Q 2244 3097 1772 3097 
Q 1472 3097 1187 3025 
Q 903 2953 641 2809 
L 641 3341 
Q 956 3463 1253 3523 
Q 1550 3584 1831 3584 
Q 2591 3584 2966 3190 
Q 3341 2797 3341 1997 
z
" transform="scale(0.015625)"/>
     <path id="DejaVuSans-20" transform="scale(0.015625)"/>
     <path id="DejaVuSans-76" d="M 191 3500 
L 800 3500 
L 1894 563 
L 2988 3500 
L 3597 3500 
L 2284 0 
L 1503 0 
L 191 3500 
z
" transform="scale(0.015625)"/>
     <path id="DejaVuSans-73" d="M 2834 3397 
L 2834 2853 
Q 2591 2978 2328 3040 
Q 2066 3103 1784 3103 
Q 1356 3103 1142 2972 
Q 928 2841 928 2578 
Q 928 2378 1081 2264 
Q 1234 2150 1697 2047 
L 1894 2003 
Q 2506 1872 2764 1633 
Q 3022 1394 3022 966 
Q 3022 478 2636 193 
Q 2250 -91 1575 -91 
Q 1294 -91 989 -36 
Q 684 19 347 128 
L 347 722 
Q 666 556 975 473 
Q 1284 391 1588 391 
Q 1994 391 2212 530 
Q 2431 669 2431 922 
Q 2431 1156 2273 1281 
Q 2116 1406 1581 1522 
L 1381 1569 
Q 847 1681 609 1914 
Q 372 2147 372 2553 
Q 372 3047 722 3315 
Q 1072 3584 1716 3584 
Q 2034 3584 2315 3537 
Q 2597 3491 2834 3397 
z
" transform="scale(0.015625)"/>
     <path id="DejaVuSans-44" d="M 1259 4147 
L 1259 519 
L 2022 519 
Q 2988 519 3436 956 
Q 3884 1394 3884 2338 
Q 3884 3275 3436 3711 
Q 2988 4147 2022 4147 
L 1259 4147 
z
M 628 4666 
L 1925 4666 
Q 3281 4666 3915 4102 
Q 4550 3538 4550 2338 
Q 4550 1131 3912 565 
Q 3275 0 1925 0 
L 628 0 
L 628 4666 
z
" transform="scale(0.015625)"/>
     <path id="DejaVuSans-6d" d="M 3328 2828 
Q 3544 3216 3844 3400 
Q 4144 3584 4550 3584 
Q 5097 3584 5394 3201 
Q 5691 2819 5691 2113 
L 5691 0 
L 5113 0 
L 5113 2094 
Q 5113 2597 4934 2840 
Q 4756 3084 4391 3084 
Q 3944 3084 3684 2787 
Q 3425 2491 3425 1978 
L 3425 0 
L 2847 0 
L 2847 2094 
Q 2847 2600 2669 2842 
Q 2491 3084 2119 3084 
Q 1678 3084 1418 2786 
Q 1159 2488 1159 1978 
L 1159 0 
L 581 0 
L 581 3500 
L 1159 3500 
L 1159 2956 
Q 1356 3278 1631 3431 
Q 1906 3584 2284 3584 
Q 2666 3584 2933 3390 
Q 3200 3197 3328 2828 
z
" transform="scale(0.015625)"/>
    </defs>
    <use xlink:href="#DejaVuSans-49"/>
    <use xlink:href="#DejaVuSans-53" x="29.492188"/>
    <use xlink:href="#DejaVuSans-54" x="92.96875"/>
    <use xlink:href="#DejaVuSans-5f" x="154.052734"/>
    <use xlink:href="#DejaVuSans-69" x="204.052734"/>
    <use xlink:href="#DejaVuSans-6e" x="231.835938"/>
    <use xlink:href="#DejaVuSans-74" x="295.214844"/>
    <use xlink:href="#DejaVuSans-65" x="334.423828"/>
    <use xlink:href="#DejaVuSans-6c" x="395.947266"/>
    <use xlink:href="#DejaVuSans-6c" x="423.730469"/>
    <use xlink:href="#DejaVuSans-69" x="451.513672"/>
    <use xlink:href="#DejaVuSans-67" x="479.296875"/>
    <use xlink:href="#DejaVuSans-65" x="542.773438"/>
    <use xlink:href="#DejaVuSans-6e" x="604.296875"/>
    <use xlink:href="#DejaVuSans-63" x="667.675781"/>
    <use xlink:href="#DejaVuSans-65" x="722.65625"/>
    <use xlink:href="#DejaVuSans-5f" x="784.179688"/>
    <use xlink:href="#DejaVuSans-74" x="834.179688"/>
    <use xlink:href="#DejaVuSans-6f" x="873.388672"/>
    <use xlink:href="#DejaVuSans-74" x="934.570312"/>
    <use xlink:href="#DejaVuSans-61" x="973.779297"/>
    <use xlink:href="#DejaVuSans-6c" x="1035.058594"/>
    <use xlink:href="#DejaVuSans-20" x="1062.841797"/>
    <use xlink:href="#DejaVuSans-76" x="1094.628906"/>
    <use xlink:href="#DejaVuSans-73" x="1153.808594"/>
    <use xlink:href="#DejaVuSans-20" x="1205.908203"/>
    <use xlink:href="#DejaVuSans-44" x="1237.695312"/>
    <use xlink:href="#DejaVuSans-75" x="1314.697266"/>
    <use xlink:href="#DejaVuSans-6d" x="1378.076172"/>
    <use xlink:href="#DejaVuSans-6d" x="1475.488281"/>
    <use xlink:href="#DejaVuSans-79" x="1572.900391"/>
    <use xlink:href="#DejaVuSans-20" x="1632.080078"/>
    <use xlink:href="#DejaVuSans-70" x="1663.867188"/>
    <use xlink:href="#DejaVuSans-72" x="1727.34375"/>
    <use xlink:href="#DejaVuSans-65" x="1766.207031"/>
    <use xlink:href="#DejaVuSans-64" x="1827.730469"/>
    <use xlink:href="#DejaVuSans-69" x="1891.207031"/>
    <use xlink:href="#DejaVuSans-63" x="1918.990234"/>
    <use xlink:href="#DejaVuSans-74" x="1973.970703"/>
    <use xlink:href="#DejaVuSans-69" x="2013.179688"/>
    <use xlink:href="#DejaVuSans-6f" x="2040.962891"/>
    <use xlink:href="#DejaVuSans-6e" x="2102.144531"/>
   </g>
  </g>
 </g>
 <defs>
  <clipPath id="p739bf7dec8">
   <rect x="56.784375" y="83.321143" width="309.370964" height="305.278857"/>
  </clipPath>
  <clipPath id="pdabcdbe924">
   <rect x="56.784375" y="20.16" width="309.370964" height="52.634286"/>
  </clipPath>
  <clipPath id="pd31549b38c">
   <rect x="376.823304" y="83.321143" width="53.339821" height="305.278857"/>
  </clipPath>
 </defs>
</svg>
