<?xml version="1.0" encoding="utf-8" standalone="no"?>
<!DOCTYPE svg PUBLIC "-//W3C//DTD SVG 1.1//EN"
  "http://www.w3.org/Graphics/SVG/1.1/DTD/svg11.dtd">
<svg xmlns:xlink="http://www.w3.org/1999/xlink" width="427.8225pt" height="426.15625pt" viewBox="0 0 427.8225 426.15625" xmlns="http://www.w3.org/2000/svg" version="1.1">
 <metadata>
  <rdf:RDF xmlns:dc="http://purl.org/dc/elements/1.1/" xmlns:cc="http://creativecommons.org/ns#" xmlns:rdf="http://www.w3.org/1999/02/22-rdf-syntax-ns#">
   <cc:Work>
    <dc:type rdf:resource="http://purl.org/dc/dcmitype/StillImage"/>
    <dc:date>2024-06-08T17:43:28.126475</dc:date>
    <dc:format>image/svg+xml</dc:format>
    <dc:creator>
     <cc:Agent>
      <dc:title>Matplotlib v3.8.4, https://matplotlib.org/</dc:title>
     </cc:Agent>
    </dc:creator>
   </cc:Work>
  </rdf:RDF>
 </metadata>
 <defs>
  <style type="text/css">*{stroke-linejoin: round; stroke-linecap: butt}</style>
 </defs>
 <g id="figure_1">
  <g id="patch_1">
   <path d="M 0 426.15625 
L 427.8225 426.15625 
L 427.8225 0 
L 0 0 
z
" style="fill: #ffffff"/>
  </g>
  <g id="axes_1">
   <g id="patch_2">
    <path d="M 47.24375 388.6 
L 356.614714 388.6 
L 356.614714 83.321143 
L 47.24375 83.321143 
z
" style="fill: #ffffff"/>
   </g>
   <g id="PathCollection_1">
    <defs>
     <path id="m0c545a0673" d="M 0 3 
C 0.795609 3 1.55874 2.683901 2.12132 2.12132 
C 2.683901 1.55874 3 0.795609 3 0 
C 3 -0.795609 2.683901 -1.55874 2.12132 -2.12132 
C 1.55874 -2.683901 0.795609 -3 0 -3 
C -0.795609 -3 -1.55874 -2.683901 -2.12132 -2.12132 
C -2.683901 -1.55874 -3 -0.795609 -3 0 
C -3 0.795609 -2.683901 1.55874 -2.12132 2.12132 
C -1.55874 2.683901 -0.795609 3 0 3 
z
" style="stroke: #1f77b4; stroke-opacity: 0.8"/>
    </defs>
    <g clip-path="url(#p418c4fc7b1)">
     <use xlink:href="#m0c545a0673" x="229.768336" y="234.260343" style="fill: #1f77b4; fill-opacity: 0.8; stroke: #1f77b4; stroke-opacity: 0.8"/>
     <use xlink:href="#m0c545a0673" x="232.623629" y="157.042835" style="fill: #1f77b4; fill-opacity: 0.8; stroke: #1f77b4; stroke-opacity: 0.8"/>
     <use xlink:href="#m0c545a0673" x="165.52425" y="146.350995" style="fill: #1f77b4; fill-opacity: 0.8; stroke: #1f77b4; stroke-opacity: 0.8"/>
     <use xlink:href="#m0c545a0673" x="138.39897" y="186.05157" style="fill: #1f77b4; fill-opacity: 0.8; stroke: #1f77b4; stroke-opacity: 0.8"/>
     <use xlink:href="#m0c545a0673" x="206.925994" y="273.815917" style="fill: #1f77b4; fill-opacity: 0.8; stroke: #1f77b4; stroke-opacity: 0.8"/>
     <use xlink:href="#m0c545a0673" x="152.675433" y="104.039403" style="fill: #1f77b4; fill-opacity: 0.8; stroke: #1f77b4; stroke-opacity: 0.8"/>
     <use xlink:href="#m0c545a0673" x="176.945421" y="294.223675" style="fill: #1f77b4; fill-opacity: 0.8; stroke: #1f77b4; stroke-opacity: 0.8"/>
     <use xlink:href="#m0c545a0673" x="174.090128" y="264.696231" style="fill: #1f77b4; fill-opacity: 0.8; stroke: #1f77b4; stroke-opacity: 0.8"/>
     <use xlink:href="#m0c545a0673" x="178.373067" y="269.179189" style="fill: #1f77b4; fill-opacity: 0.8; stroke: #1f77b4; stroke-opacity: 0.8"/>
     <use xlink:href="#m0c545a0673" x="135.543677" y="198.991212" style="fill: #1f77b4; fill-opacity: 0.8; stroke: #1f77b4; stroke-opacity: 0.8"/>
     <use xlink:href="#m0c545a0673" x="131.260738" y="237.89767" style="fill: #1f77b4; fill-opacity: 0.8; stroke: #1f77b4; stroke-opacity: 0.8"/>
     <use xlink:href="#m0c545a0673" x="262.604202" y="119.328984" style="fill: #1f77b4; fill-opacity: 0.8; stroke: #1f77b4; stroke-opacity: 0.8"/>
     <use xlink:href="#m0c545a0673" x="241.189507" y="336.084328" style="fill: #1f77b4; fill-opacity: 0.8; stroke: #1f77b4; stroke-opacity: 0.8"/>
     <use xlink:href="#m0c545a0673" x="175.517775" y="206.442396" style="fill: #1f77b4; fill-opacity: 0.8; stroke: #1f77b4; stroke-opacity: 0.8"/>
     <use xlink:href="#m0c545a0673" x="264.031848" y="137.661046" style="fill: #1f77b4; fill-opacity: 0.8; stroke: #1f77b4; stroke-opacity: 0.8"/>
     <use xlink:href="#m0c545a0673" x="209.781287" y="135.468047" style="fill: #1f77b4; fill-opacity: 0.8; stroke: #1f77b4; stroke-opacity: 0.8"/>
     <use xlink:href="#m0c545a0673" x="342.552398" y="178.203894" style="fill: #1f77b4; fill-opacity: 0.8; stroke: #1f77b4; stroke-opacity: 0.8"/>
     <use xlink:href="#m0c545a0673" x="198.360116" y="200.392564" style="fill: #1f77b4; fill-opacity: 0.8; stroke: #1f77b4; stroke-opacity: 0.8"/>
     <use xlink:href="#m0c545a0673" x="74.154884" y="186.907794" style="fill: #1f77b4; fill-opacity: 0.8; stroke: #1f77b4; stroke-opacity: 0.8"/>
     <use xlink:href="#m0c545a0673" x="202.643055" y="202.593106" style="fill: #1f77b4; fill-opacity: 0.8; stroke: #1f77b4; stroke-opacity: 0.8"/>
     <use xlink:href="#m0c545a0673" x="184.083653" y="288.349728" style="fill: #1f77b4; fill-opacity: 0.8; stroke: #1f77b4; stroke-opacity: 0.8"/>
     <use xlink:href="#m0c545a0673" x="164.096604" y="168.857536" style="fill: #1f77b4; fill-opacity: 0.8; stroke: #1f77b4; stroke-opacity: 0.8"/>
     <use xlink:href="#m0c545a0673" x="212.63658" y="136.437284" style="fill: #1f77b4; fill-opacity: 0.8; stroke: #1f77b4; stroke-opacity: 0.8"/>
     <use xlink:href="#m0c545a0673" x="122.69486" y="306.067491" style="fill: #1f77b4; fill-opacity: 0.8; stroke: #1f77b4; stroke-opacity: 0.8"/>
     <use xlink:href="#m0c545a0673" x="218.347165" y="174.090344" style="fill: #1f77b4; fill-opacity: 0.8; stroke: #1f77b4; stroke-opacity: 0.8"/>
     <use xlink:href="#m0c545a0673" x="295.440068" y="249.234548" style="fill: #1f77b4; fill-opacity: 0.8; stroke: #1f77b4; stroke-opacity: 0.8"/>
     <use xlink:href="#m0c545a0673" x="264.031848" y="196.39464" style="fill: #1f77b4; fill-opacity: 0.8; stroke: #1f77b4; stroke-opacity: 0.8"/>
     <use xlink:href="#m0c545a0673" x="155.530726" y="374.723688" style="fill: #1f77b4; fill-opacity: 0.8; stroke: #1f77b4; stroke-opacity: 0.8"/>
     <use xlink:href="#m0c545a0673" x="279.735958" y="108.647019" style="fill: #1f77b4; fill-opacity: 0.8; stroke: #1f77b4; stroke-opacity: 0.8"/>
     <use xlink:href="#m0c545a0673" x="271.17008" y="308.52708" style="fill: #1f77b4; fill-opacity: 0.8; stroke: #1f77b4; stroke-opacity: 0.8"/>
     <use xlink:href="#m0c545a0673" x="269.742434" y="170.872455" style="fill: #1f77b4; fill-opacity: 0.8; stroke: #1f77b4; stroke-opacity: 0.8"/>
     <use xlink:href="#m0c545a0673" x="202.643055" y="273.069984" style="fill: #1f77b4; fill-opacity: 0.8; stroke: #1f77b4; stroke-opacity: 0.8"/>
     <use xlink:href="#m0c545a0673" x="164.096604" y="189.586317" style="fill: #1f77b4; fill-opacity: 0.8; stroke: #1f77b4; stroke-opacity: 0.8"/>
     <use xlink:href="#m0c545a0673" x="195.504824" y="97.197455" style="fill: #1f77b4; fill-opacity: 0.8; stroke: #1f77b4; stroke-opacity: 0.8"/>
     <use xlink:href="#m0c545a0673" x="286.87419" y="134.298608" style="fill: #1f77b4; fill-opacity: 0.8; stroke: #1f77b4; stroke-opacity: 0.8"/>
     <use xlink:href="#m0c545a0673" x="61.306067" y="224.980009" style="fill: #1f77b4; fill-opacity: 0.8; stroke: #1f77b4; stroke-opacity: 0.8"/>
     <use xlink:href="#m0c545a0673" x="121.267213" y="236.239181" style="fill: #1f77b4; fill-opacity: 0.8; stroke: #1f77b4; stroke-opacity: 0.8"/>
     <use xlink:href="#m0c545a0673" x="154.103079" y="358.885761" style="fill: #1f77b4; fill-opacity: 0.8; stroke: #1f77b4; stroke-opacity: 0.8"/>
     <use xlink:href="#m0c545a0673" x="262.604202" y="244.007709" style="fill: #1f77b4; fill-opacity: 0.8; stroke: #1f77b4; stroke-opacity: 0.8"/>
     <use xlink:href="#m0c545a0673" x="268.314787" y="169.158684" style="fill: #1f77b4; fill-opacity: 0.8; stroke: #1f77b4; stroke-opacity: 0.8"/>
     <use xlink:href="#m0c545a0673" x="301.150654" y="114.306706" style="fill: #1f77b4; fill-opacity: 0.8; stroke: #1f77b4; stroke-opacity: 0.8"/>
     <use xlink:href="#m0c545a0673" x="194.077177" y="181.781425" style="fill: #1f77b4; fill-opacity: 0.8; stroke: #1f77b4; stroke-opacity: 0.8"/>
     <use xlink:href="#m0c545a0673" x="191.221885" y="162.843322" style="fill: #1f77b4; fill-opacity: 0.8; stroke: #1f77b4; stroke-opacity: 0.8"/>
     <use xlink:href="#m0c545a0673" x="281.163605" y="178.981312" style="fill: #1f77b4; fill-opacity: 0.8; stroke: #1f77b4; stroke-opacity: 0.8"/>
     <use xlink:href="#m0c545a0673" x="245.472446" y="149.095007" style="fill: #1f77b4; fill-opacity: 0.8; stroke: #1f77b4; stroke-opacity: 0.8"/>
     <use xlink:href="#m0c545a0673" x="286.87419" y="200.033655" style="fill: #1f77b4; fill-opacity: 0.8; stroke: #1f77b4; stroke-opacity: 0.8"/>
     <use xlink:href="#m0c545a0673" x="236.906568" y="197.167354" style="fill: #1f77b4; fill-opacity: 0.8; stroke: #1f77b4; stroke-opacity: 0.8"/>
     <use xlink:href="#m0c545a0673" x="148.392494" y="180.149403" style="fill: #1f77b4; fill-opacity: 0.8; stroke: #1f77b4; stroke-opacity: 0.8"/>
     <use xlink:href="#m0c545a0673" x="144.109555" y="151.035868" style="fill: #1f77b4; fill-opacity: 0.8; stroke: #1f77b4; stroke-opacity: 0.8"/>
     <use xlink:href="#m0c545a0673" x="199.787763" y="155.138462" style="fill: #1f77b4; fill-opacity: 0.8; stroke: #1f77b4; stroke-opacity: 0.8"/>
     <use xlink:href="#m0c545a0673" x="194.077177" y="344.907439" style="fill: #1f77b4; fill-opacity: 0.8; stroke: #1f77b4; stroke-opacity: 0.8"/>
     <use xlink:href="#m0c545a0673" x="194.077177" y="207.666693" style="fill: #1f77b4; fill-opacity: 0.8; stroke: #1f77b4; stroke-opacity: 0.8"/>
     <use xlink:href="#m0c545a0673" x="239.76186" y="335.513833" style="fill: #1f77b4; fill-opacity: 0.8; stroke: #1f77b4; stroke-opacity: 0.8"/>
     <use xlink:href="#m0c545a0673" x="298.295361" y="229.732684" style="fill: #1f77b4; fill-opacity: 0.8; stroke: #1f77b4; stroke-opacity: 0.8"/>
     <use xlink:href="#m0c545a0673" x="268.314787" y="149.748136" style="fill: #1f77b4; fill-opacity: 0.8; stroke: #1f77b4; stroke-opacity: 0.8"/>
     <use xlink:href="#m0c545a0673" x="218.347165" y="164.252671" style="fill: #1f77b4; fill-opacity: 0.8; stroke: #1f77b4; stroke-opacity: 0.8"/>
     <use xlink:href="#m0c545a0673" x="121.267213" y="173.526604" style="fill: #1f77b4; fill-opacity: 0.8; stroke: #1f77b4; stroke-opacity: 0.8"/>
     <use xlink:href="#m0c545a0673" x="168.379543" y="197.405738" style="fill: #1f77b4; fill-opacity: 0.8; stroke: #1f77b4; stroke-opacity: 0.8"/>
     <use xlink:href="#m0c545a0673" x="155.530726" y="212.697531" style="fill: #1f77b4; fill-opacity: 0.8; stroke: #1f77b4; stroke-opacity: 0.8"/>
     <use xlink:href="#m0c545a0673" x="186.938945" y="317.689569" style="fill: #1f77b4; fill-opacity: 0.8; stroke: #1f77b4; stroke-opacity: 0.8"/>
     <use xlink:href="#m0c545a0673" x="286.87419" y="247.734751" style="fill: #1f77b4; fill-opacity: 0.8; stroke: #1f77b4; stroke-opacity: 0.8"/>
     <use xlink:href="#m0c545a0673" x="209.781287" y="229.431486" style="fill: #1f77b4; fill-opacity: 0.8; stroke: #1f77b4; stroke-opacity: 0.8"/>
     <use xlink:href="#m0c545a0673" x="231.195982" y="181.928106" style="fill: #1f77b4; fill-opacity: 0.8; stroke: #1f77b4; stroke-opacity: 0.8"/>
     <use xlink:href="#m0c545a0673" x="272.597727" y="221.689795" style="fill: #1f77b4; fill-opacity: 0.8; stroke: #1f77b4; stroke-opacity: 0.8"/>
     <use xlink:href="#m0c545a0673" x="246.900092" y="210.86858" style="fill: #1f77b4; fill-opacity: 0.8; stroke: #1f77b4; stroke-opacity: 0.8"/>
     <use xlink:href="#m0c545a0673" x="199.787763" y="251.440348" style="fill: #1f77b4; fill-opacity: 0.8; stroke: #1f77b4; stroke-opacity: 0.8"/>
     <use xlink:href="#m0c545a0673" x="98.424872" y="216.408593" style="fill: #1f77b4; fill-opacity: 0.8; stroke: #1f77b4; stroke-opacity: 0.8"/>
     <use xlink:href="#m0c545a0673" x="172.662482" y="329.180031" style="fill: #1f77b4; fill-opacity: 0.8; stroke: #1f77b4; stroke-opacity: 0.8"/>
     <use xlink:href="#m0c545a0673" x="245.472446" y="176.202612" style="fill: #1f77b4; fill-opacity: 0.8; stroke: #1f77b4; stroke-opacity: 0.8"/>
     <use xlink:href="#m0c545a0673" x="134.11603" y="155.01858" style="fill: #1f77b4; fill-opacity: 0.8; stroke: #1f77b4; stroke-opacity: 0.8"/>
     <use xlink:href="#m0c545a0673" x="116.984274" y="258.622303" style="fill: #1f77b4; fill-opacity: 0.8; stroke: #1f77b4; stroke-opacity: 0.8"/>
     <use xlink:href="#m0c545a0673" x="176.945421" y="192.964047" style="fill: #1f77b4; fill-opacity: 0.8; stroke: #1f77b4; stroke-opacity: 0.8"/>
     <use xlink:href="#m0c545a0673" x="85.576055" y="188.624745" style="fill: #1f77b4; fill-opacity: 0.8; stroke: #1f77b4; stroke-opacity: 0.8"/>
     <use xlink:href="#m0c545a0673" x="129.833091" y="317.718571" style="fill: #1f77b4; fill-opacity: 0.8; stroke: #1f77b4; stroke-opacity: 0.8"/>
     <use xlink:href="#m0c545a0673" x="261.176556" y="139.836525" style="fill: #1f77b4; fill-opacity: 0.8; stroke: #1f77b4; stroke-opacity: 0.8"/>
     <use xlink:href="#m0c545a0673" x="278.308312" y="178.059593" style="fill: #1f77b4; fill-opacity: 0.8; stroke: #1f77b4; stroke-opacity: 0.8"/>
     <use xlink:href="#m0c545a0673" x="132.688384" y="233.657819" style="fill: #1f77b4; fill-opacity: 0.8; stroke: #1f77b4; stroke-opacity: 0.8"/>
     <use xlink:href="#m0c545a0673" x="174.090128" y="249.607916" style="fill: #1f77b4; fill-opacity: 0.8; stroke: #1f77b4; stroke-opacity: 0.8"/>
     <use xlink:href="#m0c545a0673" x="228.34069" y="182.315506" style="fill: #1f77b4; fill-opacity: 0.8; stroke: #1f77b4; stroke-opacity: 0.8"/>
     <use xlink:href="#m0c545a0673" x="134.11603" y="366.316041" style="fill: #1f77b4; fill-opacity: 0.8; stroke: #1f77b4; stroke-opacity: 0.8"/>
     <use xlink:href="#m0c545a0673" x="301.150654" y="168.963271" style="fill: #1f77b4; fill-opacity: 0.8; stroke: #1f77b4; stroke-opacity: 0.8"/>
     <use xlink:href="#m0c545a0673" x="178.373067" y="195.008578" style="fill: #1f77b4; fill-opacity: 0.8; stroke: #1f77b4; stroke-opacity: 0.8"/>
     <use xlink:href="#m0c545a0673" x="124.122506" y="209.750167" style="fill: #1f77b4; fill-opacity: 0.8; stroke: #1f77b4; stroke-opacity: 0.8"/>
     <use xlink:href="#m0c545a0673" x="245.472446" y="168.489094" style="fill: #1f77b4; fill-opacity: 0.8; stroke: #1f77b4; stroke-opacity: 0.8"/>
     <use xlink:href="#m0c545a0673" x="252.610678" y="295.734334" style="fill: #1f77b4; fill-opacity: 0.8; stroke: #1f77b4; stroke-opacity: 0.8"/>
     <use xlink:href="#m0c545a0673" x="204.070702" y="242.193497" style="fill: #1f77b4; fill-opacity: 0.8; stroke: #1f77b4; stroke-opacity: 0.8"/>
     <use xlink:href="#m0c545a0673" x="235.478921" y="160.274147" style="fill: #1f77b4; fill-opacity: 0.8; stroke: #1f77b4; stroke-opacity: 0.8"/>
     <use xlink:href="#m0c545a0673" x="151.247787" y="163.493008" style="fill: #1f77b4; fill-opacity: 0.8; stroke: #1f77b4; stroke-opacity: 0.8"/>
     <use xlink:href="#m0c545a0673" x="296.867714" y="232.81009" style="fill: #1f77b4; fill-opacity: 0.8; stroke: #1f77b4; stroke-opacity: 0.8"/>
     <use xlink:href="#m0c545a0673" x="176.945421" y="137.516317" style="fill: #1f77b4; fill-opacity: 0.8; stroke: #1f77b4; stroke-opacity: 0.8"/>
     <use xlink:href="#m0c545a0673" x="214.064226" y="207.320429" style="fill: #1f77b4; fill-opacity: 0.8; stroke: #1f77b4; stroke-opacity: 0.8"/>
     <use xlink:href="#m0c545a0673" x="132.688384" y="191.818034" style="fill: #1f77b4; fill-opacity: 0.8; stroke: #1f77b4; stroke-opacity: 0.8"/>
     <use xlink:href="#m0c545a0673" x="242.617153" y="164.246532" style="fill: #1f77b4; fill-opacity: 0.8; stroke: #1f77b4; stroke-opacity: 0.8"/>
    </g>
   </g>
   <g id="PolyCollection_1">
    <path d="M 61.306067 213.068018 
L 61.306067 272.482293 
L 64.146939 271.206745 
L 66.987811 269.9898 
L 69.828683 268.895421 
L 72.669555 267.801043 
L 75.510427 266.706664 
L 78.351299 265.612285 
L 81.192171 264.517906 
L 84.033043 263.423527 
L 86.873915 262.329149 
L 89.714787 261.23477 
L 92.555659 260.140391 
L 95.396531 259.046012 
L 98.237403 257.951633 
L 101.078275 256.857255 
L 103.919147 255.757402 
L 106.760019 254.675192 
L 109.600891 253.58767 
L 112.441763 252.560421 
L 115.282635 251.667826 
L 118.123507 250.801779 
L 120.964379 249.927914 
L 123.805251 248.962007 
L 126.646123 247.852773 
L 129.486995 246.741235 
L 132.327867 245.629698 
L 135.168739 244.624966 
L 138.009611 243.524271 
L 140.850483 242.557809 
L 143.691355 241.470155 
L 146.532228 240.606881 
L 149.3731 239.511588 
L 152.213972 238.620965 
L 155.054844 237.70653 
L 157.895716 236.608206 
L 160.736588 235.580812 
L 163.57746 234.91039 
L 166.418332 233.932468 
L 169.259204 233.11708 
L 172.100076 232.319075 
L 174.940948 231.114823 
L 177.78182 229.857334 
L 180.622692 229.00526 
L 183.463564 227.998808 
L 186.304436 227.350287 
L 189.145308 226.680959 
L 191.98618 225.870833 
L 194.827052 225.084787 
L 197.667924 224.364851 
L 200.508796 223.553572 
L 203.349668 222.694847 
L 206.19054 221.901961 
L 209.031412 221.110031 
L 211.872284 220.620795 
L 214.713156 220.233562 
L 217.554028 219.605232 
L 220.3949 218.969435 
L 223.235772 218.455711 
L 226.076644 217.826962 
L 228.917516 217.320225 
L 231.758388 216.697505 
L 234.599261 216.328005 
L 237.440133 215.792307 
L 240.281005 215.184572 
L 243.121877 214.711306 
L 245.962749 214.318243 
L 248.803621 213.818565 
L 251.644493 213.539271 
L 254.485365 213.044372 
L 257.326237 212.648105 
L 260.167109 212.280329 
L 263.007981 211.914288 
L 265.848853 211.657864 
L 268.689725 211.399191 
L 271.530597 210.973734 
L 274.371469 210.791522 
L 277.212341 210.630549 
L 280.053213 210.375601 
L 282.894085 210.010426 
L 285.734957 209.862894 
L 288.575829 209.655415 
L 291.416701 209.401256 
L 294.257573 209.390868 
L 297.098445 209.024413 
L 299.939317 209.048927 
L 302.780189 209.042769 
L 305.621061 208.873165 
L 308.461933 208.695342 
L 311.302805 208.461216 
L 314.143677 208.116431 
L 316.984549 207.771007 
L 319.825421 207.425582 
L 322.666294 207.080158 
L 325.507166 206.734734 
L 328.348038 206.393826 
L 331.18891 206.059669 
L 334.029782 205.909973 
L 336.870654 205.760277 
L 339.711526 205.756 
L 342.552398 205.843748 
L 342.552398 153.547482 
L 342.552398 153.547482 
L 339.711526 154.501266 
L 336.870654 155.55171 
L 334.029782 156.917052 
L 331.18891 157.918747 
L 328.348038 159.201749 
L 325.507166 160.258573 
L 322.666294 161.054022 
L 319.825421 162.39819 
L 316.984549 163.507488 
L 314.143677 164.503075 
L 311.302805 165.500271 
L 308.461933 166.336791 
L 305.621061 167.158708 
L 302.780189 167.980626 
L 299.939317 168.993594 
L 297.098445 170.046077 
L 294.257573 171.100969 
L 291.416701 172.006228 
L 288.575829 172.788482 
L 285.734957 173.717292 
L 282.894085 174.558977 
L 280.053213 175.401088 
L 277.212341 176.450164 
L 274.371469 177.560036 
L 271.530597 178.507707 
L 268.689725 179.427331 
L 265.848853 180.316618 
L 263.007981 181.094743 
L 260.167109 181.879365 
L 257.326237 182.837166 
L 254.485365 183.88634 
L 251.644493 184.805233 
L 248.803621 185.849202 
L 245.962749 186.765073 
L 243.121877 187.683439 
L 240.281005 188.600043 
L 237.440133 189.545335 
L 234.599261 190.502659 
L 231.758388 191.348473 
L 228.917516 192.106384 
L 226.076644 192.680173 
L 223.235772 193.444747 
L 220.3949 194.258813 
L 217.554028 194.953829 
L 214.713156 195.452151 
L 211.872284 195.978382 
L 209.031412 196.539199 
L 206.19054 197.316058 
L 203.349668 197.918792 
L 200.508796 198.492915 
L 197.667924 199.012207 
L 194.827052 199.55934 
L 191.98618 200.046943 
L 189.145308 200.56752 
L 186.304436 200.885043 
L 183.463564 201.423904 
L 180.622692 201.828888 
L 177.78182 202.266293 
L 174.940948 202.685513 
L 172.100076 202.996612 
L 169.259204 203.335272 
L 166.418332 203.720515 
L 163.57746 204.192042 
L 160.736588 204.683221 
L 157.895716 204.726201 
L 155.054844 204.94027 
L 152.213972 205.231017 
L 149.3731 205.569385 
L 146.532228 205.633133 
L 143.691355 206.017221 
L 140.850483 206.339291 
L 138.009611 206.547253 
L 135.168739 206.792849 
L 132.327867 207.095658 
L 129.486995 207.394946 
L 126.646123 207.697243 
L 123.805251 208.000571 
L 120.964379 208.3039 
L 118.123507 208.616704 
L 115.282635 208.976267 
L 112.441763 209.311114 
L 109.600891 209.656869 
L 106.760019 210.003342 
L 103.919147 210.271524 
L 101.078275 210.557337 
L 98.237403 210.831652 
L 95.396531 211.033483 
L 92.555659 211.286033 
L 89.714787 211.538228 
L 86.873915 211.679103 
L 84.033043 211.859075 
L 81.192171 212.048347 
L 78.351299 212.189327 
L 75.510427 212.330307 
L 72.669555 212.47835 
L 69.828683 212.628565 
L 66.987811 212.944394 
L 64.146939 213.090041 
L 61.306067 213.068018 
z
" clip-path="url(#p418c4fc7b1)" style="fill: #1f77b4; fill-opacity: 0.15"/>
   </g>
   <g id="matplotlib.axis_1">
    <g id="xtick_1">
     <g id="line2d_1">
      <defs>
       <path id="m7c2eb3e340" d="M 0 0 
L 0 3.5 
" style="stroke: #000000; stroke-width: 0.8"/>
      </defs>
      <g>
       <use xlink:href="#m7c2eb3e340" x="62.733713" y="388.6" style="stroke: #000000; stroke-width: 0.8"/>
      </g>
     </g>
     <g id="text_1">
      <!-- 100 -->
      <g transform="translate(53.189963 403.198437) scale(0.1 -0.1)">
       <defs>
        <path id="DejaVuSans-31" d="M 794 531 
L 1825 531 
L 1825 4091 
L 703 3866 
L 703 4441 
L 1819 4666 
L 2450 4666 
L 2450 531 
L 3481 531 
L 3481 0 
L 794 0 
L 794 531 
z
" transform="scale(0.015625)"/>
        <path id="DejaVuSans-30" d="M 2034 4250 
Q 1547 4250 1301 3770 
Q 1056 3291 1056 2328 
Q 1056 1369 1301 889 
Q 1547 409 2034 409 
Q 2525 409 2770 889 
Q 3016 1369 3016 2328 
Q 3016 3291 2770 3770 
Q 2525 4250 2034 4250 
z
M 2034 4750 
Q 2819 4750 3233 4129 
Q 3647 3509 3647 2328 
Q 3647 1150 3233 529 
Q 2819 -91 2034 -91 
Q 1250 -91 836 529 
Q 422 1150 422 2328 
Q 422 3509 836 4129 
Q 1250 4750 2034 4750 
z
" transform="scale(0.015625)"/>
       </defs>
       <use xlink:href="#DejaVuSans-31"/>
       <use xlink:href="#DejaVuSans-30" x="63.623047"/>
       <use xlink:href="#DejaVuSans-30" x="127.246094"/>
      </g>
     </g>
    </g>
    <g id="xtick_2">
     <g id="line2d_2">
      <g>
       <use xlink:href="#m7c2eb3e340" x="98.424872" y="388.6" style="stroke: #000000; stroke-width: 0.8"/>
      </g>
     </g>
     <g id="text_2">
      <!-- 125 -->
      <g transform="translate(88.881122 403.198437) scale(0.1 -0.1)">
       <defs>
        <path id="DejaVuSans-32" d="M 1228 531 
L 3431 531 
L 3431 0 
L 469 0 
L 469 531 
Q 828 903 1448 1529 
Q 2069 2156 2228 2338 
Q 2531 2678 2651 2914 
Q 2772 3150 2772 3378 
Q 2772 3750 2511 3984 
Q 2250 4219 1831 4219 
Q 1534 4219 1204 4116 
Q 875 4013 500 3803 
L 500 4441 
Q 881 4594 1212 4672 
Q 1544 4750 1819 4750 
Q 2544 4750 2975 4387 
Q 3406 4025 3406 3419 
Q 3406 3131 3298 2873 
Q 3191 2616 2906 2266 
Q 2828 2175 2409 1742 
Q 1991 1309 1228 531 
z
" transform="scale(0.015625)"/>
        <path id="DejaVuSans-35" d="M 691 4666 
L 3169 4666 
L 3169 4134 
L 1269 4134 
L 1269 2991 
Q 1406 3038 1543 3061 
Q 1681 3084 1819 3084 
Q 2600 3084 3056 2656 
Q 3513 2228 3513 1497 
Q 3513 744 3044 326 
Q 2575 -91 1722 -91 
Q 1428 -91 1123 -41 
Q 819 9 494 109 
L 494 744 
Q 775 591 1075 516 
Q 1375 441 1709 441 
Q 2250 441 2565 725 
Q 2881 1009 2881 1497 
Q 2881 1984 2565 2268 
Q 2250 2553 1709 2553 
Q 1456 2553 1204 2497 
Q 953 2441 691 2322 
L 691 4666 
z
" transform="scale(0.015625)"/>
       </defs>
       <use xlink:href="#DejaVuSans-31"/>
       <use xlink:href="#DejaVuSans-32" x="63.623047"/>
       <use xlink:href="#DejaVuSans-35" x="127.246094"/>
      </g>
     </g>
    </g>
    <g id="xtick_3">
     <g id="line2d_3">
      <g>
       <use xlink:href="#m7c2eb3e340" x="134.11603" y="388.6" style="stroke: #000000; stroke-width: 0.8"/>
      </g>
     </g>
     <g id="text_3">
      <!-- 150 -->
      <g transform="translate(124.57228 403.198437) scale(0.1 -0.1)">
       <use xlink:href="#DejaVuSans-31"/>
       <use xlink:href="#DejaVuSans-35" x="63.623047"/>
       <use xlink:href="#DejaVuSans-30" x="127.246094"/>
      </g>
     </g>
    </g>
    <g id="xtick_4">
     <g id="line2d_4">
      <g>
       <use xlink:href="#m7c2eb3e340" x="169.807189" y="388.6" style="stroke: #000000; stroke-width: 0.8"/>
      </g>
     </g>
     <g id="text_4">
      <!-- 175 -->
      <g transform="translate(160.263439 403.198437) scale(0.1 -0.1)">
       <defs>
        <path id="DejaVuSans-37" d="M 525 4666 
L 3525 4666 
L 3525 4397 
L 1831 0 
L 1172 0 
L 2766 4134 
L 525 4134 
L 525 4666 
z
" transform="scale(0.015625)"/>
       </defs>
       <use xlink:href="#DejaVuSans-31"/>
       <use xlink:href="#DejaVuSans-37" x="63.623047"/>
       <use xlink:href="#DejaVuSans-35" x="127.246094"/>
      </g>
     </g>
    </g>
    <g id="xtick_5">
     <g id="line2d_5">
      <g>
       <use xlink:href="#m7c2eb3e340" x="205.498348" y="388.6" style="stroke: #000000; stroke-width: 0.8"/>
      </g>
     </g>
     <g id="text_5">
      <!-- 200 -->
      <g transform="translate(195.954598 403.198437) scale(0.1 -0.1)">
       <use xlink:href="#DejaVuSans-32"/>
       <use xlink:href="#DejaVuSans-30" x="63.623047"/>
       <use xlink:href="#DejaVuSans-30" x="127.246094"/>
      </g>
     </g>
    </g>
    <g id="xtick_6">
     <g id="line2d_6">
      <g>
       <use xlink:href="#m7c2eb3e340" x="241.189507" y="388.6" style="stroke: #000000; stroke-width: 0.8"/>
      </g>
     </g>
     <g id="text_6">
      <!-- 225 -->
      <g transform="translate(231.645757 403.198437) scale(0.1 -0.1)">
       <use xlink:href="#DejaVuSans-32"/>
       <use xlink:href="#DejaVuSans-32" x="63.623047"/>
       <use xlink:href="#DejaVuSans-35" x="127.246094"/>
      </g>
     </g>
    </g>
    <g id="xtick_7">
     <g id="line2d_7">
      <g>
       <use xlink:href="#m7c2eb3e340" x="276.880666" y="388.6" style="stroke: #000000; stroke-width: 0.8"/>
      </g>
     </g>
     <g id="text_7">
      <!-- 250 -->
      <g transform="translate(267.336916 403.198437) scale(0.1 -0.1)">
       <use xlink:href="#DejaVuSans-32"/>
       <use xlink:href="#DejaVuSans-35" x="63.623047"/>
       <use xlink:href="#DejaVuSans-30" x="127.246094"/>
      </g>
     </g>
    </g>
    <g id="xtick_8">
     <g id="line2d_8">
      <g>
       <use xlink:href="#m7c2eb3e340" x="312.571824" y="388.6" style="stroke: #000000; stroke-width: 0.8"/>
      </g>
     </g>
     <g id="text_8">
      <!-- 275 -->
      <g transform="translate(303.028074 403.198437) scale(0.1 -0.1)">
       <use xlink:href="#DejaVuSans-32"/>
       <use xlink:href="#DejaVuSans-37" x="63.623047"/>
       <use xlink:href="#DejaVuSans-35" x="127.246094"/>
      </g>
     </g>
    </g>
    <g id="xtick_9">
     <g id="line2d_9">
      <g>
       <use xlink:href="#m7c2eb3e340" x="348.262983" y="388.6" style="stroke: #000000; stroke-width: 0.8"/>
      </g>
     </g>
     <g id="text_9">
      <!-- 300 -->
      <g transform="translate(338.719233 403.198437) scale(0.1 -0.1)">
       <defs>
        <path id="DejaVuSans-33" d="M 2597 2516 
Q 3050 2419 3304 2112 
Q 3559 1806 3559 1356 
Q 3559 666 3084 287 
Q 2609 -91 1734 -91 
Q 1441 -91 1130 -33 
Q 819 25 488 141 
L 488 750 
Q 750 597 1062 519 
Q 1375 441 1716 441 
Q 2309 441 2620 675 
Q 2931 909 2931 1356 
Q 2931 1769 2642 2001 
Q 2353 2234 1838 2234 
L 1294 2234 
L 1294 2753 
L 1863 2753 
Q 2328 2753 2575 2939 
Q 2822 3125 2822 3475 
Q 2822 3834 2567 4026 
Q 2313 4219 1838 4219 
Q 1578 4219 1281 4162 
Q 984 4106 628 3988 
L 628 4550 
Q 988 4650 1302 4700 
Q 1616 4750 1894 4750 
Q 2613 4750 3031 4423 
Q 3450 4097 3450 3541 
Q 3450 3153 3228 2886 
Q 3006 2619 2597 2516 
z
" transform="scale(0.015625)"/>
       </defs>
       <use xlink:href="#DejaVuSans-33"/>
       <use xlink:href="#DejaVuSans-30" x="63.623047"/>
       <use xlink:href="#DejaVuSans-30" x="127.246094"/>
      </g>
     </g>
    </g>
    <g id="text_10">
     <!-- y_true -->
     <g transform="translate(186.20892 416.598437) scale(0.1 -0.1)">
      <defs>
       <path id="DejaVuSans-79" d="M 2059 -325 
Q 1816 -950 1584 -1140 
Q 1353 -1331 966 -1331 
L 506 -1331 
L 506 -850 
L 844 -850 
Q 1081 -850 1212 -737 
Q 1344 -625 1503 -206 
L 1606 56 
L 191 3500 
L 800 3500 
L 1894 763 
L 2988 3500 
L 3597 3500 
L 2059 -325 
z
" transform="scale(0.015625)"/>
       <path id="DejaVuSans-5f" d="M 3263 -1063 
L 3263 -1509 
L -63 -1509 
L -63 -1063 
L 3263 -1063 
z
" transform="scale(0.015625)"/>
       <path id="DejaVuSans-74" d="M 1172 4494 
L 1172 3500 
L 2356 3500 
L 2356 3053 
L 1172 3053 
L 1172 1153 
Q 1172 725 1289 603 
Q 1406 481 1766 481 
L 2356 481 
L 2356 0 
L 1766 0 
Q 1100 0 847 248 
Q 594 497 594 1153 
L 594 3053 
L 172 3053 
L 172 3500 
L 594 3500 
L 594 4494 
L 1172 4494 
z
" transform="scale(0.015625)"/>
       <path id="DejaVuSans-72" d="M 2631 2963 
Q 2534 3019 2420 3045 
Q 2306 3072 2169 3072 
Q 1681 3072 1420 2755 
Q 1159 2438 1159 1844 
L 1159 0 
L 581 0 
L 581 3500 
L 1159 3500 
L 1159 2956 
Q 1341 3275 1631 3429 
Q 1922 3584 2338 3584 
Q 2397 3584 2469 3576 
Q 2541 3569 2628 3553 
L 2631 2963 
z
" transform="scale(0.015625)"/>
       <path id="DejaVuSans-75" d="M 544 1381 
L 544 3500 
L 1119 3500 
L 1119 1403 
Q 1119 906 1312 657 
Q 1506 409 1894 409 
Q 2359 409 2629 706 
Q 2900 1003 2900 1516 
L 2900 3500 
L 3475 3500 
L 3475 0 
L 2900 0 
L 2900 538 
Q 2691 219 2414 64 
Q 2138 -91 1772 -91 
Q 1169 -91 856 284 
Q 544 659 544 1381 
z
M 1991 3584 
L 1991 3584 
z
" transform="scale(0.015625)"/>
       <path id="DejaVuSans-65" d="M 3597 1894 
L 3597 1613 
L 953 1613 
Q 991 1019 1311 708 
Q 1631 397 2203 397 
Q 2534 397 2845 478 
Q 3156 559 3463 722 
L 3463 178 
Q 3153 47 2828 -22 
Q 2503 -91 2169 -91 
Q 1331 -91 842 396 
Q 353 884 353 1716 
Q 353 2575 817 3079 
Q 1281 3584 2069 3584 
Q 2775 3584 3186 3129 
Q 3597 2675 3597 1894 
z
M 3022 2063 
Q 3016 2534 2758 2815 
Q 2500 3097 2075 3097 
Q 1594 3097 1305 2825 
Q 1016 2553 972 2059 
L 3022 2063 
z
" transform="scale(0.015625)"/>
      </defs>
      <use xlink:href="#DejaVuSans-79"/>
      <use xlink:href="#DejaVuSans-5f" x="59.179688"/>
      <use xlink:href="#DejaVuSans-74" x="109.179688"/>
      <use xlink:href="#DejaVuSans-72" x="148.388672"/>
      <use xlink:href="#DejaVuSans-75" x="189.501953"/>
      <use xlink:href="#DejaVuSans-65" x="252.880859"/>
     </g>
    </g>
   </g>
   <g id="matplotlib.axis_2">
    <g id="ytick_1">
     <g id="line2d_10">
      <defs>
       <path id="m4755278f5b" d="M 0 0 
L -3.5 0 
" style="stroke: #000000; stroke-width: 0.8"/>
      </defs>
      <g>
       <use xlink:href="#m4755278f5b" x="47.24375" y="372.037141" style="stroke: #000000; stroke-width: 0.8"/>
      </g>
     </g>
     <g id="text_11">
      <!-- 185 -->
      <g transform="translate(21.15625 375.83636) scale(0.1 -0.1)">
       <defs>
        <path id="DejaVuSans-38" d="M 2034 2216 
Q 1584 2216 1326 1975 
Q 1069 1734 1069 1313 
Q 1069 891 1326 650 
Q 1584 409 2034 409 
Q 2484 409 2743 651 
Q 3003 894 3003 1313 
Q 3003 1734 2745 1975 
Q 2488 2216 2034 2216 
z
M 1403 2484 
Q 997 2584 770 2862 
Q 544 3141 544 3541 
Q 544 4100 942 4425 
Q 1341 4750 2034 4750 
Q 2731 4750 3128 4425 
Q 3525 4100 3525 3541 
Q 3525 3141 3298 2862 
Q 3072 2584 2669 2484 
Q 3125 2378 3379 2068 
Q 3634 1759 3634 1313 
Q 3634 634 3220 271 
Q 2806 -91 2034 -91 
Q 1263 -91 848 271 
Q 434 634 434 1313 
Q 434 1759 690 2068 
Q 947 2378 1403 2484 
z
M 1172 3481 
Q 1172 3119 1398 2916 
Q 1625 2713 2034 2713 
Q 2441 2713 2670 2916 
Q 2900 3119 2900 3481 
Q 2900 3844 2670 4047 
Q 2441 4250 2034 4250 
Q 1625 4250 1398 4047 
Q 1172 3844 1172 3481 
z
" transform="scale(0.015625)"/>
       </defs>
       <use xlink:href="#DejaVuSans-31"/>
       <use xlink:href="#DejaVuSans-38" x="63.623047"/>
       <use xlink:href="#DejaVuSans-35" x="127.246094"/>
      </g>
     </g>
    </g>
    <g id="ytick_2">
     <g id="line2d_11">
      <g>
       <use xlink:href="#m4755278f5b" x="47.24375" y="320.609478" style="stroke: #000000; stroke-width: 0.8"/>
      </g>
     </g>
     <g id="text_12">
      <!-- 190 -->
      <g transform="translate(21.15625 324.408697) scale(0.1 -0.1)">
       <defs>
        <path id="DejaVuSans-39" d="M 703 97 
L 703 672 
Q 941 559 1184 500 
Q 1428 441 1663 441 
Q 2288 441 2617 861 
Q 2947 1281 2994 2138 
Q 2813 1869 2534 1725 
Q 2256 1581 1919 1581 
Q 1219 1581 811 2004 
Q 403 2428 403 3163 
Q 403 3881 828 4315 
Q 1253 4750 1959 4750 
Q 2769 4750 3195 4129 
Q 3622 3509 3622 2328 
Q 3622 1225 3098 567 
Q 2575 -91 1691 -91 
Q 1453 -91 1209 -44 
Q 966 3 703 97 
z
M 1959 2075 
Q 2384 2075 2632 2365 
Q 2881 2656 2881 3163 
Q 2881 3666 2632 3958 
Q 2384 4250 1959 4250 
Q 1534 4250 1286 3958 
Q 1038 3666 1038 3163 
Q 1038 2656 1286 2365 
Q 1534 2075 1959 2075 
z
" transform="scale(0.015625)"/>
       </defs>
       <use xlink:href="#DejaVuSans-31"/>
       <use xlink:href="#DejaVuSans-39" x="63.623047"/>
       <use xlink:href="#DejaVuSans-30" x="127.246094"/>
      </g>
     </g>
    </g>
    <g id="ytick_3">
     <g id="line2d_12">
      <g>
       <use xlink:href="#m4755278f5b" x="47.24375" y="269.181815" style="stroke: #000000; stroke-width: 0.8"/>
      </g>
     </g>
     <g id="text_13">
      <!-- 195 -->
      <g transform="translate(21.15625 272.981034) scale(0.1 -0.1)">
       <use xlink:href="#DejaVuSans-31"/>
       <use xlink:href="#DejaVuSans-39" x="63.623047"/>
       <use xlink:href="#DejaVuSans-35" x="127.246094"/>
      </g>
     </g>
    </g>
    <g id="ytick_4">
     <g id="line2d_13">
      <g>
       <use xlink:href="#m4755278f5b" x="47.24375" y="217.754152" style="stroke: #000000; stroke-width: 0.8"/>
      </g>
     </g>
     <g id="text_14">
      <!-- 200 -->
      <g transform="translate(21.15625 221.553371) scale(0.1 -0.1)">
       <use xlink:href="#DejaVuSans-32"/>
       <use xlink:href="#DejaVuSans-30" x="63.623047"/>
       <use xlink:href="#DejaVuSans-30" x="127.246094"/>
      </g>
     </g>
    </g>
    <g id="ytick_5">
     <g id="line2d_14">
      <g>
       <use xlink:href="#m4755278f5b" x="47.24375" y="166.326489" style="stroke: #000000; stroke-width: 0.8"/>
      </g>
     </g>
     <g id="text_15">
      <!-- 205 -->
      <g transform="translate(21.15625 170.125708) scale(0.1 -0.1)">
       <use xlink:href="#DejaVuSans-32"/>
       <use xlink:href="#DejaVuSans-30" x="63.623047"/>
       <use xlink:href="#DejaVuSans-35" x="127.246094"/>
      </g>
     </g>
    </g>
    <g id="ytick_6">
     <g id="line2d_15">
      <g>
       <use xlink:href="#m4755278f5b" x="47.24375" y="114.898826" style="stroke: #000000; stroke-width: 0.8"/>
      </g>
     </g>
     <g id="text_16">
      <!-- 210 -->
      <g transform="translate(21.15625 118.698045) scale(0.1 -0.1)">
       <use xlink:href="#DejaVuSans-32"/>
       <use xlink:href="#DejaVuSans-31" x="63.623047"/>
       <use xlink:href="#DejaVuSans-30" x="127.246094"/>
      </g>
     </g>
    </g>
    <g id="text_17">
     <!-- y_pred -->
     <g transform="translate(14.798438 252.787915) rotate(-90) scale(0.1 -0.1)">
      <defs>
       <path id="DejaVuSans-70" d="M 1159 525 
L 1159 -1331 
L 581 -1331 
L 581 3500 
L 1159 3500 
L 1159 2969 
Q 1341 3281 1617 3432 
Q 1894 3584 2278 3584 
Q 2916 3584 3314 3078 
Q 3713 2572 3713 1747 
Q 3713 922 3314 415 
Q 2916 -91 2278 -91 
Q 1894 -91 1617 61 
Q 1341 213 1159 525 
z
M 3116 1747 
Q 3116 2381 2855 2742 
Q 2594 3103 2138 3103 
Q 1681 3103 1420 2742 
Q 1159 2381 1159 1747 
Q 1159 1113 1420 752 
Q 1681 391 2138 391 
Q 2594 391 2855 752 
Q 3116 1113 3116 1747 
z
" transform="scale(0.015625)"/>
       <path id="DejaVuSans-64" d="M 2906 2969 
L 2906 4863 
L 3481 4863 
L 3481 0 
L 2906 0 
L 2906 525 
Q 2725 213 2448 61 
Q 2172 -91 1784 -91 
Q 1150 -91 751 415 
Q 353 922 353 1747 
Q 353 2572 751 3078 
Q 1150 3584 1784 3584 
Q 2172 3584 2448 3432 
Q 2725 3281 2906 2969 
z
M 947 1747 
Q 947 1113 1208 752 
Q 1469 391 1925 391 
Q 2381 391 2643 752 
Q 2906 1113 2906 1747 
Q 2906 2381 2643 2742 
Q 2381 3103 1925 3103 
Q 1469 3103 1208 2742 
Q 947 2381 947 1747 
z
" transform="scale(0.015625)"/>
      </defs>
      <use xlink:href="#DejaVuSans-79"/>
      <use xlink:href="#DejaVuSans-5f" x="59.179688"/>
      <use xlink:href="#DejaVuSans-70" x="109.179688"/>
      <use xlink:href="#DejaVuSans-72" x="172.65625"/>
      <use xlink:href="#DejaVuSans-65" x="211.519531"/>
      <use xlink:href="#DejaVuSans-64" x="273.042969"/>
     </g>
    </g>
   </g>
   <g id="line2d_16">
    <path d="M 61.306067 241.150557 
L 64.146939 240.530581 
L 66.987811 239.910605 
L 69.828683 239.29063 
L 72.669555 238.670654 
L 75.510427 238.050678 
L 78.351299 237.430702 
L 81.192171 236.810726 
L 84.033043 236.19075 
L 86.873915 235.570774 
L 89.714787 234.950798 
L 92.555659 234.330822 
L 95.396531 233.710846 
L 98.237403 233.09087 
L 101.078275 232.470895 
L 103.919147 231.850919 
L 106.760019 231.230943 
L 109.600891 230.610967 
L 112.441763 229.990991 
L 115.282635 229.371015 
L 118.123507 228.751039 
L 120.964379 228.131063 
L 123.805251 227.511087 
L 126.646123 226.891111 
L 129.486995 226.271135 
L 132.327867 225.65116 
L 135.168739 225.031184 
L 138.009611 224.411208 
L 140.850483 223.791232 
L 143.691355 223.171256 
L 146.532228 222.55128 
L 149.3731 221.931304 
L 152.213972 221.311328 
L 155.054844 220.691352 
L 157.895716 220.071376 
L 160.736588 219.4514 
L 163.57746 218.831424 
L 166.418332 218.211449 
L 169.259204 217.591473 
L 172.100076 216.971497 
L 174.940948 216.351521 
L 177.78182 215.731545 
L 180.622692 215.111569 
L 183.463564 214.491593 
L 186.304436 213.871617 
L 189.145308 213.251641 
L 191.98618 212.631665 
L 194.827052 212.011689 
L 197.667924 211.391714 
L 200.508796 210.771738 
L 203.349668 210.151762 
L 206.19054 209.531786 
L 209.031412 208.91181 
L 211.872284 208.291834 
L 214.713156 207.671858 
L 217.554028 207.051882 
L 220.3949 206.431906 
L 223.235772 205.81193 
L 226.076644 205.191954 
L 228.917516 204.571979 
L 231.758388 203.952003 
L 234.599261 203.332027 
L 237.440133 202.712051 
L 240.281005 202.092075 
L 243.121877 201.472099 
L 245.962749 200.852123 
L 248.803621 200.232147 
L 251.644493 199.612171 
L 254.485365 198.992195 
L 257.326237 198.372219 
L 260.167109 197.752244 
L 263.007981 197.132268 
L 265.848853 196.512292 
L 268.689725 195.892316 
L 271.530597 195.27234 
L 274.371469 194.652364 
L 277.212341 194.032388 
L 280.053213 193.412412 
L 282.894085 192.792436 
L 285.734957 192.17246 
L 288.575829 191.552484 
L 291.416701 190.932509 
L 294.257573 190.312533 
L 297.098445 189.692557 
L 299.939317 189.072581 
L 302.780189 188.452605 
L 305.621061 187.832629 
L 308.461933 187.212653 
L 311.302805 186.592677 
L 314.143677 185.972701 
L 316.984549 185.352725 
L 319.825421 184.732749 
L 322.666294 184.112774 
L 325.507166 183.492798 
L 328.348038 182.872822 
L 331.18891 182.252846 
L 334.029782 181.63287 
L 336.870654 181.012894 
L 339.711526 180.392918 
L 342.552398 179.772942 
" clip-path="url(#p418c4fc7b1)" style="fill: none; stroke: #1f77b4; stroke-width: 2.25; stroke-linecap: square"/>
   </g>
   <g id="patch_3">
    <path d="M 47.24375 388.6 
L 47.24375 83.321143 
" style="fill: none; stroke: #000000; stroke-width: 0.8; stroke-linejoin: miter; stroke-linecap: square"/>
   </g>
   <g id="patch_4">
    <path d="M 47.24375 388.6 
L 356.614714 388.6 
" style="fill: none; stroke: #000000; stroke-width: 0.8; stroke-linejoin: miter; stroke-linecap: square"/>
   </g>
  </g>
  <g id="axes_2">
   <g id="patch_5">
    <path d="M 47.24375 72.794286 
L 356.614714 72.794286 
L 356.614714 20.16 
L 47.24375 20.16 
z
" style="fill: #ffffff"/>
   </g>
   <g id="patch_6">
    <path d="M 61.306067 72.794286 
L 96.461858 72.794286 
L 96.461858 65.275102 
L 61.306067 65.275102 
z
" clip-path="url(#pf84a7892f8)" style="fill: #1f77b4; fill-opacity: 0.5; stroke: #000000; stroke-linejoin: miter"/>
   </g>
   <g id="patch_7">
    <path d="M 96.461858 72.794286 
L 131.617649 72.794286 
L 131.617649 52.743129 
L 96.461858 52.743129 
z
" clip-path="url(#pf84a7892f8)" style="fill: #1f77b4; fill-opacity: 0.5; stroke: #000000; stroke-linejoin: miter"/>
   </g>
   <g id="patch_8">
    <path d="M 131.617649 72.794286 
L 166.773441 72.794286 
L 166.773441 32.691973 
L 131.617649 32.691973 
z
" clip-path="url(#pf84a7892f8)" style="fill: #1f77b4; fill-opacity: 0.5; stroke: #000000; stroke-linejoin: miter"/>
   </g>
   <g id="patch_9">
    <path d="M 166.773441 72.794286 
L 201.929232 72.794286 
L 201.929232 22.666395 
L 166.773441 22.666395 
z
" clip-path="url(#pf84a7892f8)" style="fill: #1f77b4; fill-opacity: 0.5; stroke: #000000; stroke-linejoin: miter"/>
   </g>
   <g id="patch_10">
    <path d="M 201.929232 72.794286 
L 237.085024 72.794286 
L 237.085024 32.691973 
L 201.929232 32.691973 
z
" clip-path="url(#pf84a7892f8)" style="fill: #1f77b4; fill-opacity: 0.5; stroke: #000000; stroke-linejoin: miter"/>
   </g>
   <g id="patch_11">
    <path d="M 237.085024 72.794286 
L 272.240815 72.794286 
L 272.240815 30.185578 
L 237.085024 30.185578 
z
" clip-path="url(#pf84a7892f8)" style="fill: #1f77b4; fill-opacity: 0.5; stroke: #000000; stroke-linejoin: miter"/>
   </g>
   <g id="patch_12">
    <path d="M 272.240815 72.794286 
L 307.396606 72.794286 
L 307.396606 42.717551 
L 272.240815 42.717551 
z
" clip-path="url(#pf84a7892f8)" style="fill: #1f77b4; fill-opacity: 0.5; stroke: #000000; stroke-linejoin: miter"/>
   </g>
   <g id="patch_13">
    <path d="M 307.396606 72.794286 
L 342.552398 72.794286 
L 342.552398 70.287891 
L 307.396606 70.287891 
z
" clip-path="url(#pf84a7892f8)" style="fill: #1f77b4; fill-opacity: 0.5; stroke: #000000; stroke-linejoin: miter"/>
   </g>
   <g id="matplotlib.axis_3">
    <g id="xtick_10">
     <g id="line2d_17">
      <g>
       <use xlink:href="#m7c2eb3e340" x="62.733713" y="72.794286" style="stroke: #000000; stroke-width: 0.8"/>
      </g>
     </g>
    </g>
    <g id="xtick_11">
     <g id="line2d_18">
      <g>
       <use xlink:href="#m7c2eb3e340" x="98.424872" y="72.794286" style="stroke: #000000; stroke-width: 0.8"/>
      </g>
     </g>
    </g>
    <g id="xtick_12">
     <g id="line2d_19">
      <g>
       <use xlink:href="#m7c2eb3e340" x="134.11603" y="72.794286" style="stroke: #000000; stroke-width: 0.8"/>
      </g>
     </g>
    </g>
    <g id="xtick_13">
     <g id="line2d_20">
      <g>
       <use xlink:href="#m7c2eb3e340" x="169.807189" y="72.794286" style="stroke: #000000; stroke-width: 0.8"/>
      </g>
     </g>
    </g>
    <g id="xtick_14">
     <g id="line2d_21">
      <g>
       <use xlink:href="#m7c2eb3e340" x="205.498348" y="72.794286" style="stroke: #000000; stroke-width: 0.8"/>
      </g>
     </g>
    </g>
    <g id="xtick_15">
     <g id="line2d_22">
      <g>
       <use xlink:href="#m7c2eb3e340" x="241.189507" y="72.794286" style="stroke: #000000; stroke-width: 0.8"/>
      </g>
     </g>
    </g>
    <g id="xtick_16">
     <g id="line2d_23">
      <g>
       <use xlink:href="#m7c2eb3e340" x="276.880666" y="72.794286" style="stroke: #000000; stroke-width: 0.8"/>
      </g>
     </g>
    </g>
    <g id="xtick_17">
     <g id="line2d_24">
      <g>
       <use xlink:href="#m7c2eb3e340" x="312.571824" y="72.794286" style="stroke: #000000; stroke-width: 0.8"/>
      </g>
     </g>
    </g>
    <g id="xtick_18">
     <g id="line2d_25">
      <g>
       <use xlink:href="#m7c2eb3e340" x="348.262983" y="72.794286" style="stroke: #000000; stroke-width: 0.8"/>
      </g>
     </g>
    </g>
   </g>
   <g id="matplotlib.axis_4">
    <g id="ytick_7"/>
    <g id="ytick_8"/>
   </g>
   <g id="line2d_26">
    <path d="M 61.306067 68.256171 
L 69.785855 66.923432 
L 76.852346 65.601371 
L 82.505539 64.309879 
L 86.745433 63.150898 
L 90.985328 61.793427 
L 95.225222 60.21564 
L 99.465117 58.410689 
L 103.705011 56.390501 
L 109.358204 53.41996 
L 117.837992 48.636882 
L 126.317781 43.931996 
L 131.970974 41.065494 
L 137.624166 38.502663 
L 143.277359 36.253297 
L 148.930552 34.284686 
L 154.583744 32.54892 
L 160.236937 31.010878 
L 165.890129 29.666792 
L 171.543322 28.547889 
L 175.783216 27.889392 
L 180.023111 27.414322 
L 184.263005 27.143997 
L 188.5029 27.09025 
L 192.742794 27.2517 
L 196.982689 27.611934 
L 202.635881 28.34593 
L 209.702372 29.518475 
L 221.008757 31.428334 
L 228.075248 32.359777 
L 235.141739 33.018253 
L 246.448124 33.73944 
L 253.514614 34.277443 
L 259.167807 34.941379 
L 263.407702 35.64883 
L 267.647596 36.58004 
L 271.88749 37.764632 
L 276.127385 39.219904 
L 280.367279 40.948439 
L 284.607174 42.936422 
L 288.847068 45.15308 
L 294.500261 48.38137 
L 312.873137 59.20288 
L 317.113031 61.368903 
L 321.352926 63.304088 
L 325.59282 64.987562 
L 329.832714 66.416379 
L 334.072609 67.603256 
L 338.312503 68.572702 
L 342.552398 69.35628 
L 342.552398 69.35628 
" clip-path="url(#pf84a7892f8)" style="fill: none; stroke: #1f77b4; stroke-width: 1.5; stroke-linecap: square"/>
   </g>
   <g id="patch_14">
    <path d="M 47.24375 72.794286 
L 356.614714 72.794286 
" style="fill: none; stroke: #000000; stroke-width: 0.8; stroke-linejoin: miter; stroke-linecap: square"/>
   </g>
  </g>
  <g id="axes_3">
   <g id="patch_15">
    <path d="M 367.282679 388.6 
L 420.6225 388.6 
L 420.6225 83.321143 
L 367.282679 83.321143 
z
" style="fill: #ffffff"/>
   </g>
   <g id="patch_16">
    <path d="M 367.282679 374.723688 
L 375.749317 374.723688 
L 375.749317 343.88744 
L 367.282679 343.88744 
z
" clip-path="url(#p3816104403)" style="fill: #1f77b4; fill-opacity: 0.5; stroke: #000000; stroke-linejoin: miter"/>
   </g>
   <g id="patch_17">
    <path d="M 367.282679 343.88744 
L 377.865976 343.88744 
L 377.865976 313.051192 
L 367.282679 313.051192 
z
" clip-path="url(#p3816104403)" style="fill: #1f77b4; fill-opacity: 0.5; stroke: #000000; stroke-linejoin: miter"/>
   </g>
   <g id="patch_18">
    <path d="M 367.282679 313.051192 
L 377.865976 313.051192 
L 377.865976 282.214944 
L 367.282679 282.214944 
z
" clip-path="url(#p3816104403)" style="fill: #1f77b4; fill-opacity: 0.5; stroke: #000000; stroke-linejoin: miter"/>
   </g>
   <g id="patch_19">
    <path d="M 367.282679 282.214944 
L 379.982636 282.214944 
L 379.982636 251.378696 
L 367.282679 251.378696 
z
" clip-path="url(#p3816104403)" style="fill: #1f77b4; fill-opacity: 0.5; stroke: #000000; stroke-linejoin: miter"/>
   </g>
   <g id="patch_20">
    <path d="M 367.282679 251.378696 
L 396.915913 251.378696 
L 396.915913 220.542447 
L 367.282679 220.542447 
z
" clip-path="url(#p3816104403)" style="fill: #1f77b4; fill-opacity: 0.5; stroke: #000000; stroke-linejoin: miter"/>
   </g>
   <g id="patch_21">
    <path d="M 367.282679 220.542447 
L 403.265891 220.542447 
L 403.265891 189.706199 
L 367.282679 189.706199 
z
" clip-path="url(#p3816104403)" style="fill: #1f77b4; fill-opacity: 0.5; stroke: #000000; stroke-linejoin: miter"/>
   </g>
   <g id="patch_22">
    <path d="M 367.282679 189.706199 
L 418.082509 189.706199 
L 418.082509 158.869951 
L 367.282679 158.869951 
z
" clip-path="url(#p3816104403)" style="fill: #1f77b4; fill-opacity: 0.5; stroke: #000000; stroke-linejoin: miter"/>
   </g>
   <g id="patch_23">
    <path d="M 367.282679 158.869951 
L 394.799253 158.869951 
L 394.799253 128.033703 
L 367.282679 128.033703 
z
" clip-path="url(#p3816104403)" style="fill: #1f77b4; fill-opacity: 0.5; stroke: #000000; stroke-linejoin: miter"/>
   </g>
   <g id="patch_24">
    <path d="M 367.282679 128.033703 
L 377.865976 128.033703 
L 377.865976 97.197455 
L 367.282679 97.197455 
z
" clip-path="url(#p3816104403)" style="fill: #1f77b4; fill-opacity: 0.5; stroke: #000000; stroke-linejoin: miter"/>
   </g>
   <g id="matplotlib.axis_5">
    <g id="xtick_19"/>
    <g id="xtick_20"/>
   </g>
   <g id="matplotlib.axis_6">
    <g id="ytick_9">
     <g id="line2d_27">
      <g>
       <use xlink:href="#m4755278f5b" x="367.282679" y="372.037141" style="stroke: #000000; stroke-width: 0.8"/>
      </g>
     </g>
    </g>
    <g id="ytick_10">
     <g id="line2d_28">
      <g>
       <use xlink:href="#m4755278f5b" x="367.282679" y="320.609478" style="stroke: #000000; stroke-width: 0.8"/>
      </g>
     </g>
    </g>
    <g id="ytick_11">
     <g id="line2d_29">
      <g>
       <use xlink:href="#m4755278f5b" x="367.282679" y="269.181815" style="stroke: #000000; stroke-width: 0.8"/>
      </g>
     </g>
    </g>
    <g id="ytick_12">
     <g id="line2d_30">
      <g>
       <use xlink:href="#m4755278f5b" x="367.282679" y="217.754152" style="stroke: #000000; stroke-width: 0.8"/>
      </g>
     </g>
    </g>
    <g id="ytick_13">
     <g id="line2d_31">
      <g>
       <use xlink:href="#m4755278f5b" x="367.282679" y="166.326489" style="stroke: #000000; stroke-width: 0.8"/>
      </g>
     </g>
    </g>
    <g id="ytick_14">
     <g id="line2d_32">
      <g>
       <use xlink:href="#m4755278f5b" x="367.282679" y="114.898826" style="stroke: #000000; stroke-width: 0.8"/>
      </g>
     </g>
    </g>
   </g>
   <g id="line2d_33">
    <path d="M 371.724257 374.723688 
L 374.782159 351.015417 
L 375.991931 339.858584 
L 376.965038 328.70175 
L 377.709851 317.544917 
L 378.942895 298.020458 
L 379.613702 291.047437 
L 380.535292 284.074416 
L 381.488791 278.495999 
L 382.643957 272.917582 
L 384.35381 265.944562 
L 386.307825 258.971541 
L 389.320708 249.209311 
L 393.466973 236.657874 
L 397.862691 224.106436 
L 404.316464 205.976581 
L 406.026436 200.398165 
L 407.10181 196.214352 
L 407.941654 192.030539 
L 408.498545 187.846727 
L 408.693045 185.057519 
L 408.735747 182.26831 
L 408.620755 179.479102 
L 408.345077 176.689893 
L 407.908722 173.900685 
L 407.314678 171.111477 
L 406.141462 166.927664 
L 404.657785 162.743851 
L 402.905183 158.560039 
L 400.933226 154.376226 
L 398.056938 148.79781 
L 391.942687 137.640976 
L 387.480418 129.273351 
L 384.714681 123.694934 
L 382.167254 118.116517 
L 379.855348 112.538101 
L 377.779259 106.959684 
L 375.929724 101.381267 
L 374.683861 97.197455 
L 374.683861 97.197455 
" clip-path="url(#p3816104403)" style="fill: none; stroke: #1f77b4; stroke-width: 1.5; stroke-linecap: square"/>
   </g>
   <g id="patch_25">
    <path d="M 367.282679 388.6 
L 367.282679 83.321143 
" style="fill: none; stroke: #000000; stroke-width: 0.8; stroke-linejoin: miter; stroke-linecap: square"/>
   </g>
  </g>
  <g id="text_18">
   <!-- IST_intelligence_total vs XGBoost prediction -->
   <g transform="translate(83.457188 16.318125) scale(0.12 -0.12)">
    <defs>
     <path id="DejaVuSans-49" d="M 628 4666 
L 1259 4666 
L 1259 0 
L 628 0 
L 628 4666 
z
" transform="scale(0.015625)"/>
     <path id="DejaVuSans-53" d="M 3425 4513 
L 3425 3897 
Q 3066 4069 2747 4153 
Q 2428 4238 2131 4238 
Q 1616 4238 1336 4038 
Q 1056 3838 1056 3469 
Q 1056 3159 1242 3001 
Q 1428 2844 1947 2747 
L 2328 2669 
Q 3034 2534 3370 2195 
Q 3706 1856 3706 1288 
Q 3706 609 3251 259 
Q 2797 -91 1919 -91 
Q 1588 -91 1214 -16 
Q 841 59 441 206 
L 441 856 
Q 825 641 1194 531 
Q 1563 422 1919 422 
Q 2459 422 2753 634 
Q 3047 847 3047 1241 
Q 3047 1584 2836 1778 
Q 2625 1972 2144 2069 
L 1759 2144 
Q 1053 2284 737 2584 
Q 422 2884 422 3419 
Q 422 4038 858 4394 
Q 1294 4750 2059 4750 
Q 2388 4750 2728 4690 
Q 3069 4631 3425 4513 
z
" transform="scale(0.015625)"/>
     <path id="DejaVuSans-54" d="M -19 4666 
L 3928 4666 
L 3928 4134 
L 2272 4134 
L 2272 0 
L 1638 0 
L 1638 4134 
L -19 4134 
L -19 4666 
z
" transform="scale(0.015625)"/>
     <path id="DejaVuSans-69" d="M 603 3500 
L 1178 3500 
L 1178 0 
L 603 0 
L 603 3500 
z
M 603 4863 
L 1178 4863 
L 1178 4134 
L 603 4134 
L 603 4863 
z
" transform="scale(0.015625)"/>
     <path id="DejaVuSans-6e" d="M 3513 2113 
L 3513 0 
L 2938 0 
L 2938 2094 
Q 2938 2591 2744 2837 
Q 2550 3084 2163 3084 
Q 1697 3084 1428 2787 
Q 1159 2491 1159 1978 
L 1159 0 
L 581 0 
L 581 3500 
L 1159 3500 
L 1159 2956 
Q 1366 3272 1645 3428 
Q 1925 3584 2291 3584 
Q 2894 3584 3203 3211 
Q 3513 2838 3513 2113 
z
" transform="scale(0.015625)"/>
     <path id="DejaVuSans-6c" d="M 603 4863 
L 1178 4863 
L 1178 0 
L 603 0 
L 603 4863 
z
" transform="scale(0.015625)"/>
     <path id="DejaVuSans-67" d="M 2906 1791 
Q 2906 2416 2648 2759 
Q 2391 3103 1925 3103 
Q 1463 3103 1205 2759 
Q 947 2416 947 1791 
Q 947 1169 1205 825 
Q 1463 481 1925 481 
Q 2391 481 2648 825 
Q 2906 1169 2906 1791 
z
M 3481 434 
Q 3481 -459 3084 -895 
Q 2688 -1331 1869 -1331 
Q 1566 -1331 1297 -1286 
Q 1028 -1241 775 -1147 
L 775 -588 
Q 1028 -725 1275 -790 
Q 1522 -856 1778 -856 
Q 2344 -856 2625 -561 
Q 2906 -266 2906 331 
L 2906 616 
Q 2728 306 2450 153 
Q 2172 0 1784 0 
Q 1141 0 747 490 
Q 353 981 353 1791 
Q 353 2603 747 3093 
Q 1141 3584 1784 3584 
Q 2172 3584 2450 3431 
Q 2728 3278 2906 2969 
L 2906 3500 
L 3481 3500 
L 3481 434 
z
" transform="scale(0.015625)"/>
     <path id="DejaVuSans-63" d="M 3122 3366 
L 3122 2828 
Q 2878 2963 2633 3030 
Q 2388 3097 2138 3097 
Q 1578 3097 1268 2742 
Q 959 2388 959 1747 
Q 959 1106 1268 751 
Q 1578 397 2138 397 
Q 2388 397 2633 464 
Q 2878 531 3122 666 
L 3122 134 
Q 2881 22 2623 -34 
Q 2366 -91 2075 -91 
Q 1284 -91 818 406 
Q 353 903 353 1747 
Q 353 2603 823 3093 
Q 1294 3584 2113 3584 
Q 2378 3584 2631 3529 
Q 2884 3475 3122 3366 
z
" transform="scale(0.015625)"/>
     <path id="DejaVuSans-6f" d="M 1959 3097 
Q 1497 3097 1228 2736 
Q 959 2375 959 1747 
Q 959 1119 1226 758 
Q 1494 397 1959 397 
Q 2419 397 2687 759 
Q 2956 1122 2956 1747 
Q 2956 2369 2687 2733 
Q 2419 3097 1959 3097 
z
M 1959 3584 
Q 2709 3584 3137 3096 
Q 3566 2609 3566 1747 
Q 3566 888 3137 398 
Q 2709 -91 1959 -91 
Q 1206 -91 779 398 
Q 353 888 353 1747 
Q 353 2609 779 3096 
Q 1206 3584 1959 3584 
z
" transform="scale(0.015625)"/>
     <path id="DejaVuSans-61" d="M 2194 1759 
Q 1497 1759 1228 1600 
Q 959 1441 959 1056 
Q 959 750 1161 570 
Q 1363 391 1709 391 
Q 2188 391 2477 730 
Q 2766 1069 2766 1631 
L 2766 1759 
L 2194 1759 
z
M 3341 1997 
L 3341 0 
L 2766 0 
L 2766 531 
Q 2569 213 2275 61 
Q 1981 -91 1556 -91 
Q 1019 -91 701 211 
Q 384 513 384 1019 
Q 384 1609 779 1909 
Q 1175 2209 1959 2209 
L 2766 2209 
L 2766 2266 
Q 2766 2663 2505 2880 
Q 2244 3097 1772 3097 
Q 1472 3097 1187 3025 
Q 903 2953 641 2809 
L 641 3341 
Q 956 3463 1253 3523 
Q 1550 3584 1831 3584 
Q 2591 3584 2966 3190 
Q 3341 2797 3341 1997 
z
" transform="scale(0.015625)"/>
     <path id="DejaVuSans-20" transform="scale(0.015625)"/>
     <path id="DejaVuSans-76" d="M 191 3500 
L 800 3500 
L 1894 563 
L 2988 3500 
L 3597 3500 
L 2284 0 
L 1503 0 
L 191 3500 
z
" transform="scale(0.015625)"/>
     <path id="DejaVuSans-73" d="M 2834 3397 
L 2834 2853 
Q 2591 2978 2328 3040 
Q 2066 3103 1784 3103 
Q 1356 3103 1142 2972 
Q 928 2841 928 2578 
Q 928 2378 1081 2264 
Q 1234 2150 1697 2047 
L 1894 2003 
Q 2506 1872 2764 1633 
Q 3022 1394 3022 966 
Q 3022 478 2636 193 
Q 2250 -91 1575 -91 
Q 1294 -91 989 -36 
Q 684 19 347 128 
L 347 722 
Q 666 556 975 473 
Q 1284 391 1588 391 
Q 1994 391 2212 530 
Q 2431 669 2431 922 
Q 2431 1156 2273 1281 
Q 2116 1406 1581 1522 
L 1381 1569 
Q 847 1681 609 1914 
Q 372 2147 372 2553 
Q 372 3047 722 3315 
Q 1072 3584 1716 3584 
Q 2034 3584 2315 3537 
Q 2597 3491 2834 3397 
z
" transform="scale(0.015625)"/>
     <path id="DejaVuSans-58" d="M 403 4666 
L 1081 4666 
L 2241 2931 
L 3406 4666 
L 4084 4666 
L 2584 2425 
L 4184 0 
L 3506 0 
L 2194 1984 
L 872 0 
L 191 0 
L 1856 2491 
L 403 4666 
z
" transform="scale(0.015625)"/>
     <path id="DejaVuSans-47" d="M 3809 666 
L 3809 1919 
L 2778 1919 
L 2778 2438 
L 4434 2438 
L 4434 434 
Q 4069 175 3628 42 
Q 3188 -91 2688 -91 
Q 1594 -91 976 548 
Q 359 1188 359 2328 
Q 359 3472 976 4111 
Q 1594 4750 2688 4750 
Q 3144 4750 3555 4637 
Q 3966 4525 4313 4306 
L 4313 3634 
Q 3963 3931 3569 4081 
Q 3175 4231 2741 4231 
Q 1884 4231 1454 3753 
Q 1025 3275 1025 2328 
Q 1025 1384 1454 906 
Q 1884 428 2741 428 
Q 3075 428 3337 486 
Q 3600 544 3809 666 
z
" transform="scale(0.015625)"/>
     <path id="DejaVuSans-42" d="M 1259 2228 
L 1259 519 
L 2272 519 
Q 2781 519 3026 730 
Q 3272 941 3272 1375 
Q 3272 1813 3026 2020 
Q 2781 2228 2272 2228 
L 1259 2228 
z
M 1259 4147 
L 1259 2741 
L 2194 2741 
Q 2656 2741 2882 2914 
Q 3109 3088 3109 3444 
Q 3109 3797 2882 3972 
Q 2656 4147 2194 4147 
L 1259 4147 
z
M 628 4666 
L 2241 4666 
Q 2963 4666 3353 4366 
Q 3744 4066 3744 3513 
Q 3744 3084 3544 2831 
Q 3344 2578 2956 2516 
Q 3422 2416 3680 2098 
Q 3938 1781 3938 1306 
Q 3938 681 3513 340 
Q 3088 0 2303 0 
L 628 0 
L 628 4666 
z
" transform="scale(0.015625)"/>
    </defs>
    <use xlink:href="#DejaVuSans-49"/>
    <use xlink:href="#DejaVuSans-53" x="29.492188"/>
    <use xlink:href="#DejaVuSans-54" x="92.96875"/>
    <use xlink:href="#DejaVuSans-5f" x="154.052734"/>
    <use xlink:href="#DejaVuSans-69" x="204.052734"/>
    <use xlink:href="#DejaVuSans-6e" x="231.835938"/>
    <use xlink:href="#DejaVuSans-74" x="295.214844"/>
    <use xlink:href="#DejaVuSans-65" x="334.423828"/>
    <use xlink:href="#DejaVuSans-6c" x="395.947266"/>
    <use xlink:href="#DejaVuSans-6c" x="423.730469"/>
    <use xlink:href="#DejaVuSans-69" x="451.513672"/>
    <use xlink:href="#DejaVuSans-67" x="479.296875"/>
    <use xlink:href="#DejaVuSans-65" x="542.773438"/>
    <use xlink:href="#DejaVuSans-6e" x="604.296875"/>
    <use xlink:href="#DejaVuSans-63" x="667.675781"/>
    <use xlink:href="#DejaVuSans-65" x="722.65625"/>
    <use xlink:href="#DejaVuSans-5f" x="784.179688"/>
    <use xlink:href="#DejaVuSans-74" x="834.179688"/>
    <use xlink:href="#DejaVuSans-6f" x="873.388672"/>
    <use xlink:href="#DejaVuSans-74" x="934.570312"/>
    <use xlink:href="#DejaVuSans-61" x="973.779297"/>
    <use xlink:href="#DejaVuSans-6c" x="1035.058594"/>
    <use xlink:href="#DejaVuSans-20" x="1062.841797"/>
    <use xlink:href="#DejaVuSans-76" x="1094.628906"/>
    <use xlink:href="#DejaVuSans-73" x="1153.808594"/>
    <use xlink:href="#DejaVuSans-20" x="1205.908203"/>
    <use xlink:href="#DejaVuSans-58" x="1237.695312"/>
    <use xlink:href="#DejaVuSans-47" x="1306.201172"/>
    <use xlink:href="#DejaVuSans-42" x="1383.691406"/>
    <use xlink:href="#DejaVuSans-6f" x="1452.294922"/>
    <use xlink:href="#DejaVuSans-6f" x="1513.476562"/>
    <use xlink:href="#DejaVuSans-73" x="1574.658203"/>
    <use xlink:href="#DejaVuSans-74" x="1626.757812"/>
    <use xlink:href="#DejaVuSans-20" x="1665.966797"/>
    <use xlink:href="#DejaVuSans-70" x="1697.753906"/>
    <use xlink:href="#DejaVuSans-72" x="1761.230469"/>
    <use xlink:href="#DejaVuSans-65" x="1800.09375"/>
    <use xlink:href="#DejaVuSans-64" x="1861.617188"/>
    <use xlink:href="#DejaVuSans-69" x="1925.09375"/>
    <use xlink:href="#DejaVuSans-63" x="1952.876953"/>
    <use xlink:href="#DejaVuSans-74" x="2007.857422"/>
    <use xlink:href="#DejaVuSans-69" x="2047.066406"/>
    <use xlink:href="#DejaVuSans-6f" x="2074.849609"/>
    <use xlink:href="#DejaVuSans-6e" x="2136.03125"/>
   </g>
  </g>
 </g>
 <defs>
  <clipPath id="p418c4fc7b1">
   <rect x="47.24375" y="83.321143" width="309.370964" height="305.278857"/>
  </clipPath>
  <clipPath id="pf84a7892f8">
   <rect x="47.24375" y="20.16" width="309.370964" height="52.634286"/>
  </clipPath>
  <clipPath id="p3816104403">
   <rect x="367.282679" y="83.321143" width="53.339821" height="305.278857"/>
  </clipPath>
 </defs>
</svg>
